<svg width="322" height="47" viewBox="0 0 322 47" fill="none" xmlns="http://www.w3.org/2000/svg">
<path d="M223.915 46.4629H197.302V41.6829L207.426 31.5052C210.416 28.4438 212.394 26.2776 213.361 25.0065C214.346 23.7175 215.062 22.5091 215.509 21.3812C215.957 20.2533 216.181 19.0449 216.181 17.7559C216.181 15.9835 215.644 14.5871 214.569 13.5666C213.513 12.5462 212.045 12.0359 210.165 12.0359C208.662 12.0359 207.202 12.3134 205.788 12.8684C204.392 13.4234 202.772 14.426 200.928 15.8761L197.517 11.7137C199.701 9.86972 201.823 8.56282 203.882 7.793C205.94 7.02318 208.133 6.63827 210.461 6.63827C214.113 6.63827 217.04 7.59607 219.242 9.51166C221.444 11.4094 222.545 13.9694 222.545 17.1919C222.545 18.9643 222.223 20.6472 221.578 22.2405C220.952 23.8339 219.976 25.4809 218.651 27.1817C217.344 28.8645 215.16 31.1471 212.099 34.0295L205.278 40.6356V40.9041H223.915V46.4629Z" fill="white"/>
<path d="M256.434 26.8326C256.434 33.6535 255.333 38.72 253.131 42.032C250.947 45.344 247.599 47 243.087 47C238.719 47 235.407 45.2903 233.151 41.8709C230.896 38.4514 229.768 33.4387 229.768 26.8326C229.768 19.9042 230.86 14.8019 233.044 11.5257C235.246 8.23162 238.594 6.58456 243.087 6.58456C247.474 6.58456 250.795 8.30323 253.05 11.7406C255.306 15.1779 256.434 20.2086 256.434 26.8326ZM236.159 26.8326C236.159 32.1855 236.705 36.0077 237.797 38.2993C238.907 40.5908 240.671 41.7366 243.087 41.7366C245.504 41.7366 247.268 40.5729 248.378 38.2456C249.506 35.9182 250.07 32.1139 250.07 26.8326C250.07 21.5692 249.506 17.7648 248.378 15.4196C247.268 13.0564 245.504 11.8748 243.087 11.8748C240.671 11.8748 238.907 13.0296 237.797 15.339C236.705 17.6485 236.159 21.4796 236.159 26.8326Z" fill="white"/>
<path d="M288.953 46.4629H262.341V41.6829L272.465 31.5052C275.455 28.4438 277.433 26.2776 278.4 25.0065C279.384 23.7175 280.1 22.5091 280.548 21.3812C280.995 20.2533 281.219 19.0449 281.219 17.7559C281.219 15.9835 280.682 14.5871 279.608 13.5666C278.552 12.5462 277.084 12.0359 275.204 12.0359C273.7 12.0359 272.241 12.3134 270.827 12.8684C269.43 13.4234 267.81 14.426 265.966 15.8761L262.556 11.7137C264.74 9.86972 266.861 8.56282 268.92 7.793C270.979 7.02318 273.172 6.63827 275.499 6.63827C279.151 6.63827 282.079 7.59607 284.281 9.51166C286.483 11.4094 287.584 13.9694 287.584 17.1919C287.584 18.9643 287.261 20.6472 286.617 22.2405C285.99 23.8339 285.015 25.4809 283.69 27.1817C282.383 28.8645 280.199 31.1471 277.137 34.0295L270.316 40.6356V40.9041H288.953V46.4629Z" fill="white"/>
<path d="M321.472 26.8326C321.472 33.6535 320.371 38.72 318.169 42.032C315.985 45.344 312.637 47 308.126 47C303.758 47 300.446 45.2903 298.19 41.8709C295.934 38.4514 294.806 33.4387 294.806 26.8326C294.806 19.9042 295.898 14.8019 298.083 11.5257C300.285 8.23162 303.632 6.58456 308.126 6.58456C312.512 6.58456 315.833 8.30323 318.089 11.7406C320.345 15.1779 321.472 20.2086 321.472 26.8326ZM301.198 26.8326C301.198 32.1855 301.744 36.0077 302.836 38.2993C303.946 40.5908 305.709 41.7366 308.126 41.7366C310.543 41.7366 312.306 40.5729 313.416 38.2456C314.544 35.9182 315.108 32.1139 315.108 26.8326C315.108 21.5692 314.544 17.7648 313.416 15.4196C312.306 13.0564 310.543 11.8748 308.126 11.8748C305.709 11.8748 303.946 13.0296 302.836 15.339C301.744 17.6485 301.198 21.4796 301.198 26.8326Z" fill="white"/>
<path d="M32.3464 36.735V35.8868L31.536 36.1369C29.787 36.6765 28.1056 37.1223 26.4916 37.4749C24.9022 37.8035 23.2556 37.9683 21.5507 37.9683C17.6588 37.9683 14.7641 36.7271 12.7661 34.3094C10.7723 31.874 9.72502 28.2184 9.72502 23.241C9.72502 18.5051 10.8122 14.8772 12.9101 12.2815C14.9948 9.7021 17.85 8.40098 21.5507 8.40098C23.1969 8.40098 24.7551 8.64502 26.2286 9.1302L26.2286 9.13026L26.2372 9.13298C27.7702 9.61318 29.2175 10.1757 30.5796 10.8199L31.1649 11.0968L31.4217 10.5024L33.8445 4.89638L34.0803 4.35069L33.5475 4.08708C29.8879 2.27659 25.9046 1.3741 21.6071 1.3741C17.5157 1.3741 13.9205 2.24883 10.8432 4.02119C7.76311 5.79518 5.40622 8.35062 3.77641 11.6684L3.77512 11.6711C2.16754 14.9831 1.3741 18.8266 1.3741 23.1847C1.3741 30.076 3.01138 35.4754 6.37603 39.29L6.37709 39.2912C9.75364 43.0996 14.5722 44.9671 20.7338 44.9671C24.8898 44.9671 28.629 44.3474 31.9418 43.0955L32.3464 42.9426V42.51V36.735Z" stroke="white" stroke-width="1.2518"/>
<path d="M114.252 45.2237H114.878V44.5978V24.2864C114.878 20.3896 113.92 17.3514 111.895 15.2908C109.868 13.2281 106.877 12.2512 103.04 12.2512C100.854 12.2512 98.847 12.6713 97.028 13.5215C95.5236 14.2246 94.2887 15.1777 93.3365 16.3824L92.6353 13.3017L92.5245 12.8147H92.025H86.8416H86.2157V13.4406V44.5978V45.2237H86.8416H93.4618H94.0877V44.5978V29.0755C94.0877 25.2239 94.7362 22.6331 95.8981 21.1512C97.0385 19.6968 98.872 18.9119 101.547 18.9119C103.538 18.9119 104.854 19.4686 105.652 20.4546L105.652 20.4546L105.656 20.4592C106.5 21.4821 106.978 23.105 106.978 25.4414V44.5978V45.2237H107.604H114.252Z" stroke="white" stroke-width="1.2518"/>
<path d="M125.04 41.3691L125.043 41.3721C127.929 44.3373 131.9 45.7871 136.873 45.7871C139.025 45.7871 140.953 45.6253 142.654 45.2968C144.362 44.9669 146.046 44.4048 147.706 43.6134L148.063 43.4434V43.0484V37.6677V36.7056L147.183 37.0955C145.392 37.8894 143.724 38.4567 142.176 38.8029C140.648 39.1301 138.984 39.2955 137.183 39.2955C134.51 39.2955 132.523 38.5286 131.129 37.0681C129.832 35.6909 129.062 33.7373 128.882 31.1381H148.986H149.612V30.5122V26.9345C149.612 22.4425 148.385 18.8348 145.861 16.1916C143.336 13.5467 139.91 12.2512 135.661 12.2512C131.078 12.2512 127.41 13.7641 124.738 16.8326C122.075 19.8897 120.781 24.0528 120.781 29.2445C120.781 34.3201 122.178 38.3882 125.04 41.3691ZM140.155 20.3108L140.157 20.3141C141.126 21.3731 141.709 22.9408 141.831 25.0973H129.04C129.336 22.9787 130.021 21.4077 131.044 20.323C132.186 19.1315 133.703 18.5175 135.661 18.5175C137.621 18.5175 139.092 19.1319 140.155 20.3108L140.155 20.3108Z" stroke="white" stroke-width="1.2518"/>
<path d="M167.46 44.2566L167.614 44.6603H168.045H175.201H175.632L175.786 44.2575L187.674 13.1003L187.998 12.2512H187.089H180.046H179.602L179.456 12.6704L173.117 30.7844L173.114 30.7921L173.112 30.7998C172.481 32.7659 171.992 34.4125 171.651 35.7319C171.301 34.2856 170.792 32.6346 170.129 30.7824C170.128 30.7816 170.128 30.7809 170.128 30.7802L163.791 12.6704L163.644 12.2512H163.2H156.214H155.306L155.628 13.0993L167.46 44.2566Z" stroke="white" stroke-width="1.2518"/>
<path d="M75.0826 27.7876C75.1583 27.1565 75.2088 26.5003 75.2088 25.8187C75.2088 25.1372 75.1583 24.481 75.0574 23.8499L79.3232 20.5181C79.7018 20.2152 79.8027 19.6599 79.5756 19.2308L75.537 12.2389C75.2845 11.7846 74.7545 11.6331 74.3001 11.7846L69.2771 13.8039C68.217 12.9962 67.1064 12.3399 65.8695 11.8351L65.1123 6.48391C65.0366 5.97908 64.6075 5.6257 64.1026 5.6257H56.0254C55.5206 5.6257 55.1167 5.97908 55.041 6.48391L54.2838 11.8351C53.047 12.3399 51.9111 13.0214 50.8762 13.8039L45.8532 11.7846C45.3988 11.6079 44.8688 11.7846 44.6164 12.2389L40.5778 19.2308C40.3253 19.6851 40.4263 20.2152 40.8302 20.5181L45.0959 23.8499C44.995 24.481 44.9193 25.1625 44.9193 25.8187C44.9193 26.475 44.9697 27.1565 45.0707 27.7876L40.8049 31.1194C40.4263 31.4223 40.3253 31.9776 40.5525 32.4067L44.5911 39.3986C44.8435 39.8529 45.3736 40.0043 45.8279 39.8529L50.851 37.8336C51.9111 38.6413 53.0217 39.2976 54.2585 39.8024L55.0158 45.1536C55.1167 45.6584 55.5206 46.0118 56.0254 46.0118H64.1026C64.6075 46.0118 65.0366 45.6584 65.0871 45.1536L65.8443 39.8024C67.0811 39.2976 68.217 38.6161 69.2519 37.8336L74.2749 39.8529C74.7292 40.0296 75.2593 39.8529 75.5117 39.3986L79.5503 32.4067C79.8027 31.9524 79.7018 31.4223 79.2979 31.1194L75.0574 28.0041L75.0826 27.7876ZM60.064 33.3911C55.8992 33.3911 52.4916 29.9836 52.4916 25.8187C52.4916 21.6539 55.8992 18.2464 60.064 18.2464C64.2289 18.2464 67.6364 21.6539 67.6364 25.8187C67.6364 29.9836 64.2289 33.3911 60.064 33.3911Z" fill="white"/>
</svg>
