<svg width="1036" height="149" viewBox="0 0 1036 149" fill="none" xmlns="http://www.w3.org/2000/svg">
<path d="M726.436 139.443H729.703V136.176V118.956V115.689H726.436H675.916L692.091 100.024C701.595 91.0755 708.506 83.8696 712.712 78.4529C716.956 73.0048 720.153 67.6389 722.234 62.3539C724.389 57.021 725.461 51.3957 725.461 45.5042C725.461 34.6903 721.722 25.8143 714.101 19.244C706.548 12.6756 696.654 9.54541 684.761 9.54541C677.184 9.54541 670.001 10.7999 663.236 13.3293C656.42 15.878 649.529 20.153 642.558 26.0381L640.098 28.1149L642.138 30.6051L652.703 43.4987L654.732 45.9758L657.25 43.9962C662.833 39.6052 667.57 36.708 671.486 35.1503C675.489 33.5804 679.602 32.7998 683.846 32.7998C689.069 32.7998 692.712 34.2032 695.218 36.6239L695.228 36.6334L695.238 36.6429C697.79 39.0675 699.212 42.4666 699.212 47.2511C699.212 50.8573 698.588 54.1892 697.363 57.276C696.117 60.4159 694.074 63.8983 691.148 67.7277L691.144 67.7332C688.289 71.4867 682.301 78.0591 673.034 87.5483L641.684 119.065L640.733 120.021V121.369V136.176V139.443H644H726.436ZM752 26.1365L751.997 26.1399C744.693 37.0964 741.3 53.6908 741.3 75.3675C741.3 96.1139 744.826 112.389 752.321 123.75C759.96 135.329 771.284 141.106 785.827 141.106C800.721 141.106 812.2 135.565 819.661 124.255C827.011 113.198 830.437 96.7291 830.437 75.3675C830.437 54.5659 826.911 38.2395 819.42 26.8251C811.782 15.1861 800.427 9.37904 785.827 9.37904C770.987 9.37904 759.516 14.8921 752 26.1365ZM799.274 109.296L799.27 109.306L799.265 109.315C797.746 112.501 795.875 114.695 793.739 116.105C791.616 117.506 789.025 118.268 785.827 118.268C782.619 118.268 780.021 117.515 777.895 116.134C775.761 114.747 773.898 112.594 772.385 109.473C769.341 103.079 767.632 91.8782 767.632 75.3675C767.632 58.8608 769.339 47.6258 772.389 41.1702C773.905 38.0189 775.771 35.8468 777.905 34.4495C780.029 33.0584 782.624 32.3007 785.827 32.3007C789.015 32.3007 791.599 33.0716 793.72 34.4928C795.857 35.9244 797.732 38.1566 799.257 41.4029L799.264 41.4165L799.27 41.4299C802.428 47.9956 804.188 59.152 804.188 75.3675C804.188 91.644 802.426 102.792 799.274 109.296ZM927.903 139.443H931.17V136.176V118.956V115.689H927.903H877.384L893.558 100.024C903.062 91.0755 909.973 83.8696 914.179 78.4529C918.423 73.005 921.62 67.6393 923.7 62.3545C925.856 57.0214 926.928 51.3959 926.928 45.5042C926.928 34.6898 923.189 25.8136 915.567 19.2431C908.014 12.6753 898.121 9.54541 886.228 9.54541C878.651 9.54541 871.468 10.7999 864.703 13.3293C857.887 15.878 850.996 20.153 844.025 26.0381L841.565 28.1149L843.605 30.6051L854.17 43.4987L856.199 45.9758L858.717 43.9962C864.3 39.6051 869.037 36.7078 872.954 35.1501C876.956 33.5803 881.069 32.7998 885.313 32.7998C890.536 32.7998 894.179 34.2032 896.685 36.6239L896.695 36.6334L896.705 36.6429C899.257 39.0675 900.679 42.4666 900.679 47.2511C900.679 50.8573 900.055 54.1892 898.83 57.276C897.584 60.4158 895.541 63.8982 892.615 67.7277L892.611 67.7332C889.756 71.4867 883.768 78.0591 874.501 87.5484C874.497 87.5519 874.494 87.5555 874.49 87.559L843.151 119.065L842.2 120.021V121.369V136.176V139.443H845.467H927.903ZM953.467 26.1365L953.464 26.1399C946.16 37.0964 942.767 53.6908 942.767 75.3675C942.767 96.1139 946.293 112.389 953.788 123.75C961.427 135.329 972.751 141.106 987.294 141.106C1002.19 141.106 1013.67 135.563 1021.13 124.249C1028.48 113.192 1031.9 96.7252 1031.9 75.3675C1031.9 54.5659 1028.38 38.2395 1020.89 26.8251C1013.25 15.1861 1001.89 9.37904 987.294 9.37904C972.454 9.37904 960.983 14.8921 953.467 26.1365ZM1000.74 109.296L1000.74 109.306L1000.73 109.315C999.213 112.501 997.342 114.695 995.206 116.105C993.083 117.506 990.492 118.268 987.294 118.268C984.086 118.268 981.488 117.515 979.362 116.134C977.228 114.747 975.364 112.593 973.851 109.471C970.807 103.076 969.099 91.8764 969.099 75.3675C969.099 58.8583 970.807 47.6224 973.857 41.1673C975.373 38.0176 977.239 35.8464 979.372 34.4495C981.496 33.0584 984.091 32.3007 987.294 32.3007C990.482 32.3007 993.066 33.0716 995.187 34.4928C997.324 35.9244 999.199 38.1566 1000.72 41.4029L1000.73 41.4165L1000.74 41.4299C1003.89 47.9956 1005.65 59.152 1005.65 75.3675C1005.65 91.644 1003.89 102.792 1000.74 109.296Z" stroke="#333333" stroke-width="6.53421"/>
<path d="M102.91 117.069V114.333L100.295 115.139C94.6517 116.881 89.2265 118.319 84.0188 119.457C78.8913 120.517 73.5789 121.049 68.0787 121.049C55.5216 121.049 46.1819 117.044 39.7357 109.243C33.3029 101.385 29.9241 89.591 29.9241 73.5321C29.9241 58.2521 33.4317 46.5471 40.2004 38.1723C46.9265 29.8501 56.1385 25.6522 68.0787 25.6522C73.3898 25.6522 78.4172 26.4395 83.1713 28.0049L83.1852 28.0095L83.1992 28.0139C88.1452 29.5632 92.8146 31.3781 97.2094 33.4567L99.0978 34.3499L99.9266 32.4323L107.743 14.3449L108.504 12.5843L106.785 11.7338C94.9779 5.89238 82.1261 2.98058 68.2604 2.98058C55.0601 2.98058 43.4604 5.80283 33.5318 11.5212C23.5942 17.2448 15.9899 25.4897 10.7315 36.1943L10.7314 36.1943L10.7273 36.2029C5.54054 46.8888 2.98058 59.2896 2.98058 73.3504C2.98058 95.5848 8.26311 113.005 19.1189 125.313L19.1223 125.317C30.0164 137.604 45.5629 143.629 65.4428 143.629C78.852 143.629 90.916 141.63 101.604 137.591L102.91 137.098V135.702V117.069Z" fill="#333333" stroke="#333333" stroke-width="4.03883"/>
<path d="M367.171 144.457H369.191V142.438V76.9051C369.191 64.3322 366.102 54.53 359.568 47.8814C353.028 41.2263 343.375 38.0747 330.996 38.0747C323.945 38.0747 317.468 39.4299 311.6 42.1729C306.746 44.4416 302.762 47.5166 299.689 51.4033L297.427 41.4638L297.069 39.8925H295.458H278.734H276.714V41.9119V142.438V144.457H278.734H300.093H302.113V142.438V92.3566C302.113 79.9299 304.205 71.5709 307.954 66.7897C311.633 62.0971 317.549 59.5646 326.179 59.5646C332.602 59.5646 336.85 61.3608 339.425 64.542L339.431 64.5495L339.437 64.5569C342.161 67.8571 343.701 73.0934 343.701 80.6316V142.438V144.457H345.721H367.171Z" fill="#333333" stroke="#333333" stroke-width="4.03883"/>
<path d="M401.978 132.021L401.987 132.03C411.299 141.597 424.111 146.275 440.154 146.275C447.099 146.275 453.32 145.753 458.807 144.693C464.317 143.629 469.752 141.815 475.108 139.262L476.258 138.713V137.439V120.079V116.974L473.42 118.232C467.643 120.794 462.259 122.624 457.265 123.741C452.334 124.797 446.967 125.33 441.154 125.33C432.532 125.33 426.12 122.856 421.624 118.144C417.438 113.701 414.954 107.397 414.373 99.0115H479.238H481.257V96.9921V85.4489C481.257 70.9558 477.298 59.3158 469.155 50.788C461.006 42.2545 449.954 38.0747 436.246 38.0747C421.458 38.0747 409.625 42.9559 401.003 52.8559C392.412 62.7194 388.236 76.1512 388.236 92.902C388.236 109.278 392.742 122.403 401.978 132.021ZM450.743 64.0781L450.748 64.0834L450.753 64.0887C453.877 67.5055 455.757 72.5636 456.151 79.5212H414.884C415.838 72.686 418.049 67.6173 421.349 64.1174C425.034 60.2733 429.929 58.2922 436.246 58.2922C442.568 58.2922 447.315 60.2747 450.743 64.0781Z" fill="#333333" stroke="#333333" stroke-width="4.03883"/>
<path d="M538.843 141.337L539.337 142.639H540.731H563.817H565.208L565.704 141.34L604.06 40.814L605.105 38.0747H602.173H579.45H578.017L577.544 39.4271L557.094 97.8703L557.085 97.895L557.077 97.92C555.04 104.263 553.463 109.576 552.363 113.833C551.233 109.167 549.591 103.84 547.452 97.8635C547.451 97.8612 547.45 97.8589 547.449 97.8566L527.003 39.4271L526.53 38.0747H525.097H502.556H499.629L500.668 40.811L538.843 141.337Z" fill="#333333" stroke="#333333" stroke-width="4.03883"/>
<path d="M240.795 88.2012C241.039 86.1653 241.202 84.0479 241.202 81.849C241.202 79.6502 241.039 77.5328 240.713 75.4968L254.476 64.7469C255.698 63.7696 256.024 61.978 255.291 60.5935L242.261 38.035C241.446 36.5691 239.736 36.0805 238.27 36.5691L222.064 43.0842C218.643 40.4782 215.06 38.3607 211.07 36.732L208.626 19.467C208.382 17.8382 206.998 16.698 205.369 16.698H179.308C177.68 16.698 176.377 17.8382 176.132 19.467L173.689 36.732C169.699 38.3607 166.034 40.5596 162.695 43.0842L146.489 36.5691C145.023 35.999 143.313 36.5691 142.498 38.035L129.468 60.5935C128.654 62.0594 128.979 63.7696 130.282 64.7469L144.045 75.4968C143.72 77.5328 143.475 79.7316 143.475 81.849C143.475 83.9664 143.638 86.1653 143.964 88.2012L130.201 98.9512C128.979 99.9284 128.654 101.72 129.387 103.105L142.417 125.663C143.231 127.129 144.941 127.618 146.407 127.129L162.614 120.614C166.034 123.22 169.617 125.337 173.608 126.966L176.051 144.231C176.377 145.86 177.68 147 179.308 147H205.369C206.998 147 208.382 145.86 208.545 144.231L210.988 126.966C214.979 125.337 218.643 123.138 221.982 120.614L238.189 127.129C239.655 127.699 241.365 127.129 242.179 125.663L255.209 103.105C256.024 101.639 255.698 99.9284 254.395 98.9512L240.713 88.8998L240.795 88.2012ZM192.339 106.281C178.901 106.281 167.907 95.2864 167.907 81.849C167.907 68.4116 178.901 57.4174 192.339 57.4174C205.776 57.4174 216.77 68.4116 216.77 81.849C216.77 95.2864 205.776 106.281 192.339 106.281Z" fill="#333333"/>
</svg>
