<svg width="66" height="66" viewBox="0 0 66 66" fill="none" xmlns="http://www.w3.org/2000/svg">
<path d="M40.1315 19.9344H36.6103C35.7277 19.8845 34.8446 20.0245 34.0207 20.3449C33.1967 20.6653 32.4511 21.1588 31.8342 21.792C31.2173 22.4252 30.7433 23.1833 30.4444 24.0153C30.1454 24.8473 30.0284 25.7337 30.1013 26.6147V29.6935H26.5622C26.4156 29.6935 26.2749 29.7518 26.1712 29.8555C26.0675 29.9592 26.0093 30.0998 26.0093 30.2465V34.7059C26.0093 34.8526 26.0675 34.9933 26.1712 35.097C26.2749 35.2007 26.4156 35.2589 26.5622 35.2589H30.1013V46.5182C30.1013 46.5908 30.1156 46.6627 30.1434 46.7298C30.1712 46.7969 30.2119 46.8578 30.2632 46.9092C30.3146 46.9605 30.3755 47.0013 30.4426 47.029C30.5097 47.0568 30.5816 47.0711 30.6543 47.0711H35.2725C35.3451 47.0711 35.417 47.0568 35.4841 47.029C35.5512 47.0013 35.6121 46.9605 35.6635 46.9092C35.7148 46.8578 35.7556 46.7969 35.7833 46.7298C35.8111 46.6627 35.8254 46.5908 35.8254 46.5182V35.2625H39.9638C40.1105 35.2625 40.2511 35.2042 40.3548 35.1005C40.4585 34.9968 40.5168 34.8562 40.5168 34.7095V30.2501C40.5168 30.1034 40.4585 29.9627 40.3548 29.859C40.2511 29.7553 40.1105 29.6971 39.9638 29.6971H35.8254V27.0838C35.8254 25.8352 36.1251 25.1912 37.7591 25.1912H40.1297C40.2764 25.1912 40.417 25.133 40.5207 25.0293C40.6244 24.9256 40.6827 24.7849 40.6827 24.6383V20.4928C40.6834 20.4198 40.6697 20.3475 40.6423 20.2799C40.6149 20.2123 40.5745 20.1508 40.5233 20.0989C40.472 20.047 40.411 20.0058 40.3438 19.9775C40.2766 19.9493 40.2044 19.9347 40.1315 19.9344Z" fill="#333333"/>
</svg>
