<svg width="67" height="66" viewBox="0 0 67 66" fill="none" xmlns="http://www.w3.org/2000/svg">
<path d="M26.1218 45.0403C26.1218 45.2896 26.0228 45.5287 25.8465 45.705C25.6702 45.8813 25.4311 45.9804 25.1818 45.9804H21.1754C20.9261 45.9804 20.687 45.8813 20.5107 45.705C20.3344 45.5287 20.2353 45.2896 20.2353 45.0403V28.2514C20.2353 28.002 20.3344 27.7629 20.5107 27.5866C20.687 27.4103 20.9261 27.3113 21.1754 27.3113H25.18C25.4293 27.3113 25.6684 27.4103 25.8447 27.5866C26.021 27.7629 26.1201 28.002 26.1201 28.2514L26.1218 45.0403ZM23.1786 25.7273C22.4261 25.7273 21.6905 25.5042 21.0648 25.0861C20.4391 24.668 19.9514 24.0738 19.6634 23.3785C19.3754 22.6833 19.3001 21.9183 19.4469 21.1802C19.5937 20.4421 19.9561 19.7642 20.4882 19.2321C21.0203 18.7 21.6982 18.3376 22.4363 18.1908C23.1744 18.044 23.9394 18.1193 24.6346 18.4073C25.3299 18.6953 25.9241 19.183 26.3422 19.8086C26.7603 20.4343 26.9834 21.17 26.9834 21.9225C26.9834 22.9316 26.5825 23.8994 25.869 24.6129C25.1555 25.3264 24.1877 25.7273 23.1786 25.7273ZM47.051 45.1152C47.051 45.3447 46.9598 45.5647 46.7976 45.727C46.6353 45.8892 46.4153 45.9804 46.1858 45.9804H41.8887C41.6593 45.9804 41.4392 45.8892 41.277 45.727C41.1147 45.5647 41.0236 45.3447 41.0236 45.1152V37.2363C41.0236 36.0608 41.3678 32.0883 37.9537 32.0883C35.3048 32.0883 34.7678 34.8085 34.6608 36.0287V45.1117C34.6608 45.3411 34.5697 45.5612 34.4074 45.7234C34.2452 45.8857 34.0251 45.9768 33.7957 45.9768H29.6377C29.4082 45.9768 29.1882 45.8857 29.0259 45.7234C28.8637 45.5612 28.7725 45.3411 28.7725 45.1117V28.1747C28.7725 27.9452 28.8637 27.7252 29.0259 27.5629C29.1882 27.4007 29.4082 27.3095 29.6377 27.3095H33.801C34.0305 27.3095 34.2505 27.4007 34.4128 27.5629C34.575 27.7252 34.6662 27.9452 34.6662 28.1747V29.6391C35.263 28.7371 36.0962 28.0164 37.0749 27.5558C38.0536 27.0952 39.14 26.9125 40.2155 27.0277C47.0973 27.0277 47.0581 33.4493 47.0581 36.9901V45.1152H47.051Z" fill="#333333"/>
</svg>
