<svg width="500" height="500" viewBox="0 0 500 500" fill="none" xmlns="http://www.w3.org/2000/svg">
<path d="M52.6699 119.06L219.3 119.06V111.75L52.6699 111.75V119.06Z" fill="#EBEBEB"/>
<path d="M209.96 119.06H202.65V143.23H209.96V119.06Z" fill="#EBEBEB"/>
<path d="M209.96 119.06H202.65V126.53H209.96V119.06Z" fill="#DBDBDB"/>
<path d="M69.32 119.06H62.01V143.23H69.32V119.06Z" fill="#EBEBEB"/>
<path d="M69.32 119.06H62.01V126.53H69.32V119.06Z" fill="#DBDBDB"/>
<path d="M188.2 111.75V65.1801H176.47V111.75H188.2Z" fill="#C7C7C7"/>
<path d="M188.2 67.8201V62.7001H176.47V67.8201H188.2Z" fill="#DBDBDB"/>
<path d="M188.2 76.2701V74.3701H176.47V76.2701H188.2Z" fill="#DBDBDB"/>
<path d="M188.2 105.65V100.53H175.01V105.65H188.2Z" fill="#DBDBDB"/>
<path d="M176.47 111.76V57.4301H168.27V111.76H176.47Z" fill="#DBDBDB"/>
<path d="M174.87 83.42V62.53H169.95V83.42H174.87Z" fill="#EBEBEB"/>
<path d="M115.719 111.774L154.356 73.5787L148.592 67.7472L109.954 105.942L115.719 111.774Z" fill="#C7C7C7"/>
<path d="M123.633 101.627L138.489 86.9406L135.03 83.4416L120.174 98.1277L123.633 101.627Z" fill="#DBDBDB"/>
<path d="M168.28 111.76V70.5H154.36V111.76H168.28Z" fill="#A6A6A6"/>
<path d="M168.28 107.39V103.54H154.36V107.39H168.28Z" fill="#C7C7C7"/>
<path d="M168.28 101.02V99.53H154.36V101.02H168.28Z" fill="#C7C7C7"/>
<path d="M197.81 111.77V72.99H188.2V111.77H197.81Z" fill="#A6A6A6"/>
<path d="M197.81 107.65V104.04H188.2V107.65H197.81Z" fill="#C7C7C7"/>
<path d="M197.81 84.5901V80.9801H188.2V84.5901H197.81Z" fill="#C7C7C7"/>
<path d="M197.81 88.4701V87.0701H188.2V88.4701H197.81Z" fill="#C7C7C7"/>
<path d="M418.57 310.91H242.3V58.4301H418.57V310.91ZM247.44 305.76H413.44V63.5801H247.44V305.76Z" fill="#EBEBEB"/>
<path d="M331 64.92H325.86V308.33H331V64.92Z" fill="#EBEBEB"/>
<path d="M423.23 68.8301H237.63V75.9901H423.23V68.8301Z" fill="#EBEBEB"/>
<path d="M423.23 76.89H237.63V84.05H423.23V76.89Z" fill="#EBEBEB"/>
<path d="M423.23 84.9501H237.63V92.1101H423.23V84.9501Z" fill="#EBEBEB"/>
<path d="M423.23 93.01H237.63V100.17H423.23V93.01Z" fill="#EBEBEB"/>
<path d="M423.23 101.07H237.63V108.23H423.23V101.07Z" fill="#EBEBEB"/>
<path d="M423.23 109.13H237.63V116.29H423.23V109.13Z" fill="#EBEBEB"/>
<path d="M423.23 117.19H237.63V124.35H423.23V117.19Z" fill="#EBEBEB"/>
<path d="M423.23 125.25H237.63V132.41H423.23V125.25Z" fill="#EBEBEB"/>
<path d="M423.23 133.31H237.63V140.47H423.23V133.31Z" fill="#EBEBEB"/>
<path d="M407.96 67.38H406.67V206.78H407.96V67.38Z" fill="#333333"/>
<path d="M409.6 212.77H405.03L406.18 206.21H408.45L409.6 212.77Z" fill="#333333"/>
<path d="M412.59 67.38H411.3V280.53H412.59V67.38Z" fill="#333333"/>
<path d="M414.23 285.35H409.66L410.81 278.79H413.08L414.23 285.35Z" fill="#333333"/>
<path d="M431.22 57.4301H229.65V72.4201H431.22V57.4301Z" fill="#DBDBDB"/>
<path d="M72.59 291.36H46.11V302.55H72.59V291.36Z" fill="#EBEBEB"/>
<path d="M57.82 305.47H31.34V316.66H57.82V305.47Z" fill="#EBEBEB"/>
<path d="M174.42 207.33H147.94V218.52H174.42V207.33Z" fill="#EBEBEB"/>
<path d="M159.65 221.44H133.17V232.63H159.65V221.44Z" fill="#EBEBEB"/>
<path d="M144.94 207.33H118.46V218.52H144.94V207.33Z" fill="#EBEBEB"/>
<path d="M468.66 305.47H442.18V316.66H468.66V305.47Z" fill="#EBEBEB"/>
<path d="M453.89 87.01H427.41V98.2H453.89V87.01Z" fill="#EBEBEB"/>
<path d="M468.66 101.12H442.18V112.31H468.66V101.12Z" fill="#EBEBEB"/>
<path d="M72.59 87.01H46.11V98.2H72.59V87.01Z" fill="#EBEBEB"/>
<path d="M250 451.13C357.806 451.13 445.2 435.438 445.2 416.08C445.2 396.722 357.806 381.03 250 381.03C142.194 381.03 54.8 396.722 54.8 416.08C54.8 435.438 142.194 451.13 250 451.13Z" fill="#EBEBEB"/>
<path d="M104.5 395.31C127.663 395.31 146.44 391.603 146.44 387.03C146.44 382.457 127.663 378.75 104.5 378.75C81.3372 378.75 62.5601 382.457 62.5601 387.03C62.5601 391.603 81.3372 395.31 104.5 395.31Z" fill="#EBEBEB"/>
<path d="M389.77 259.7C405.16 274.76 407.77 298.07 404.5 318.49C404.41 318.95 403.7 318.82 403.7 318.39C403.7 313.74 403.84 309.14 403.82 304.54C403.74 304.33 403.67 304.14 403.58 303.93C399.58 301.01 395.87 297.71 393.58 293.18C391.01 288.13 390 282.43 388.03 277.18C387.85 276.67 388.39 276.82 388.74 277.08C398.1 283.99 401.08 291.42 403.74 301.34C403.682 296.15 403.137 290.977 402.11 285.89C400.11 276.46 396.11 267.13 389.32 260.13C389.292 260.1 389.27 260.066 389.255 260.027C389.24 259.989 389.233 259.949 389.234 259.908C389.236 259.825 389.27 259.747 389.33 259.69C389.39 259.633 389.469 259.602 389.552 259.604C389.635 259.606 389.713 259.64 389.77 259.7Z" fill="#333333"/>
<path d="M386.87 261.45C384.23 261.54 382.57 265.77 380.5 267.01C380.283 267.184 380.032 267.311 379.763 267.382C379.494 267.454 379.213 267.468 378.938 267.425C378.664 267.381 378.401 267.281 378.167 267.131C377.933 266.98 377.733 266.782 377.58 266.55C375.58 263.7 378.34 260.18 380.98 258.21C379.09 258.98 377.53 260.35 375.5 260.73C375.24 260.816 374.964 260.845 374.692 260.815C374.42 260.785 374.157 260.697 373.922 260.557C373.687 260.416 373.484 260.227 373.329 260.002C373.173 259.776 373.068 259.52 373.02 259.25C372.12 255.36 377.02 253.63 380.35 253.55C378.73 252.42 374.08 249.35 376.55 247.84C379.02 246.33 384.55 250.71 386.29 252.16C388.91 254.28 392.03 257.45 392.15 260.78C392.3 264.65 388.91 262.27 386.87 261.45Z" fill="#06729D"/>
<path opacity="0.1" d="M386.87 261.45C384.23 261.54 382.57 265.77 380.5 267.01C380.283 267.184 380.032 267.311 379.763 267.382C379.494 267.454 379.213 267.468 378.938 267.425C378.664 267.381 378.401 267.281 378.167 267.131C377.933 266.98 377.733 266.782 377.58 266.55C375.58 263.7 378.34 260.18 380.98 258.21C379.09 258.98 377.53 260.35 375.5 260.73C375.24 260.816 374.964 260.845 374.692 260.815C374.42 260.785 374.157 260.697 373.922 260.557C373.687 260.416 373.484 260.227 373.329 260.002C373.173 259.776 373.068 259.52 373.02 259.25C372.12 255.36 377.02 253.63 380.35 253.55C378.73 252.42 374.08 249.35 376.55 247.84C379.02 246.33 384.55 250.71 386.29 252.16C388.91 254.28 392.03 257.45 392.15 260.78C392.3 264.65 388.91 262.27 386.87 261.45Z" fill="#333333"/>
<path d="M387.64 262.11C384.26 260.57 377.75 262.78 377.2 261.5C376.08 258.89 381.28 257.1 384.08 256.76C381.5 256.06 376.55 254.94 376.7 252.45C376.89 249.45 384.29 252.03 388.04 254.9C392.76 258.52 392.73 262.01 391.95 262.71C390.88 263.67 388.2 262.36 387.64 262.11Z" fill="#06729D"/>
<path d="M424.81 258.21C408.86 272.68 405.4 295.87 407.86 316.39C407.93 316.86 408.65 316.76 408.66 316.32C408.84 311.68 408.88 307.07 409.06 302.49C409.16 302.28 409.23 302.08 409.33 301.88C413.45 299.11 417.27 295.95 419.72 291.52C422.48 286.57 423.72 280.91 425.88 275.71C426.08 275.21 425.53 275.34 425.17 275.59C415.55 282.13 412.29 289.44 409.23 299.26C409.483 294.072 410.223 288.92 411.44 283.87C413.82 274.54 418.18 265.36 425.21 258.63C425.266 258.577 425.298 258.504 425.3 258.427C425.302 258.35 425.273 258.276 425.22 258.22C425.167 258.164 425.094 258.132 425.017 258.13C424.94 258.128 424.866 258.157 424.81 258.21Z" fill="#333333"/>
<path d="M427.64 260.07C430.28 260.26 431.78 264.55 433.79 265.86C434 266.043 434.246 266.181 434.512 266.264C434.778 266.346 435.058 266.372 435.335 266.34C435.612 266.308 435.879 266.219 436.119 266.078C436.359 265.936 436.567 265.746 436.73 265.52C438.88 262.74 436.21 259.12 433.65 257.05C435.51 257.9 437.02 259.32 439.03 259.78C439.287 259.875 439.562 259.914 439.836 259.894C440.109 259.873 440.376 259.795 440.616 259.663C440.857 259.531 441.067 259.35 441.231 259.13C441.396 258.91 441.511 258.658 441.57 258.39C442.57 254.54 437.8 252.63 434.46 252.39C436.12 251.32 440.89 248.39 438.46 246.83C436.03 245.27 430.39 249.4 428.55 250.77C425.86 252.77 422.62 255.85 422.37 259.16C422.09 263.06 425.57 260.81 427.64 260.07Z" fill="#06729D"/>
<path opacity="0.1" d="M427.64 260.07C430.28 260.26 431.78 264.55 433.79 265.86C434 266.043 434.246 266.181 434.512 266.264C434.778 266.346 435.058 266.372 435.335 266.34C435.612 266.308 435.879 266.219 436.119 266.078C436.359 265.936 436.567 265.746 436.73 265.52C438.88 262.74 436.21 259.12 433.65 257.05C435.51 257.9 437.02 259.32 439.03 259.78C439.287 259.875 439.562 259.914 439.836 259.894C440.109 259.873 440.376 259.795 440.616 259.663C440.857 259.531 441.067 259.35 441.231 259.13C441.396 258.91 441.511 258.658 441.57 258.39C442.57 254.54 437.8 252.63 434.46 252.39C436.12 251.32 440.89 248.39 438.46 246.83C436.03 245.27 430.39 249.4 428.55 250.77C425.86 252.77 422.62 255.85 422.37 259.16C422.09 263.06 425.57 260.81 427.64 260.07Z" fill="#333333"/>
<path d="M426.85 260.69C430.29 259.28 436.7 261.75 437.3 260.49C438.52 257.92 433.4 255.94 430.61 255.49C433.22 254.88 438.2 253.96 438.15 251.49C438.08 248.49 430.58 250.78 426.72 253.49C421.87 256.93 421.72 260.42 422.52 261.15C423.55 262.14 426.28 260.93 426.85 260.69Z" fill="#06729D"/>
<path d="M408.5 296.42C407.419 304.159 405.764 311.806 403.55 319.3C403.507 319.434 403.416 319.547 403.294 319.618C403.173 319.689 403.029 319.713 402.892 319.684C402.754 319.655 402.631 319.577 402.548 319.464C402.465 319.35 402.426 319.21 402.44 319.07C403.44 312.02 405.39 305.07 406.44 298.07C407.584 290.937 407.996 283.706 407.67 276.49C407 264.59 403.77 252 396 242.66C395.82 242.44 396.19 242.13 396.36 242.33C411.88 260.43 409.41 282.62 409.36 284.6C411.56 277.11 413.82 268.52 422.13 260.9C422.49 260.57 422.77 260.72 422.71 261.28C421.23 275.18 417.36 282.43 409.31 289.86C409.103 292.067 408.833 294.253 408.5 296.42Z" fill="#333333"/>
<path d="M395.87 244.74C393.08 243.5 389.23 247.05 386.47 247.3C386.153 247.374 385.824 247.38 385.504 247.317C385.185 247.254 384.882 247.123 384.617 246.934C384.352 246.744 384.131 246.501 383.967 246.219C383.804 245.937 383.703 245.624 383.67 245.3C382.98 241.3 387.67 239.07 391.39 238.35C389.05 238.21 386.74 238.84 384.39 238.21C384.078 238.168 383.778 238.059 383.512 237.89C383.246 237.722 383.018 237.499 382.846 237.235C382.673 236.972 382.559 236.674 382.512 236.363C382.464 236.051 382.484 235.733 382.57 235.43C383.57 230.94 389.57 231.6 393.05 233.2C391.93 231.2 388.65 225.69 391.97 225.37C395.29 225.05 398.79 232.37 399.91 234.75C401.56 238.27 403.2 243.13 401.65 246.64C399.89 250.79 397.58 246.61 395.87 244.74Z" fill="#06729D"/>
<path opacity="0.1" d="M395.87 244.74C393.08 243.5 389.23 247.05 386.47 247.3C386.153 247.374 385.824 247.38 385.504 247.317C385.185 247.254 384.882 247.123 384.617 246.934C384.352 246.744 384.131 246.501 383.967 246.219C383.804 245.937 383.703 245.624 383.67 245.3C382.98 241.3 387.67 239.07 391.39 238.35C389.05 238.21 386.74 238.84 384.39 238.21C384.078 238.168 383.778 238.059 383.512 237.89C383.246 237.722 383.018 237.499 382.846 237.235C382.673 236.972 382.559 236.674 382.512 236.363C382.464 236.051 382.484 235.733 382.57 235.43C383.57 230.94 389.57 231.6 393.05 233.2C391.93 231.2 388.65 225.69 391.97 225.37C395.29 225.05 398.79 232.37 399.91 234.75C401.56 238.27 403.2 243.13 401.65 246.64C399.89 250.79 397.58 246.61 395.87 244.74Z" fill="#333333"/>
<path d="M396.34 245.8C393.6 242.5 385.74 241.53 385.81 239.92C385.96 236.65 392.25 237.41 395.34 238.46C393.01 236.46 388.44 232.79 389.85 230.28C391.57 227.22 397.94 233.66 400.38 238.53C403.46 244.66 401.67 248.27 400.51 248.6C398.91 249.06 396.79 246.35 396.34 245.8Z" fill="#06729D"/>
<path d="M418.71 300.6L425.56 352.91H383.9C384.76 348.27 392.52 300.54 392.52 300.54L418.71 300.6Z" fill="#06729D"/>
<path d="M47.4399 352.76L98.0799 352.51L148.72 352.43L250 352.26L351.28 352.42L401.92 352.51L452.56 352.76L401.92 353L351.28 353.09L250 353.26L148.72 353.09L98.0799 353L47.4399 352.76Z" fill="#333333"/>
<path d="M346.31 408.18L376.48 390.36L414.81 403.19L383.33 422.32L346.31 408.18Z" fill="white"/>
<path d="M382.14 417.36C383.99 415.99 385.9 414.72 387.82 413.45C389.74 412.18 391.7 410.98 393.65 409.78C395.6 408.58 397.59 407.41 399.65 406.3L402.65 404.63C403.65 404.1 404.65 403.55 405.73 403.05C404.8 403.74 403.85 404.38 402.91 405.05L400 407C398.08 408.27 396.13 409.48 394.17 410.68C392.21 411.88 390.23 413.04 388.22 414.16C386.21 415.28 384.21 416.34 382.14 417.36Z" fill="#DBDBDB"/>
<path d="M387.12 410.12C389.26 408.404 391.515 406.837 393.87 405.43C396.202 403.987 398.631 402.707 401.14 401.6C396.838 405.001 392.137 407.862 387.14 410.12H387.12Z" fill="#DBDBDB"/>
<path d="M373.05 414.46C374.9 413.09 376.81 411.82 378.74 410.56C380.67 409.3 382.61 408.08 384.56 406.88C386.51 405.68 388.5 404.52 390.51 403.4L393.51 401.73C394.51 401.21 395.51 400.65 396.58 400.15C395.65 400.84 394.7 401.48 393.76 402.15L390.89 404.06C388.97 405.33 387.02 406.53 385.06 407.73C383.1 408.93 381.12 410.1 379.11 411.21C377.1 412.32 375.12 413.45 373.05 414.46Z" fill="#DBDBDB"/>
<path d="M371.89 411C375.04 408.62 378.36 406.5 381.71 404.44C385.06 402.38 388.48 400.44 392.05 398.74C388.9 401.12 385.58 403.24 382.23 405.3C378.88 407.36 375.45 409.25 371.89 411Z" fill="#DBDBDB"/>
<path d="M375.83 404.35C377.574 402.862 379.441 401.524 381.41 400.35C383.351 399.138 385.392 398.095 387.51 397.23C385.766 398.718 383.899 400.056 381.93 401.23C379.987 402.437 377.946 403.481 375.83 404.35Z" fill="#DBDBDB"/>
<path d="M282.61 421.3L330.27 402.68L376.26 430.41L328.84 449.69L282.61 421.3Z" fill="white"/>
<path d="M328.17 444C331.27 442.52 334.42 441.14 337.57 439.77C340.72 438.4 343.9 437.08 347.07 435.77C350.24 434.46 353.45 433.2 356.66 431.99L361.49 430.18C363.11 429.61 364.72 429.01 366.36 428.47C364.81 429.22 363.24 429.91 361.68 430.64L357 432.76C353.86 434.13 350.68 435.44 347.5 436.76C344.32 438.08 341.13 439.33 337.91 440.54C334.69 441.75 331.43 442.94 328.17 444Z" fill="#DBDBDB"/>
<path d="M340.38 434.17C343.78 432.37 347.29 430.84 350.83 429.38C354.37 427.92 357.96 426.6 361.66 425.52C358.26 427.33 354.75 428.85 351.21 430.31C347.67 431.77 344.08 433.09 340.38 434.17Z" fill="#DBDBDB"/>
<path d="M323.47 436.14C326.18 434.82 328.94 433.59 331.7 432.38C334.46 431.17 337.24 430.02 340.03 428.87C342.82 427.72 345.62 426.62 348.44 425.57L352.68 424C354.11 423.51 355.52 423 356.96 422.53C355.61 423.2 354.23 423.81 352.87 424.45L348.73 426.29C345.98 427.5 343.19 428.65 340.4 429.8C337.61 430.95 334.81 432.04 331.99 433.09C329.17 434.14 326.34 435.2 323.47 436.14Z" fill="#DBDBDB"/>
<path d="M321.25 432.14C323.76 430.89 326.31 429.75 328.86 428.63C331.41 427.51 333.99 426.43 336.57 425.37C339.15 424.31 341.75 423.29 344.37 422.32L348.29 420.88C349.62 420.43 350.93 419.95 352.29 419.53C351.04 420.16 349.77 420.73 348.51 421.33L344.65 423C342.1 424.13 339.53 425.19 336.95 426.26C334.37 427.33 331.77 428.33 329.15 429.26C326.53 430.19 323.91 431.28 321.25 432.14Z" fill="#DBDBDB"/>
<path d="M309.38 432.06C312.48 430.57 315.63 429.19 318.78 427.82C321.93 426.45 325.1 425.14 328.28 423.82C331.46 422.5 334.66 421.26 337.87 420.05L342.7 418.24C344.32 417.67 345.93 417.06 347.56 416.52C346.02 417.27 344.44 417.97 342.88 418.69L338.16 420.76C335.01 422.14 331.84 423.44 328.66 424.76C325.48 426.08 322.28 427.32 319.07 428.53C315.86 429.74 312.64 431 309.38 432.06Z" fill="#DBDBDB"/>
<path d="M309 427.31C311.75 425.97 314.54 424.74 317.33 423.51C320.12 422.28 322.94 421.12 325.76 419.96C328.58 418.8 331.41 417.69 334.27 416.62L338.56 415.03C340 414.53 341.43 414.03 342.89 413.54C341.52 414.21 340.12 414.83 338.74 415.49L334.56 417.34C331.77 418.57 328.95 419.73 326.13 420.89C323.31 422.05 320.48 423.16 317.62 424.22C314.76 425.28 311.88 426.35 309 427.31Z" fill="#DBDBDB"/>
<path d="M300 426.07C303.11 424.58 306.25 423.2 309.4 421.83C312.55 420.46 315.73 419.14 318.91 417.83C322.09 416.52 325.28 415.26 328.5 414.05L333.32 412.24C334.95 411.67 336.55 411.07 338.19 410.53C336.64 411.28 335.07 411.97 333.51 412.7L328.79 414.77C325.64 416.15 322.46 417.45 319.28 418.77C316.1 420.09 312.91 421.33 309.69 422.54C306.47 423.75 303.24 425 300 426.07Z" fill="#DBDBDB"/>
<path d="M310.9 416.72C314.51 414.83 318.24 413.21 322 411.67C325.76 410.13 329.56 408.67 333.47 407.54C329.86 409.44 326.13 411.05 322.37 412.54C318.61 414.03 314.81 415.55 310.9 416.72Z" fill="#DBDBDB"/>
<path d="M181.38 395.32L318.18 359.3L381.83 393.41L248.01 438L181.38 395.32Z" fill="#06729D"/>
<path d="M189.86 394.7L250.86 433.92L376.27 392.23L314.74 359.55C314.74 359.55 277.21 364.49 275.46 365.03C273.71 365.57 257.16 372.45 257.16 372.45C257.16 372.45 233.94 376.45 232.37 377.01C230.8 377.57 189.86 394.7 189.86 394.7Z" fill="white"/>
<path d="M257.17 372.45L264.62 377.27L272.02 382.17L286.76 392.06L301.41 402.09L308.69 407.16L315.94 412.29L308.49 407.46L301.08 402.57L286.34 392.68L271.7 382.64L264.42 377.58L257.17 372.45Z" fill="#DBDBDB"/>
<path d="M268.82 401C270.4 400.49 272.01 400.05 273.62 399.62C275.23 399.19 276.85 398.81 278.47 398.43C280.09 398.05 281.73 397.71 283.37 397.43C285.01 397.15 286.65 396.83 288.31 396.61C286.72 397.13 285.11 397.61 283.5 397.99C281.89 398.37 280.28 398.8 278.66 399.18C277.04 399.56 275.41 399.9 273.77 400.18C272.13 400.46 270.49 400.8 268.82 401Z" fill="#DBDBDB"/>
<path d="M240.84 417.35C244.97 415.35 249.14 413.49 253.31 411.62C257.48 409.75 261.68 407.92 265.88 406.1C267.98 405.18 270.09 404.31 272.23 403.46C272.775 403.248 273.337 403.081 273.91 402.96L275.59 402.57L278.94 401.83C283.42 400.89 287.94 399.97 292.4 399.15C287.97 400.3 283.52 401.36 279.07 402.43L275.74 403.22C274.634 403.447 273.545 403.747 272.48 404.12C270.37 404.96 268.28 405.9 266.17 406.77L253.53 412.12C249.31 413.89 245.09 415.65 240.84 417.35Z" fill="#DBDBDB"/>
<path d="M245.11 420.16C249.11 418.16 253.11 416.33 257.19 414.47C261.27 412.61 265.3 410.81 269.36 409C271.36 408.09 273.44 407.22 275.5 406.37C276.02 406.16 276.5 405.94 277.08 405.75C277.66 405.56 278.18 405.47 278.72 405.33L281.98 404.6C286.33 403.68 290.69 402.79 295.07 402C290.77 403.13 286.44 404.16 282.12 405.22L278.88 405.99C278.34 406.13 277.79 406.25 277.29 406.42C276.79 406.59 276.29 406.81 275.77 407.02L269.65 409.66C265.56 411.41 261.51 413.24 257.41 414.97C253.31 416.7 249.23 418.46 245.11 420.16Z" fill="#DBDBDB"/>
<path d="M249.35 422.48C253.43 420.687 257.533 418.95 261.66 417.27C265.77 415.54 269.92 413.92 274.06 412.27C276.14 411.45 278.18 410.62 280.35 409.91L286.78 408.1C291.08 406.95 295.39 405.78 299.72 404.72C295.48 406.12 291.22 407.41 286.96 408.72L280.54 410.6C278.48 411.3 276.4 412.18 274.32 412.96C270.16 414.55 266.03 416.22 261.86 417.79C257.69 419.36 253.54 421 249.35 422.48Z" fill="#DBDBDB"/>
<path d="M310.79 402.17C314.58 400.32 318.43 398.61 322.33 397.01C323.33 396.61 324.28 396.2 325.27 395.84C325.77 395.66 326.27 395.47 326.8 395.32L328.33 394.91L334.44 393.29C338.5 392.19 342.59 391.17 346.67 390.11C350.75 389.05 354.83 388.03 358.93 387.03C354.88 388.22 350.84 389.39 346.78 390.53C342.72 391.67 338.67 392.83 334.61 393.92L328.51 395.59L327 396C326.53 396.14 326 396.33 325.54 396.52L322.6 397.65C318.68 399.21 314.76 400.75 310.79 402.17Z" fill="#DBDBDB"/>
<path d="M306.66 398.94C310.427 397.36 314.23 395.887 318.07 394.52C320 393.84 321.9 393.12 323.91 392.59L329.81 390.98C333.73 389.89 337.68 388.87 341.62 387.82C345.56 386.77 349.51 385.76 353.47 384.77C349.56 385.95 345.66 387.12 341.74 388.25C337.82 389.38 333.91 390.53 329.98 391.62L324.09 393.28C323.09 393.53 322.17 393.88 321.2 394.2L318.3 395.2C314.45 396.5 310.57 397.77 306.66 398.94Z" fill="#DBDBDB"/>
<path d="M302.68 396.07C306.433 394.523 310.217 393.07 314.03 391.71C315.94 391.04 317.83 390.33 319.8 389.71L325.71 388.27C329.64 387.27 333.58 386.4 337.53 385.47C341.48 384.54 345.42 383.66 349.38 382.79C345.47 383.86 341.56 384.91 337.64 385.91C333.72 386.91 329.8 387.91 325.87 388.91C323.92 389.4 321.93 389.91 320 390.39L314.25 392.3C310.423 393.653 306.567 394.91 302.68 396.07Z" fill="#DBDBDB"/>
<path d="M299.28 394C302.88 392.06 306.57 390.36 310.34 388.77C310.81 388.57 311.28 388.39 311.77 388.22C312.265 388.042 312.773 387.901 313.29 387.8L316.29 387.15L322.29 385.87C330.29 384.22 338.24 382.59 346.24 381.07C338.32 382.95 330.37 384.73 322.43 386.5L316.43 387.82L313.43 388.49C312.46 388.743 311.514 389.078 310.6 389.49C306.85 390.91 303.11 392.54 299.28 394Z" fill="#DBDBDB"/>
<path d="M295.55 391.35C299.15 389.42 302.84 387.71 306.61 386.13C307.08 385.93 307.55 385.75 308.05 385.58C308.542 385.401 309.047 385.26 309.56 385.16L312.56 384.51L318.56 383.23C326.56 381.57 334.51 379.95 342.51 378.43C334.59 380.31 326.64 382.09 318.7 383.86L312.7 385.18L309.7 385.85C308.727 386.094 307.78 386.429 306.87 386.85C303.12 388.32 299.38 390 295.55 391.35Z" fill="#DBDBDB"/>
<path d="M291.82 388.76C295.42 386.83 299.11 385.12 302.88 383.54C303.35 383.34 303.83 383.15 304.32 382.98C304.812 382.805 305.317 382.668 305.83 382.57L308.83 381.91L314.83 380.64C322.83 378.98 330.83 377.36 338.83 375.84C330.91 377.71 322.96 379.49 315.02 381.27L309.02 382.58L306.02 383.26C305.047 383.504 304.1 383.839 303.19 384.26C299.39 385.72 295.66 387.36 291.82 388.76Z" fill="#DBDBDB"/>
<path d="M288.09 386.17C291.69 384.23 295.38 382.53 299.15 380.94C299.62 380.74 300.15 380.56 300.59 380.39C301.082 380.212 301.587 380.071 302.1 379.97L305.1 379.32L311.1 378.05C319.1 376.39 327.05 374.76 335.05 373.25C327.13 375.12 319.19 376.9 311.24 378.68L305.24 379.99L302.24 380.66C301.269 380.909 300.322 381.243 299.41 381.66C295.66 383.13 291.93 384.77 288.09 386.17Z" fill="#DBDBDB"/>
<path d="M283.28 384.08C286.88 382.15 290.57 380.45 294.34 378.86C294.81 378.66 295.34 378.48 295.78 378.31C296.272 378.132 296.777 377.992 297.29 377.89L300.29 377.24L306.29 375.96C314.29 374.3 322.24 372.68 330.24 371.16C322.32 373.04 314.38 374.82 306.43 376.59L300.43 377.91L297.43 378.58C296.46 378.833 295.514 379.168 294.6 379.58C290.85 381.05 287.12 382.68 283.28 384.08Z" fill="#DBDBDB"/>
<path d="M278.61 382C282.2 380.07 285.9 378.37 289.66 376.78C290.13 376.58 290.61 376.4 291.1 376.23C291.592 376.053 292.097 375.913 292.61 375.81L295.61 375.16L301.61 373.88C309.61 372.22 317.55 370.6 325.55 369.08C317.63 370.96 309.69 372.74 301.74 374.51L295.74 375.83L292.74 376.5C291.766 376.752 290.816 377.086 289.9 377.5C286.17 379 282.44 380.62 278.61 382Z" fill="#DBDBDB"/>
<path d="M274.88 379.43C278.46 377.5 282.15 375.8 285.88 374.21C286.35 374.01 286.82 373.83 287.31 373.66C287.804 373.481 288.313 373.343 288.83 373.25L291.83 372.64L297.83 371.47C305.83 369.96 313.83 368.47 321.83 367.12C313.88 368.84 305.92 370.47 297.96 372.12L291.96 373.34L288.96 373.96C287.99 374.203 287.046 374.537 286.14 374.96C282.42 376.4 278.7 378 274.88 379.43Z" fill="#DBDBDB"/>
<path d="M271.15 376.84C274.73 374.91 278.41 373.21 282.15 371.63C282.62 371.43 283.1 371.24 283.58 371.08C284.073 370.896 284.582 370.758 285.1 370.67L288.1 370.11L294.1 369.06C302.1 367.71 310.1 366.41 318.1 365.22C310.1 366.77 302.15 368.22 294.17 369.7L288.17 370.79L285.17 371.36C284.205 371.585 283.264 371.903 282.36 372.31C278.68 373.81 275 375.44 271.15 376.84Z" fill="#DBDBDB"/>
<path d="M267.42 374.25C270.99 372.32 274.67 370.62 278.42 369.05C278.89 368.85 279.36 368.66 279.85 368.49C280.342 368.305 280.851 368.171 281.37 368.09L284.37 367.62L290.37 366.77C294.37 366.21 298.37 365.71 302.42 365.19C306.47 364.67 310.42 364.19 314.48 363.75C306.48 365.03 298.48 366.21 290.48 367.41L284.48 368.3L281.48 368.79C280.516 369.002 279.577 369.317 278.68 369.73C274.94 371.23 271.23 372.85 267.42 374.25Z" fill="#DBDBDB"/>
<path d="M253.68 426.08C257.85 424.39 262.05 422.76 266.26 421.16C270.47 419.56 274.7 418 278.92 416.43C281.04 415.65 283.14 414.91 285.31 414.19L291.78 412.24C296.1 410.98 300.43 409.72 304.78 408.56C300.53 410.05 296.24 411.44 291.95 412.83L285.51 414.83C283.41 415.53 281.29 416.35 279.17 417.09L266.45 421.64C262.21 423.17 258 424.66 253.68 426.08Z" fill="#DBDBDB"/>
<path d="M313.86 405.34C318.08 403.73 322.33 402.19 326.59 400.67C330.85 399.15 335.12 397.67 339.39 396.21C341.53 395.47 343.65 394.77 345.85 394.09L352.38 392.28C356.74 391.11 361.1 389.93 365.49 388.86C361.2 390.26 356.87 391.56 352.54 392.86L346.03 394.76C343.91 395.42 341.76 396.2 339.62 396.89L326.77 401.18C322.47 402.6 318.18 404 313.86 405.34Z" fill="#DBDBDB"/>
<path d="M189.78 412.62C193.11 412.14 197.4 412.14 197.64 414.05C197.88 415.96 196.37 416.99 196.84 417.94C197.31 418.89 200.02 420.64 201.29 421.94C202.352 423.068 203.115 424.443 203.51 425.94C203.51 426.42 204.31 427.21 203.51 428.17C202.71 429.13 202.27 430.55 201.62 431.27C200.97 431.99 200.69 432.77 201.62 434.04C202.55 435.31 201.77 438.97 200.34 440.24C198.91 441.51 194.78 438.49 193.51 438.81C192.24 439.13 192.08 439.75 190.97 440.55C189.86 441.35 187.15 443.26 184.3 443.26C181.45 443.26 180.01 440.71 178.3 439.6C176.59 438.49 174.97 438.33 173.38 437.7C171.952 437.123 170.693 436.194 169.72 435C169.41 434.36 168.29 434.2 168.72 432.46C169.15 430.72 169.99 430.23 169.99 428.8C169.99 427.37 169.99 427.12 169.99 425.5C169.99 423.88 168.71 421.02 169.82 419.75C170.93 418.48 171.73 416.57 173.48 416.57C175.23 416.57 180.78 417.57 180.78 417.57C181.371 416.929 181.903 416.236 182.37 415.5C182.771 414.834 183.335 414.281 184.009 413.893C184.682 413.505 185.443 413.294 186.22 413.28C187.434 413.249 188.636 413.026 189.78 412.62Z" fill="white"/>
<path d="M170 428.74C172.27 429.79 174.58 430.74 176.91 431.64C179.24 432.54 181.52 433.53 183.85 434.39C186.137 435.281 188.474 436.035 190.85 436.65C191.324 436.77 191.811 436.827 192.3 436.82L193.71 436.12C194.758 435.578 195.762 434.952 196.71 434.25C197.63 433.621 198.415 432.816 199.02 431.88C199.151 431.666 199.265 431.442 199.36 431.21L199.46 430.86L199.51 430.7C199.387 430.306 199.179 429.944 198.9 429.64C197.26 427.868 195.437 426.276 193.46 424.89C191.46 423.42 189.46 422.03 187.31 420.72C186.31 420.04 185.21 419.38 184.13 418.72C183.59 418.413 183.04 418.123 182.48 417.85C182.2 417.71 181.92 417.58 181.64 417.46C181.37 417.39 181 417.16 180.79 417.46C180.98 417.16 181.4 417.34 181.68 417.36C181.96 417.38 182.3 417.51 182.6 417.6C183.2 417.8 183.79 418.03 184.37 418.27C185.53 418.75 186.68 419.27 187.81 419.83C190.05 420.97 192.237 422.217 194.37 423.57C196.591 424.898 198.628 426.512 200.43 428.37C201.015 428.976 201.399 429.748 201.53 430.58C201.55 430.736 201.55 430.894 201.53 431.05L201.45 431.35L201.29 431.9C201.163 432.248 201.002 432.583 200.81 432.9C200.08 434.078 199.121 435.099 197.99 435.9C196.923 436.652 195.8 437.321 194.63 437.9L193.77 438.32L193.35 438.52L193.11 438.63C192.958 438.692 192.801 438.738 192.64 438.77C191.882 438.835 191.119 438.757 190.39 438.54C187.942 437.828 185.554 436.922 183.25 435.83C178.655 433.817 174.224 431.446 170 428.74Z" fill="#C7C7C7"/>
<path d="M179.48 433.05C180.704 431.112 182.082 429.277 183.6 427.56C184.35 426.68 185.16 425.87 185.97 425.05C186.39 424.64 186.83 424.26 187.29 423.88C187.797 423.44 188.358 423.066 188.96 422.77C189.065 422.727 189.171 422.691 189.28 422.66C189.502 422.625 189.728 422.625 189.95 422.66C190.281 422.724 190.585 422.888 190.82 423.13C191.059 423.374 191.276 423.639 191.47 423.92C191.833 424.406 192.167 424.914 192.47 425.44C193.02 426.44 193.56 427.44 194.01 428.54C194.999 430.619 195.728 432.812 196.18 435.07L192.57 429.3C191.96 428.35 191.4 427.38 190.78 426.47C190.48 426.01 190.18 425.54 189.87 425.14C189.738 424.961 189.594 424.79 189.44 424.63C189.44 424.63 189.44 424.63 189.6 424.7C189.677 424.73 189.763 424.73 189.84 424.7H189.76C189.345 424.907 188.955 425.162 188.6 425.46L187.34 426.46L184.79 428.65C183.05 430.19 181.33 431.68 179.48 433.05Z" fill="#C7C7C7"/>
<path d="M128.19 428.44C126.39 428.87 124.04 429.09 123.81 428.06C123.58 427.03 124.35 426.38 124.04 425.89C123.21 425.175 122.328 424.523 121.4 423.94C120.762 423.383 120.273 422.675 119.98 421.88C119.98 421.62 119.48 421.22 119.87 420.66C120.26 420.1 120.42 419.29 120.74 418.86C120.842 418.756 120.92 418.632 120.969 418.495C121.017 418.358 121.036 418.212 121.022 418.068C121.009 417.923 120.964 417.783 120.891 417.657C120.818 417.532 120.719 417.423 120.6 417.34C120.02 416.69 120.27 414.65 120.99 413.88C121.71 413.11 124.12 414.56 124.8 414.32C125.48 414.08 125.54 413.72 126.1 413.23C127.067 412.288 128.292 411.655 129.62 411.41C131.19 411.26 132.1 412.58 133.11 413.1C134.012 413.463 134.951 413.728 135.91 413.89C136.721 414.132 137.457 414.576 138.05 415.18C138.26 415.51 138.87 415.54 138.7 416.52C138.53 417.5 138.12 417.81 138.19 418.59C138.26 419.37 138.27 419.51 138.36 420.4C138.45 421.29 139.29 422.79 138.75 423.54C138.21 424.29 137.86 425.38 136.91 425.47C135.96 425.56 132.91 425.32 132.91 425.32C132.616 425.702 132.358 426.11 132.14 426.54C131.955 426.926 131.674 427.258 131.323 427.505C130.973 427.752 130.566 427.905 130.14 427.95C129.468 428.01 128.81 428.175 128.19 428.44Z" fill="white"/>
<path d="M121.28 418.24C122.28 417.24 123.28 416.29 124.28 415.32L125.05 414.62L125.43 414.28C125.658 414.102 125.92 413.973 126.2 413.9C126.933 413.737 127.68 413.643 128.43 413.62C129.878 413.561 131.328 413.641 132.76 413.86C133.569 413.965 134.354 414.209 135.08 414.58C135.585 414.91 135.944 415.422 136.08 416.01C136.201 416.439 136.258 416.884 136.25 417.33C136.156 418.838 135.818 420.32 135.25 421.72C134.977 422.403 134.667 423.071 134.32 423.72C134.135 424.067 133.928 424.401 133.7 424.72C133.409 425.126 133.006 425.439 132.54 425.62C131.089 426.023 129.571 426.122 128.08 425.91C126.678 425.763 125.288 425.52 123.92 425.18C125.32 425.07 126.71 425.05 128.08 424.88C129.371 424.834 130.647 424.585 131.86 424.14C132.12 424 132.05 424 132.26 423.72C132.47 423.44 132.55 423.19 132.68 422.9C132.955 422.303 133.189 421.689 133.38 421.06C133.816 419.861 134.072 418.604 134.14 417.33C134.168 416.95 134.335 416.594 134.61 416.33C133.865 416.095 133.103 415.922 132.33 415.81C131.012 415.528 129.675 415.344 128.33 415.26C127.688 415.21 127.042 415.21 126.4 415.26C126.28 415.26 126.16 415.32 126.21 415.26L125.76 415.55L124.87 416.12C123.7 416.81 122.53 417.58 121.28 418.24Z" fill="#C7C7C7"/>
<path d="M125.6 415.57C125.68 416.91 125.6 418.19 125.73 419.36C125.73 419.91 125.9 420.58 126.04 420.61C126.18 420.64 126.04 420.61 125.99 420.61C125.94 420.61 125.99 420.61 126.11 420.61C126.352 420.599 126.592 420.572 126.83 420.53C127.96 420.34 129.18 420 130.41 419.74C131.67 419.442 132.95 419.235 134.24 419.12C132.207 420.845 129.778 422.037 127.17 422.59C126.779 422.642 126.384 422.662 125.99 422.65C125.713 422.624 125.44 422.56 125.18 422.46C124.87 422.311 124.607 422.079 124.42 421.79C124.019 421.036 123.906 420.162 124.1 419.33C124.324 417.983 124.836 416.701 125.6 415.57Z" fill="#C7C7C7"/>
<path d="M110.51 402.06C109.58 399.24 109.74 395.97 106.51 396.32C103.28 396.67 101.43 392.69 100 391.74C98.57 390.79 93.49 391.74 92.38 392.69C91.27 393.64 90.79 395.5 89.68 396.32C88.57 397.14 86.98 398.41 85.55 399.68C84.12 400.95 82.06 402.68 82.69 405.87C83.32 409.06 84.76 410.14 85.69 411.74C86.62 413.34 85.05 416.2 86.32 419.85C87.59 423.5 93.79 424.93 95.38 424.3C96.97 423.67 101.21 420.96 103.53 420.96C105.85 420.96 106.53 422.87 108.53 421.76C110.53 420.65 113.61 418.26 113.77 417.31C113.93 416.36 112.02 415.52 112.66 414.03C113.3 412.54 115.84 409.75 115.52 407.89C115.2 406.03 111.22 404.22 110.51 402.06Z" fill="white"/>
<path d="M104.62 396C100.699 397.258 96.8702 398.785 93.16 400.57C92.7559 400.781 92.374 401.033 92.02 401.32C91.87 401.32 91.78 402.05 91.69 402.49C91.52 403.49 91.39 404.49 91.29 405.49C91.08 407.49 90.92 409.58 90.91 411.61C90.886 412.596 90.9395 413.582 91.07 414.56C91.0941 414.833 91.1652 415.101 91.28 415.35C91.635 415.517 92.0122 415.631 92.4 415.69C94.386 415.98 96.3953 416.077 98.4 415.98C99.4033 415.956 100.405 415.879 101.4 415.75C102.26 415.61 103.4 415.32 104.4 415.15C106.4 414.74 108.46 414.35 110.4 413.85C110.863 413.737 111.321 413.6 111.77 413.44C111.852 413.42 111.93 413.386 112 413.34C112 413.34 112.11 413.34 112 413.34C111.926 413.385 111.873 413.457 111.85 413.54C111.73 413.771 111.705 414.04 111.78 414.29C111.814 414.422 111.883 414.543 111.98 414.64C112.015 414.681 112.056 414.718 112.1 414.75L111.83 414.64C110.94 414.35 109.92 414.11 108.93 413.88L102.93 412.53C100.93 412.09 98.93 411.64 96.86 411.13C95.86 410.86 94.86 410.6 93.81 410.25C93.1895 410.063 92.6096 409.761 92.1 409.36C92.0304 409.295 91.9699 409.221 91.92 409.14C91.8487 409.023 91.7979 408.894 91.77 408.76C91.77 408.63 91.77 408.51 91.77 408.38C91.7754 408.181 91.816 407.985 91.89 407.8C91.9844 407.506 92.1049 407.222 92.25 406.95C93.3524 405.115 94.6719 403.419 96.18 401.9C96.56 401.53 96.93 401.15 97.33 400.8C97.54 400.62 97.74 400.44 97.96 400.27C98.0708 400.179 98.1877 400.095 98.31 400.02C98.4619 399.894 98.6392 399.801 98.83 399.75C99.0361 399.713 99.2475 399.72 99.4507 399.77C99.6539 399.82 99.8444 399.912 100.01 400.04C100.251 400.201 100.478 400.382 100.69 400.58C101.08 400.951 101.447 401.345 101.79 401.76C104.312 405.07 106.569 408.575 108.54 412.24C106.242 408.819 103.73 405.546 101.02 402.44C100.67 402.08 100.32 401.72 99.96 401.44C99.7206 401.218 99.4427 401.042 99.14 400.92L98.99 401.03C98.893 401.09 98.8025 401.161 98.72 401.24C98.54 401.39 98.36 401.57 98.19 401.74C97.83 402.09 97.49 402.46 97.19 402.83C95.8509 404.313 94.6897 405.947 93.73 407.7C93.637 407.889 93.5633 408.086 93.51 408.29C93.51 408.35 93.45 408.48 93.51 408.46C93.4978 408.385 93.4706 408.314 93.43 408.25L93.38 408.18C93.7285 408.356 94.0936 408.497 94.47 408.6C95.4 408.9 96.4 409.15 97.39 409.39C99.39 409.86 101.39 410.28 103.39 410.69L111.15 412.18C112.15 412.41 111.5 412.38 112.59 412.72L113.04 412.89C113.148 412.933 113.252 412.987 113.35 413.05C113.455 413.112 113.549 413.189 113.63 413.28C113.746 413.402 113.831 413.549 113.88 413.71C113.962 413.993 113.934 414.297 113.8 414.56C113.681 414.734 113.536 414.889 113.37 415.02C113.28 415.091 113.183 415.151 113.08 415.2C112.931 415.286 112.773 415.356 112.61 415.41C112.088 415.612 111.554 415.779 111.01 415.91C108.94 416.41 106.9 416.77 104.87 417.15C103.8 417.33 102.96 417.53 101.77 417.72C100.707 417.84 99.6394 417.907 98.57 417.92C96.4347 417.992 94.2974 417.852 92.19 417.5C91.5525 417.4 90.9409 417.176 90.39 416.84C90.0366 416.57 89.7833 416.19 89.67 415.76C89.5696 415.462 89.5058 415.153 89.48 414.84C89.3953 413.762 89.3953 412.678 89.48 411.6C89.59 409.49 89.84 407.43 90.15 405.36C90.31 404.36 90.48 403.3 90.71 402.27C90.9 401.74 90.78 401.27 91.41 400.56C91.8509 400.194 92.3427 399.894 92.87 399.67C94.7952 398.855 96.769 398.161 98.78 397.59C100.6 397 102.59 396.4 104.62 396Z" fill="#C7C7C7"/>
<path d="M265.83 228.9C298.33 261.83 339.2 331.11 331.58 345.16C323.1 360.8 277.85 314.63 278.02 311.94C278.16 309.94 262.24 267.81 250.16 237.21C238.08 206.61 257.8 220.75 265.83 228.9Z" fill="#AD6359"/>
<path d="M277.72 312C276.34 307.5 254.72 252 248.49 234.45C242.26 216.9 248.04 211.45 265.72 227.55C283.4 243.65 322.16 297.31 331 325.8C339.52 353.26 325.39 353.26 306.74 340.6C291.47 330.24 277.72 312 277.72 312Z" fill="#06729D"/>
<path d="M262.65 229.36C262.455 230.59 262.085 231.786 261.55 232.91C261.036 234.05 260.363 235.11 259.55 236.06C259.743 234.83 260.113 233.634 260.65 232.51C261.164 231.371 261.837 230.31 262.65 229.36Z" fill="white"/>
<path d="M318.21 302.51C318.008 303.741 317.638 304.939 317.11 306.07C316.599 307.211 315.926 308.272 315.11 309.22C315.531 306.752 316.593 304.438 318.19 302.51H318.21Z" fill="white"/>
<path d="M299.05 273.36C298.627 275.824 297.565 278.134 295.97 280.06C296.166 278.829 296.54 277.634 297.08 276.51C297.585 275.372 298.248 274.312 299.05 273.36Z" fill="white"/>
<path d="M280.33 271.17C279.1 270.969 277.905 270.595 276.78 270.06C275.638 269.55 274.577 268.876 273.63 268.06C276.094 268.483 278.404 269.545 280.33 271.14V271.17Z" fill="white"/>
<path d="M298.27 300.65C297.039 300.448 295.841 300.078 294.71 299.55C293.571 299.036 292.51 298.362 291.56 297.55C294.028 297.971 296.342 299.033 298.27 300.63V300.65Z" fill="white"/>
<path d="M283.69 250.15C282.458 249.952 281.259 249.582 280.13 249.05C278.989 248.539 277.928 247.866 276.98 247.05C278.211 247.246 279.407 247.62 280.53 248.16C281.671 248.673 282.734 249.343 283.69 250.15Z" fill="white"/>
<path d="M268.58 283.91C270.02 285.955 270.903 288.34 271.14 290.83C269.7 288.785 268.817 286.4 268.58 283.91Z" fill="white"/>
<path d="M306.11 319C306.842 320.011 307.425 321.123 307.84 322.3C308.29 323.46 308.569 324.68 308.67 325.92C307.23 323.875 306.347 321.49 306.11 319Z" fill="white"/>
<path d="M285.3 315.93C284.363 316.619 283.333 317.172 282.24 317.57L281.59 316.79H281.67C282.832 316.331 284.055 316.041 285.3 315.93Z" fill="white"/>
<path d="M322.51 338.56C323.523 337.829 324.634 337.243 325.81 336.82C326.97 336.37 328.19 336.091 329.43 335.99C328.423 336.724 327.315 337.306 326.14 337.72C324.976 338.169 323.754 338.452 322.51 338.56Z" fill="white"/>
<path d="M263 255.58C261.989 256.312 260.877 256.895 259.7 257.31C258.889 257.616 258.053 257.847 257.2 258L257.02 257.51C257.77 257.075 258.556 256.707 259.37 256.41C260.533 255.959 261.756 255.68 263 255.58Z" fill="white"/>
<path d="M273.84 352.76H150.3C150.3 352.76 169.94 255.87 217.3 213.93C223.15 208.75 236.36 209.93 244.98 214.21C248.05 215.74 259.1 231.21 262.25 245.8C265.4 260.39 274.18 352.32 273.84 352.76Z" fill="#06729D"/>
<path d="M263.34 251.84C264.34 255.1 265.11 258.49 265.77 261.84C265.77 261.71 265.77 261.58 265.77 261.44C265.77 259.54 265.83 257.59 266.04 255.69C266.04 255.59 266.21 255.56 266.22 255.69C266.468 257.613 266.522 259.556 266.38 261.49C266.38 262.4 266.27 263.32 266.2 264.23C266.46 265.75 266.69 267.28 266.88 268.79C267.24 271.68 268.21 282.41 268.29 284.54C268.29 284.99 267.8 285.07 267.67 284.6C267.09 282.44 265.55 271.38 265.06 268.53C264.106 263.003 263.455 257.428 263.11 251.83C263.12 251.73 263.31 251.73 263.34 251.84Z" fill="#333333"/>
<path d="M225.06 239.22C224.639 241.688 223.577 244.002 221.98 245.93C222.175 244.699 222.549 243.503 223.09 242.38C223.594 241.239 224.258 240.175 225.06 239.22ZM208.32 288.42C207.783 289.548 207.413 290.747 207.22 291.98C208.035 291.029 208.709 289.964 209.22 288.82C209.752 287.695 210.122 286.499 210.32 285.27C209.504 286.218 208.831 287.279 208.32 288.42ZM168.19 306C167.658 307.126 167.288 308.321 167.09 309.55C167.906 308.603 168.579 307.541 169.09 306.4C169.622 305.271 169.992 304.073 170.19 302.84C169.378 303.794 168.704 304.858 168.19 306ZM197.69 337.54C197.153 338.664 196.783 339.86 196.59 341.09C197.406 340.143 198.079 339.081 198.59 337.94C199.117 336.809 199.488 335.612 199.69 334.38C198.873 335.345 198.199 336.423 197.69 337.58V337.54ZM249.19 276.59C248.658 277.716 248.288 278.911 248.09 280.14C248.906 279.193 249.579 278.131 250.09 276.99C250.622 275.865 250.992 274.669 251.19 273.44C250.378 274.405 249.705 275.479 249.19 276.63V276.59ZM265.42 310.06C264.883 311.188 264.513 312.387 264.32 313.62C265.136 312.673 265.81 311.612 266.32 310.47C266.837 309.368 267.2 308.201 267.4 307C266.595 307.934 265.929 308.978 265.42 310.1V310.06ZM226.15 334.18C225.618 335.309 225.248 336.508 225.05 337.74C225.866 336.793 226.539 335.731 227.05 334.59C227.582 333.461 227.952 332.263 228.15 331.03C227.334 331.993 226.661 333.067 226.15 334.22V334.18ZM188.52 269C187.985 270.125 187.615 271.32 187.42 272.55C188.233 271.6 188.906 270.54 189.42 269.4C189.956 268.276 190.327 267.08 190.52 265.85C189.707 266.8 189.034 267.861 188.52 269ZM235.22 258C234.096 257.464 232.9 257.093 231.67 256.9C232.618 257.716 233.679 258.39 234.82 258.9C235.947 259.428 237.142 259.798 238.37 260C237.422 259.184 236.361 258.511 235.22 258ZM243 297.71C241.876 297.174 240.68 296.803 239.45 296.61C240.398 297.426 241.459 298.1 242.6 298.61C243.728 299.136 244.922 299.506 246.15 299.71C245.202 298.894 244.141 298.221 243 297.71ZM170.36 339.83C169.235 339.295 168.04 338.925 166.81 338.73C167.758 339.546 168.819 340.22 169.96 340.73C171.087 341.258 172.282 341.628 173.51 341.83C172.565 341.015 171.508 340.342 170.37 339.83H170.36ZM244.28 347.88C243.152 347.344 241.953 346.974 240.72 346.78C241.671 347.591 242.732 348.264 243.87 348.78L244.63 349.11L246.63 349.24C245.894 348.715 245.11 348.26 244.29 347.88H244.28ZM198.13 307.65C197.005 307.115 195.81 306.745 194.58 306.55C195.527 307.366 196.588 308.04 197.73 308.55C198.855 309.085 200.05 309.459 201.28 309.66C200.336 308.842 199.278 308.165 198.14 307.65H198.13ZM235.21 222.77C234.086 222.234 232.89 221.863 231.66 221.67C232.607 222.486 233.668 223.16 234.81 223.67C235.935 224.205 237.13 224.579 238.36 224.78C237.416 223.962 236.358 223.285 235.22 222.77H235.21ZM243.21 241.21C243.642 242.389 244.245 243.497 245 244.5C244.763 242.01 243.88 239.625 242.44 237.58C242.523 238.821 242.786 240.044 243.22 241.21H243.21ZM262.83 333.21C263.246 334.384 263.829 335.492 264.56 336.5C264.323 334.01 263.44 331.625 262 329.58C262.109 330.807 262.392 332.013 262.84 333.16L262.83 333.21ZM209.83 264.37C210.244 265.545 210.826 266.653 211.56 267.66C211.459 266.42 211.18 265.2 210.73 264.04C210.307 262.864 209.721 261.754 208.99 260.74C209.109 261.968 209.398 263.173 209.85 264.32L209.83 264.37ZM225.1 304.8C225.523 305.973 226.109 307.08 226.84 308.09C226.605 305.598 225.719 303.212 224.27 301.17C224.375 302.413 224.655 303.635 225.1 304.8ZM154.31 352.25C154.31 352.42 154.31 352.59 154.31 352.76H154.63C154.55 352.594 154.443 352.424 154.31 352.25ZM189.09 352.09C188.667 350.914 188.081 349.804 187.35 348.79C187.454 350.033 187.734 351.255 188.18 352.42L188.31 352.76H189.31C189.24 352.54 189.17 352.31 189.09 352.09ZM182 323.56C182.415 324.738 182.998 325.849 183.73 326.86C183.63 325.616 183.351 324.394 182.9 323.23C182.479 322.057 181.893 320.949 181.16 319.94C181.269 321.18 181.552 322.399 182 323.56ZM211.91 228.32C212.331 229.494 212.917 230.601 213.65 231.61C213.401 229.124 212.516 226.745 211.08 224.7C211.182 225.939 211.458 227.158 211.9 228.32H211.91ZM245 321.67C246.175 321.257 247.283 320.674 248.29 319.94C247.05 320.041 245.83 320.32 244.67 320.77C243.497 321.188 242.389 321.77 241.38 322.5C242.62 322.4 243.84 322.12 245 321.67ZM212.66 351.42C213.837 351.005 214.949 350.422 215.96 349.69C214.716 349.79 213.493 350.069 212.33 350.52C211.157 350.938 210.049 351.52 209.04 352.25C210.267 352.146 211.472 351.866 212.62 351.42H212.66ZM157.66 324.48C157.58 324.76 157.49 325.05 157.41 325.32C158.001 325.042 158.564 324.707 159.09 324.32C158.597 324.336 158.105 324.389 157.62 324.48H157.66ZM185.86 290.22C187.035 289.803 188.144 289.217 189.15 288.48C186.662 288.732 184.279 289.616 182.23 291.05C183.459 290.942 184.668 290.663 185.82 290.22H185.86ZM211.75 323C212.925 322.587 214.033 322.004 215.04 321.27C213.796 321.371 212.574 321.651 211.41 322.1C210.237 322.524 209.13 323.109 208.12 323.84C209.363 323.731 210.585 323.449 211.75 323ZM227.15 276C228.325 275.583 229.434 274.997 230.44 274.26C229.196 274.364 227.973 274.647 226.81 275.1C225.637 275.518 224.529 276.101 223.52 276.83C224.763 276.726 225.985 276.446 227.15 276ZM259.74 257.31C260.917 256.895 262.029 256.312 263.04 255.58C260.55 255.818 258.165 256.7 256.12 258.14C257.36 258.04 258.58 257.76 259.74 257.31ZM201.46 246.38C202.635 245.967 203.743 245.384 204.75 244.65C203.509 244.75 202.29 245.029 201.13 245.48C199.955 245.9 198.844 246.482 197.83 247.21C199.074 247.111 200.296 246.831 201.46 246.38Z" fill="white"/>
<path d="M244.43 234.68C237 236.14 224.68 224.32 220 215C219.68 214.35 220.9 207.76 222 199.68C222.66 194.78 223.27 189.3 223.46 184.26C223.46 183.26 254.77 193.18 254.77 193.18C254.77 193.18 251.25 203.62 250.96 212.4C250.941 213.096 250.984 213.792 251.09 214.48C251.097 214.597 251.097 214.713 251.09 214.83C251.64 218.73 251.65 233.26 244.43 234.68Z" fill="#AD6359"/>
<path d="M247.9 214.82C248.981 214.912 250.069 214.912 251.15 214.82C251.156 214.707 251.156 214.593 251.15 214.48C251.039 213.793 250.996 213.096 251.02 212.4C251.31 203.62 254.82 193.18 254.82 193.18C254.82 193.18 229.45 185.1 224.39 184.25C225.11 190.06 229.28 213.67 247.9 214.82Z" fill="#333333"/>
<path d="M215.72 153.29C213.29 164.76 221.99 196.52 230.57 203.02C242.99 212.45 261.94 211.81 269.57 197.19C276.99 183.02 264.91 141.83 255.47 136.06C241.59 127.57 219.32 136.35 215.72 153.29Z" fill="#AD6359"/>
<path d="M248.3 171.59C248.3 171.51 248.16 171.73 248.19 171.82C248.83 173.94 249.19 176.49 247.47 177.72C247.41 177.72 247.47 177.86 247.52 177.83C249.79 176.86 249.25 173.5 248.3 171.59Z" fill="#333333"/>
<path d="M245.79 169.86C242.27 170.53 243.86 177.51 247.12 176.86C250.38 176.21 248.74 169.31 245.79 169.86Z" fill="#333333"/>
<path d="M261.51 168.28C261.51 168.19 261.7 168.34 261.72 168.43C262.14 170.61 262.99 173.03 265.11 173.31C265.18 173.31 265.19 173.43 265.11 173.43C262.66 173.64 261.56 170.41 261.51 168.28Z" fill="#333333"/>
<path d="M262.92 165.58C266.34 164.52 268.2 171.44 265.03 172.42C261.86 173.4 260.06 166.46 262.92 165.58Z" fill="#333333"/>
<path d="M242.66 169.19C243.622 168.996 244.573 168.753 245.51 168.46C246.546 168.335 247.514 167.879 248.27 167.16C248.461 166.885 248.556 166.554 248.539 166.22C248.523 165.885 248.397 165.565 248.18 165.31C247.678 164.87 247.068 164.571 246.412 164.447C245.756 164.322 245.078 164.375 244.45 164.6C243.101 164.854 241.895 165.603 241.07 166.7C240.899 166.961 240.807 167.266 240.806 167.578C240.804 167.89 240.892 168.196 241.06 168.459C241.228 168.722 241.468 168.931 241.752 169.061C242.036 169.19 242.351 169.235 242.66 169.19Z" fill="#333333"/>
<path d="M264.82 161.45C263.839 161.47 262.858 161.44 261.88 161.36C260.834 161.478 259.779 161.246 258.88 160.7C258.633 160.475 258.467 160.174 258.409 159.845C258.351 159.515 258.404 159.176 258.56 158.88C258.954 158.339 259.485 157.913 260.098 157.646C260.712 157.379 261.386 157.28 262.05 157.36C263.419 157.315 264.756 157.782 265.8 158.67C266.028 158.884 266.189 159.159 266.263 159.463C266.337 159.767 266.321 160.085 266.217 160.38C266.113 160.675 265.926 160.933 265.678 161.123C265.43 161.313 265.132 161.427 264.82 161.45Z" fill="#333333"/>
<path d="M250.87 191.37C251.51 191.76 252.18 192.37 252.98 192.23C253.78 192.03 254.529 191.666 255.18 191.16C255.194 191.151 255.21 191.147 255.226 191.148C255.243 191.148 255.258 191.154 255.271 191.163C255.284 191.173 255.294 191.187 255.299 191.202C255.304 191.218 255.305 191.235 255.3 191.25C255.085 191.744 254.742 192.17 254.305 192.485C253.869 192.8 253.356 192.992 252.82 193.04C252.354 193.028 251.902 192.877 251.523 192.606C251.143 192.335 250.853 191.957 250.69 191.52C250.63 191.4 250.78 191.32 250.87 191.37Z" fill="#333333"/>
<path d="M251.67 184.38C252.414 185.11 253.301 185.678 254.275 186.05C255.249 186.422 256.289 186.589 257.33 186.54C258.242 186.509 259.144 186.348 260.01 186.06C260.178 186.012 260.341 185.952 260.5 185.88C260.658 185.833 260.812 185.773 260.96 185.7C261.071 185.654 261.164 185.572 261.222 185.466C261.28 185.361 261.3 185.239 261.28 185.12C261.266 185.047 261.242 184.977 261.21 184.91V184.72C260.88 183.05 260.14 180.55 260.14 180.55C260.82 180.72 264.24 181.41 263.99 180.55C261.92 173.44 259.62 165.55 256.06 158.91C256.041 158.86 256.004 158.819 255.955 158.796C255.906 158.774 255.85 158.772 255.8 158.79C255.75 158.809 255.709 158.846 255.686 158.895C255.664 158.944 255.661 159 255.68 159.05C257.4 165.96 260.32 172.52 262.15 179.43C260.932 179.166 259.683 179.078 258.44 179.17C258.22 179.29 259.95 183.96 260.04 184.73C260.046 184.756 260.046 184.784 260.04 184.81C257.33 185.81 255.04 185.44 251.88 184.18C251.64 184.05 251.5 184.24 251.67 184.38Z" fill="#333333"/>
<path d="M221.93 181.64C221.93 181.64 210.31 164.44 210.8 154.14C211.02 149.49 217.18 146.05 217.18 146.05C216.606 144.183 216.566 142.192 217.064 140.303C217.562 138.413 218.579 136.701 220 135.36C225.23 129.92 238.55 130.42 238.55 130.42C238.55 130.42 246.55 117.56 258.95 121.89C271.35 126.22 264.12 140.4 264.12 140.4C264.12 140.4 268.9 146.51 258.24 152.01C247.86 157.36 225.92 153.7 225.92 153.7C227.296 161.12 227.559 168.703 226.7 176.2C226.486 177.46 225.927 178.635 225.085 179.595C224.243 180.556 223.151 181.264 221.93 181.64Z" fill="#333333"/>
<path d="M240.62 130.48C237.848 129.513 234.908 129.125 231.98 129.34C229.358 129.43 226.771 129.968 224.33 130.93C220.03 132.72 216.33 136.14 215.8 140.93C215.675 142.117 215.787 143.318 216.131 144.461C216.474 145.604 217.042 146.668 217.8 147.59C217.86 147.66 217.97 147.59 217.91 147.47C214.91 144.13 216.13 138.64 218.91 135.58C222.03 132.11 227 130.58 231.51 130.19C234.519 130.003 237.54 130.171 240.51 130.69C240.535 130.692 240.56 130.686 240.582 130.673C240.603 130.661 240.621 130.643 240.633 130.621C240.644 130.598 240.649 130.573 240.647 130.548C240.645 130.524 240.635 130.5 240.62 130.48Z" fill="#333333"/>
<path d="M267.9 127.33C266.72 123.97 263.69 121.93 260.36 121.04C256.522 120.084 252.475 120.436 248.86 122.04C245.227 123.672 242.096 126.244 239.79 129.49C239.79 129.56 239.86 129.65 239.91 129.58C244.22 123.94 251.23 120.5 258.38 121.65C261.57 122.16 264.82 123.65 266.43 126.58C267.12 127.984 267.494 129.521 267.525 131.085C267.556 132.649 267.244 134.2 266.61 135.63C265.14 139.08 262.22 141.78 259.18 143.86C259.11 143.86 259.18 144.02 259.25 143.98C262.294 142.3 264.861 139.874 266.71 136.93C267.586 135.509 268.145 133.916 268.351 132.26C268.556 130.603 268.402 128.922 267.9 127.33Z" fill="#333333"/>
<path d="M260.87 152.45C256.112 154.66 250.936 155.826 245.69 155.87C240.251 155.991 234.816 155.519 229.48 154.46C226.37 153.88 223.28 153.17 220.2 152.41C220.1 152.41 220.07 152.53 220.2 152.56C225.611 154.569 231.218 156.001 236.93 156.83C242.241 157.555 247.642 157.235 252.83 155.89C255.67 155.124 258.402 154.002 260.96 152.55C261 152.52 260.93 152.42 260.87 152.45Z" fill="#333333"/>
<path d="M249.05 184.31C247.406 184.536 245.732 184.296 244.218 183.618C242.703 182.94 241.41 181.851 240.483 180.475C239.557 179.098 239.035 177.49 238.977 175.832C238.92 174.173 239.328 172.532 240.156 171.095C240.985 169.657 242.2 168.48 243.663 167.699C245.126 166.917 246.78 166.561 248.435 166.672C250.091 166.783 251.682 167.356 253.028 168.327C254.374 169.297 255.421 170.625 256.05 172.16C256.938 174.339 256.925 176.781 256.014 178.95C255.103 181.12 253.368 182.839 251.19 183.73C250.504 184.014 249.785 184.209 249.05 184.31ZM246.76 167.91C246.128 167.995 245.51 168.16 244.92 168.4C243.101 169.135 241.63 170.536 240.808 172.318C239.986 174.1 239.874 176.128 240.495 177.989C241.117 179.851 242.424 181.405 244.152 182.336C245.879 183.267 247.897 183.504 249.793 182.999C251.689 182.494 253.321 181.285 254.357 179.618C255.393 177.952 255.754 175.953 255.368 174.029C254.981 172.105 253.875 170.401 252.276 169.264C250.677 168.127 248.704 167.643 246.76 167.91Z" fill="#EBEBEB"/>
<path d="M268.73 179.05C265.36 179.52 261.83 176.5 260.66 172.05C260.065 169.917 260.152 167.651 260.91 165.57C261.179 164.657 261.679 163.83 262.363 163.167C263.046 162.505 263.889 162.031 264.81 161.79C265.73 161.55 266.698 161.551 267.618 161.795C268.538 162.038 269.379 162.516 270.06 163.18C271.737 164.621 272.919 166.552 273.44 168.7C274.68 173.44 272.82 178.04 269.3 178.96C269.113 179.005 268.922 179.035 268.73 179.05ZM265.55 162.83C265.401 162.85 265.254 162.88 265.11 162.92C264.38 163.142 263.716 163.538 263.174 164.075C262.632 164.612 262.229 165.273 262 166C261.334 167.849 261.264 169.86 261.8 171.75C262.87 175.85 266.09 178.57 268.99 177.81C271.89 177.05 273.36 173.1 272.28 169C271.821 167.089 270.771 165.371 269.28 164.09C268.779 163.635 268.188 163.288 267.547 163.071C266.905 162.854 266.225 162.772 265.55 162.83Z" fill="#EBEBEB"/>
<path d="M256 173.23L255 172.54C256 171.11 258.64 168.85 261.33 170.54L260.69 171.54C258.33 170 256.1 173.1 256 173.23Z" fill="#EBEBEB"/>
<path d="M218.34 185.44L217.18 185.18C217.3 184.64 218.44 179.88 220.89 178.79C223.34 177.7 238.95 175.2 239.62 175.09L239.81 176.26C235.29 177 223.14 179.09 221.37 179.87C219.6 180.65 218.63 184.13 218.34 185.44Z" fill="#EBEBEB"/>
<path d="M226.88 179.85C226.88 179.85 218.48 170.22 214.03 173.32C209.58 176.42 216.68 190.94 222.45 192.41C223.178 192.649 223.946 192.739 224.71 192.673C225.473 192.608 226.215 192.389 226.891 192.029C227.568 191.67 228.164 191.177 228.645 190.581C229.126 189.984 229.482 189.297 229.69 188.56L226.88 179.85Z" fill="#AD6359"/>
<path d="M216.17 177.43C216.08 177.43 216.08 177.56 216.17 177.58C220.23 178.74 222.66 182.13 224.5 185.72C223.19 184.4 221.5 183.78 219.75 185.37C219.65 185.45 219.75 185.6 219.87 185.56C220.53 185.269 221.265 185.189 221.972 185.332C222.68 185.475 223.325 185.835 223.82 186.36C224.644 187.247 225.371 188.219 225.99 189.26C226.2 189.59 226.81 189.33 226.64 188.95C226.636 188.92 226.636 188.89 226.64 188.86C226.15 183.89 221.55 177.36 216.17 177.43Z" fill="#333333"/>
<path d="M331.58 345.16C324.27 355.62 304.36 357.61 254.7 367.34C247.83 368.69 225.29 322.75 232.55 320.94C241.7 318.65 277.7 311.76 280.4 311.59C303.14 310.15 336.54 338.06 331.58 345.16Z" fill="#AD6359"/>
<path d="M242.49 318.67C242.49 318.67 221.49 321.85 210.91 326.94C196.81 333.76 187.43 345.45 183.8 350.59C176.22 361.32 165.3 392.49 173.73 397.2C181.36 401.46 190.91 369.04 190.91 369.04C190.91 369.04 175.72 400.49 185.85 403.94C195.98 407.39 204.93 369.11 204.93 369.11C204.93 369.11 190.04 401.78 201.05 403.68C209.38 405.11 219.43 370.9 219.43 370.9C219.43 370.9 206.83 399.07 215.32 400.9C224.71 402.9 235.97 371.9 235.97 371.9C258.35 372.96 269.43 364.3 276.59 357.21C278.32 355.55 242.49 318.67 242.49 318.67Z" fill="#AD6359"/>
<path d="M195.47 357.82C193.55 361.45 191.58 365.11 190 368.9C188.42 372.69 186.95 376.54 185.72 380.46C182.72 390.07 182.32 396.56 182.39 396.16C183.98 386.74 189.46 373.09 191.05 369.3C192.64 365.51 194.05 361.66 195.62 357.87C195.66 357.78 195.51 357.73 195.47 357.82Z" fill="#333333"/>
<path d="M209.25 363.31C207 368.05 204.6 372.67 202.56 377.52C200.52 382.37 199 387.09 197.33 392C197.2 392.38 197.45 392.33 197.6 392C199.48 387.13 201.6 382.76 203.6 377.91C205.6 373.06 207.31 368.13 209.42 363.37C209.4 363.28 209.29 363.24 209.25 363.31Z" fill="#333333"/>
<path d="M221.93 365.89C218.12 372.96 215.62 380.73 213.36 388.4C213.24 388.78 213.56 388.68 213.69 388.29C216.4 380.76 218.47 374.83 222.18 366.02C222.24 365.89 222 365.74 221.93 365.89Z" fill="#333333"/>
<path d="M238.1 318.67L281.6 367.12C281.6 367.12 325.6 357.02 332.08 345.74C336.35 338.31 303.19 308.33 278.18 311.84L238.1 318.67Z" fill="#06729D"/>
<path d="M276.73 348.9C276.532 350.129 276.162 351.324 275.63 352.45C275.122 353.596 274.448 354.66 273.63 355.61C273.828 354.377 274.198 353.179 274.73 352.05C275.241 350.909 275.914 349.848 276.73 348.9ZM307 346.19C306.468 347.316 306.098 348.511 305.9 349.74C306.716 348.792 307.389 347.731 307.9 346.59C308.432 345.461 308.802 344.262 309 343.03C308.188 343.984 307.514 345.048 307 346.19ZM285.4 336C284.273 335.463 283.074 335.093 281.84 334.9C282.788 335.716 283.849 336.389 284.99 336.9C286.119 337.432 287.318 337.802 288.55 338C287.602 337.184 286.541 336.511 285.4 336ZM306.94 322.66C307.354 323.835 307.936 324.943 308.67 325.95C308.569 324.71 308.29 323.49 307.84 322.33C307.425 321.153 306.842 320.041 306.11 319.03C306.209 320.277 306.488 321.503 306.94 322.67V322.66ZM262.84 333.15C263.256 334.324 263.839 335.432 264.57 336.44C264.333 333.95 263.45 331.565 262.01 329.52C262.11 330.767 262.39 331.993 262.84 333.16V333.15ZM245 321.67C246.175 321.256 247.283 320.673 248.29 319.94C247.05 320.041 245.83 320.32 244.67 320.77C243.497 321.188 242.389 321.77 241.38 322.5C242.62 322.399 243.84 322.12 245 321.67ZM282 317.67C283.175 317.256 284.283 316.673 285.29 315.94C284.046 316.041 282.824 316.321 281.66 316.77C280.49 317.196 279.384 317.778 278.37 318.5C279.614 318.397 280.837 318.114 282 317.66V317.67ZM295.7 360.27C296.879 359.855 297.991 359.268 299 358.53C297.756 358.638 296.534 358.92 295.37 359.37C294.195 359.784 293.087 360.366 292.08 361.1C293.323 360.992 294.546 360.709 295.71 360.26L295.7 360.27ZM328.41 336.11C327.521 336.273 326.647 336.514 325.8 336.83C324.624 337.253 323.513 337.839 322.5 338.57C323.744 338.462 324.966 338.179 326.13 337.73C327.03 337.404 327.894 336.989 328.71 336.49L328.41 336.11Z" fill="white"/>
<path d="M308.05 319.76C304.05 316.84 292.66 310.03 278.18 311.84C278.06 311.84 278.05 312.06 278.18 312.06C289.1 311.75 303.83 317.46 307.95 319.94C308.06 320 308.15 319.83 308.05 319.76Z" fill="#333333"/>
<path d="M293.5 359C289 353.41 284.21 348.08 279.4 342.75C274.59 337.42 269.79 332.09 264.85 326.88C262.06 323.94 259.28 320.97 256.38 318.13C256.31 318.06 256.16 318.13 256.23 318.25C260.72 323.83 265.5 329.19 270.23 334.54C274.96 339.89 279.84 345.21 284.72 350.48C287.48 353.48 290.29 356.38 293.19 359.22C293.36 359.37 293.63 359.17 293.5 359Z" fill="#333333"/>
<path d="M253.47 221.14C253.47 221.127 253.465 221.114 253.455 221.105C253.446 221.095 253.433 221.09 253.42 221.09C253.407 221.09 253.394 221.095 253.385 221.105C253.375 221.114 253.37 221.127 253.37 221.14C254.24 227.82 255.83 243.35 245.24 243.14C240.98 243.05 236.93 240.67 233.53 238.3C230.053 235.837 226.852 233.008 223.98 229.86C220.646 226.426 217.596 222.728 214.86 218.8C214.75 218.63 214.5 218.8 214.62 219C217.4 222.93 219.77 227 222.93 230.71C225.928 234.288 229.4 237.441 233.25 240.08C236.88 242.5 241.18 244.86 245.68 244.74C249.97 244.63 252.89 241.74 253.87 237.74C255.16 232.45 254.66 226.39 253.47 221.14Z" fill="#333333"/>
<path d="M251.14 214.62L243.42 233.2L220.5 209.32L213.84 216.82C213.84 216.82 236.1 254.61 236.26 252.91L244.14 236.91L255.14 248.23L254.56 220.12L251.14 214.62Z" fill="white"/>
<path d="M255.62 234.32C255.37 229.68 255.24 225 254.78 220.38C254.78 220.21 254.5 220.14 254.46 220.38C253.46 224.85 254.54 242.58 254.46 246.83L254.41 246.78C253.95 246.29 244.23 236.78 244.13 236.96C242.43 239.5 236.65 251.15 236.25 252.21C232.73 246.21 219.25 224.38 215.04 218.7C215.018 218.668 214.984 218.645 214.946 218.636C214.908 218.627 214.868 218.633 214.834 218.651C214.799 218.67 214.773 218.7 214.759 218.737C214.746 218.773 214.746 218.814 214.76 218.85C217.86 225.19 235.76 254.58 236.01 254.5C236.2 254.65 243.38 240.29 244.25 237.58C245.89 239.64 255.69 250.32 255.73 249.63C255.96 244.528 255.923 239.418 255.62 234.32Z" fill="#333333"/>
<path d="M293 285.77C293 285.77 297.77 296.58 290.14 299.23C282.51 301.88 279.54 290.45 279.54 290.45L293 285.77Z" fill="#455A64"/>
<path d="M252.39 212.43L254.09 201L254.62 197.22L257.42 199.83L265.85 207.75L293.12 286.21L279.65 290.89L252.4 212.43H252.39Z" fill="#455A64"/>
<path d="M254.08 200.98L254.63 197.21L257.43 199.82L254.08 200.98Z" fill="#37474F"/>
<path d="M278.675 291.722L294.392 286.258L293.309 283.141L277.591 288.605L278.675 291.722Z" fill="#37474F"/>
<path d="M277.481 288.267L293.198 282.803L292.115 279.686L276.398 285.15L277.481 288.267Z" fill="#37474F"/>
<path d="M292.12 279.67L287.05 281.44L279.98 252.08L281.88 251.54L292.12 279.67Z" fill="#37474F"/>
<path d="M195.62 237.29C164 276.8 135.3 333.66 141.12 354.22C143.25 361.74 156.84 374.22 177.25 367.47C200.25 359.85 228.9 341.11 255.6 321.2C261.26 316.98 214.83 281.75 208.7 286.2C205.85 288.26 198.07 295.52 196.89 294.96C195.12 294.11 204.48 274.66 212.41 244.16C220.77 212 209.38 220.12 195.62 237.29Z" fill="#AD6359"/>
<path d="M275.25 233.79C279.54 239.02 265.73 248.5 265.73 248.5C268.633 248.215 271.545 248.954 273.96 250.59C278.08 253.67 275.05 261.48 275.05 261.48C278.126 261.812 281.031 263.059 283.39 265.06C287.03 268.41 285.1 276.72 285.1 276.72C287.755 278.585 289.651 281.343 290.44 284.49C292.21 292.98 282.65 302.14 276.64 308.03C270.63 313.92 248 325 244 327.53L205.87 289.24C205.87 289.24 225.34 255.16 233.4 249.24C240.14 244.25 268.7 225.78 275.25 233.79Z" fill="#AD6359"/>
<path d="M265.5 248.44C257.01 252.01 249.39 257.6 242.1 263.08C242.075 263.108 242.061 263.143 242.06 263.18C242.058 263.217 242.07 263.254 242.092 263.283C242.115 263.313 242.147 263.334 242.183 263.342C242.219 263.351 242.257 263.346 242.29 263.33C249.48 257.8 258.29 254.05 265.72 248.82C265.767 248.789 265.799 248.741 265.812 248.687C265.825 248.633 265.816 248.575 265.788 248.527C265.76 248.479 265.715 248.443 265.661 248.427C265.608 248.41 265.55 248.415 265.5 248.44Z" fill="#333333"/>
<path d="M274.43 261.1C272.58 262.095 270.869 263.329 269.34 264.77C267.633 266.197 265.967 267.65 264.34 269.13C261.007 272.09 257.753 275.133 254.58 278.26C254.44 278.4 254.58 278.65 254.77 278.51C258.103 275.563 261.48 272.683 264.9 269.87C266.627 268.457 268.36 267.067 270.1 265.7C271.831 264.507 273.424 263.125 274.85 261.58C274.914 261.524 274.953 261.446 274.958 261.361C274.964 261.277 274.936 261.194 274.88 261.13C274.824 261.067 274.746 261.028 274.661 261.022C274.577 261.016 274.494 261.044 274.43 261.1Z" fill="#333333"/>
<path d="M285 276.84C283.32 277.53 281.9 279.18 280.59 280.4C279.1 281.78 277.59 283.15 276.1 284.51C273.1 287.24 270.1 289.97 266.99 292.59C266.84 292.72 266.99 292.97 267.18 292.84C270.35 290.19 273.54 287.59 276.68 284.91C278.22 283.577 279.757 282.243 281.29 280.91C282.58 279.78 284.34 278.51 285.14 276.91C285.136 276.896 285.128 276.883 285.119 276.872C285.109 276.861 285.098 276.852 285.085 276.846C285.072 276.839 285.057 276.835 285.043 276.834C285.028 276.833 285.014 276.835 285 276.84Z" fill="#333333"/>
<path d="M243.67 329.91C245.438 328.184 247.333 326.592 249.34 325.15C251.322 323.675 253.415 322.354 255.6 321.2C253.837 322.932 251.941 324.524 249.93 325.96C247.948 327.435 245.855 328.756 243.67 329.91Z" fill="#333333"/>
<path d="M198.19 292.7C198.19 292.7 206.8 267.5 212.71 247.05C218.62 226.6 220.49 207.6 198.71 230.69C176.93 253.78 138 321.83 138.6 348.63C138.76 356.42 147.12 371.43 168.69 370.93C190.26 370.43 249 334.82 249 334.82L205.43 287.41L198.19 292.7Z" fill="#06729D"/>
<path d="M208.27 290.55C207.969 291.06 207.617 291.54 207.22 291.98C207.315 291.297 207.483 290.627 207.72 289.98L208.27 290.55ZM168.19 306C167.658 307.126 167.288 308.321 167.09 309.55C167.906 308.602 168.579 307.541 169.09 306.4C169.622 305.271 169.992 304.072 170.19 302.84C169.378 303.794 168.704 304.858 168.19 306ZM197.69 337.54C197.154 338.664 196.783 339.86 196.59 341.09C197.406 340.142 198.079 339.081 198.59 337.94C199.118 336.809 199.488 335.611 199.69 334.38C198.873 335.345 198.199 336.423 197.69 337.58V337.54ZM142.24 342.06C141.708 343.186 141.338 344.381 141.14 345.61C141.956 344.662 142.629 343.601 143.14 342.46C143.671 341.334 144.041 340.139 144.24 338.91C143.425 339.872 142.751 340.947 142.24 342.1V342.06ZM226.15 334.18C225.618 335.309 225.248 336.508 225.05 337.74C225.866 336.792 226.539 335.731 227.05 334.59C227.582 333.461 227.952 332.262 228.15 331.03C227.335 331.992 226.661 333.067 226.15 334.22V334.18ZM188.52 269C187.985 270.124 187.615 271.32 187.42 272.55C188.233 271.6 188.906 270.539 189.42 269.4C189.957 268.276 190.327 267.08 190.52 265.85C189.707 266.8 189.034 267.86 188.52 269ZM181.79 252.57C182.661 252.936 183.575 253.191 184.51 253.33C183.836 252.743 183.094 252.24 182.3 251.83L181.79 252.57ZM152.33 304.22C152.19 304.51 152.05 304.8 151.92 305.1C153.051 305.628 154.249 305.998 155.48 306.2C154.531 305.384 153.47 304.707 152.33 304.19V304.22ZM170.33 339.86C169.205 339.325 168.01 338.955 166.78 338.76C167.728 339.576 168.789 340.249 169.93 340.76C171.057 341.288 172.252 341.658 173.48 341.86C172.547 341.037 171.499 340.353 170.37 339.83L170.33 339.86ZM198.1 307.68C196.975 307.145 195.78 306.775 194.55 306.58C195.497 307.396 196.558 308.07 197.7 308.58C198.825 309.115 200.02 309.489 201.25 309.69C200.317 308.863 199.27 308.176 198.14 307.65L198.1 307.68ZM155.1 355.91C155.514 357.085 156.096 358.193 156.83 359.2C156.729 357.96 156.45 356.74 156 355.58C155.585 354.403 155.002 353.291 154.27 352.28C154.385 353.516 154.678 354.728 155.14 355.88L155.1 355.91ZM188.1 352.45C188.521 353.624 189.107 354.731 189.84 355.74C189.735 354.5 189.455 353.282 189.01 352.12C188.587 350.944 188.001 349.833 187.27 348.82C187.403 350.057 187.709 351.269 188.18 352.42L188.1 352.45ZM182 323.56C182.415 324.737 182.998 325.849 183.73 326.86C183.63 325.616 183.351 324.393 182.9 323.23C182.479 322.056 181.893 320.949 181.16 319.94C181.269 321.18 181.552 322.399 182 323.56ZM168.19 283.46C168.604 284.635 169.186 285.743 169.92 286.75C169.683 284.26 168.8 281.875 167.36 279.83C167.456 281.073 167.733 282.296 168.18 283.46H168.19ZM211.91 228.32C212.331 229.494 212.917 230.601 213.65 231.61C213.401 229.124 212.516 226.744 211.08 224.7C211.182 225.939 211.458 227.158 211.9 228.32H211.91ZM201.47 246.38C202.645 245.966 203.753 245.384 204.76 244.65C203.519 244.749 202.3 245.029 201.14 245.48C199.965 245.9 198.854 246.482 197.84 247.21C199.08 247.109 200.3 246.83 201.46 246.38H201.47ZM212.63 351.38C213.807 350.965 214.919 350.382 215.93 349.65C214.686 349.749 213.463 350.029 212.3 350.48C211.127 350.898 210.019 351.48 209.01 352.21C210.245 352.121 211.461 351.855 212.62 351.42L212.63 351.38ZM155.76 326C156.935 325.586 158.043 325.004 159.05 324.27C157.806 324.371 156.584 324.651 155.42 325.1C154.247 325.523 153.14 326.109 152.13 326.84C153.374 326.732 154.596 326.449 155.76 326ZM174.11 363.09C175.284 362.674 176.392 362.091 177.4 361.36C176.156 361.459 174.933 361.739 173.77 362.19C172.597 362.613 171.49 363.199 170.48 363.93C171.722 363.828 172.944 363.552 174.11 363.11V363.09ZM185.82 290.2C186.995 289.783 188.104 289.197 189.11 288.46C186.622 288.711 184.239 289.596 182.19 291.03C183.432 290.932 184.654 290.659 185.82 290.22V290.2ZM211.75 323C212.925 322.586 214.033 322.004 215.04 321.27C213.796 321.371 212.574 321.651 211.41 322.1C210.237 322.523 209.13 323.109 208.12 323.84C209.363 323.731 210.585 323.448 211.75 323Z" fill="white"/>
<path d="M235.52 338.42C231.02 332.84 226.23 327.5 221.42 322.18C216.61 316.86 211.81 311.51 206.87 306.3C204.07 303.36 201.3 300.4 198.4 297.56C198.33 297.48 198.18 297.56 198.25 297.68C202.74 303.25 207.52 308.62 212.25 313.96C216.98 319.3 221.86 324.64 226.74 329.9C229.5 332.9 232.31 335.8 235.21 338.65C235.38 338.79 235.65 338.59 235.52 338.42Z" fill="#333333"/>
<path d="M211.11 261.86C210.26 263.11 209.49 264.41 208.77 265.73C209.01 265.05 209.26 264.37 209.49 263.68C210.49 260.91 211.35 258.12 212.28 255.33C212.34 255.16 212.04 255.04 211.97 255.21C210.97 257.62 209.97 260.01 209.02 262.43C208.07 264.85 207.19 267.23 206.27 269.63C204.42 274.48 202.58 279.32 200.87 284.22C199.87 286.99 199.01 289.77 198.2 292.6C198.2 292.71 198.35 292.79 198.4 292.68C200.55 287.98 202.4 283.15 204.23 278.3C205.39 275.127 206.543 271.95 207.69 268.77C208.94 266.53 210.15 264.26 211.25 261.94C211.261 261.922 211.263 261.9 211.258 261.879C211.252 261.858 211.239 261.841 211.22 261.83C211.201 261.82 211.179 261.817 211.159 261.822C211.138 261.828 211.121 261.842 211.11 261.86Z" fill="#333333"/>
<path d="M206.06 288.27C206.06 288.27 205.38 287.73 205.35 287.7C203.2 289.58 200.87 291.22 198.65 292.99C197.47 293.94 188.71 300.89 185.71 303.42C178.6 309.42 171.71 315.65 164.89 322.03C161.5 325.22 158.17 328.48 154.89 331.77C151.61 335.06 148.26 338.4 145.11 341.88C145.096 341.891 145.078 341.897 145.06 341.897C145.041 341.896 145.024 341.89 145.01 341.878C144.996 341.867 144.986 341.851 144.983 341.833C144.979 341.815 144.982 341.796 144.99 341.78C148.41 337.78 151.82 333.69 155.39 329.78C161.698 322.857 168.406 316.309 175.48 310.17C179.02 307.11 182.63 304.133 186.31 301.24C188.73 299.33 196.77 293.13 197.92 292.24C200.29 290.45 202.67 288.52 205.07 286.93C205.16 286.87 206.16 288.12 206.19 288.14C206.22 288.16 206.11 288.36 206.06 288.27Z" fill="#333333"/>
<path d="M116.34 382.08H92.67V385.77H116.34V382.08Z" fill="#455A64"/>
<path d="M116.34 382.08H92.67V384.52H116.34V382.08Z" fill="#333333"/>
<path d="M64.57 372.15C66.012 374.277 68.0351 375.946 70.3984 376.956C72.7616 377.967 75.3656 378.277 77.9 377.85C78.7201 377.696 79.5237 377.465 80.3001 377.16C81.4781 376.698 82.6016 376.108 83.65 375.4L80.65 370.94C80.0929 371.334 79.4964 371.669 78.8701 371.94C73.2401 374.5 69.67 370.05 68.97 369.04C65.72 364.48 64.56 354.04 67.85 350.04C68.07 349.74 69.02 349.27 72.85 350.04C73.55 350.2 74.35 350.38 75.25 350.63C75.9534 350.866 76.6815 351.02 77.42 351.09L77.51 348.42L77.77 345.74C77.53 345.74 77.14 345.59 76.64 345.45C74.8798 344.932 73.0806 344.558 71.26 344.33C68.46 344.04 65.52 344.38 63.71 346.59C58.34 353.2 60.51 366.43 64.57 372.15Z" fill="#455A64"/>
<path opacity="0.1" d="M80.6401 370.94C80.083 371.334 79.4864 371.669 78.8601 371.94L80.3001 377.15C81.4781 376.688 82.6016 376.098 83.6501 375.39L80.6401 370.94Z" fill="#333333"/>
<path d="M71.2301 344.4L72.8201 350.11C73.5201 350.27 74.3201 350.45 75.2201 350.7C75.9235 350.936 76.6516 351.09 77.3901 351.16L77.4801 348.49L77.7401 345.81C77.5001 345.81 77.1101 345.66 76.6101 345.52C74.8498 345.002 73.0507 344.628 71.2301 344.4Z" fill="#333333"/>
<path d="M136 337.42C136 337.42 133.16 361.54 128.25 371.71C123.34 381.88 116.49 383 112.24 383H96.76C92.51 383 85.67 381.86 80.76 371.72C75.85 361.58 73 337.42 73 337.42H136Z" fill="#455A64"/>
<path d="M132.94 356C132.71 357 132.49 358 132.26 359.06H76.7401C76.5101 358.06 76.2901 357.06 76.0601 356H132.94Z" fill="#37474F"/>
<path d="M131.51 362.11C130.91 364.39 130.27 366.58 129.56 368.51H79.4401C78.7301 366.58 78.0901 364.39 77.4401 362.11H131.51Z" fill="#37474F"/>
</svg>
