<svg width="384" height="384" viewBox="0 0 384 384" fill="none" xmlns="http://www.w3.org/2000/svg">
<path d="M49.1444 314.811L84.8564 314.627L120.576 314.557L192 314.427L263.424 314.557L299.144 314.627L334.856 314.811L299.144 314.995L263.424 315.064L192 315.195L120.576 315.064L84.8564 314.995L49.1444 314.811Z" fill="#263238"/>
<path d="M148.247 39.1833H48.9446V113.756H148.247V39.1833Z" fill="#DBDBDB"/>
<path d="M141.834 44.9587H55.3496V107.981H141.834V44.9587Z" fill="#EBEBEB"/>
<path d="M87.4367 53.9981H66.5625V99.7709H87.4367V53.9981Z" fill="white"/>
<path d="M130.621 53.9981H94.3564V78.7508H130.621V53.9981Z" fill="white"/>
<path d="M111.437 82.6906H94.3564V99.7709H111.437V82.6906Z" fill="white"/>
<path d="M130.621 82.6906H118.702V99.7709H130.621V82.6906Z" fill="white"/>
<path d="M87.4674 73.7511C92.9221 73.7511 97.3439 69.3292 97.3439 63.8746C97.3439 58.42 92.9221 53.9981 87.4674 53.9981C82.0128 53.9981 77.5909 58.42 77.5909 63.8746C77.5909 69.3292 82.0128 73.7511 87.4674 73.7511Z" fill="#DBDBDB"/>
<path d="M94.3564 99.7709H123.471V70.656L94.3564 99.7709Z" fill="#DBDBDB"/>
<path d="M334.856 36.1959H232.696V192.837H334.856V36.1959Z" fill="#EBEBEB"/>
<path d="M281.403 42.4704H238.264V112.143H281.403V42.4704Z" fill="white"/>
<path d="M329.288 42.4704H286.149V112.143H329.288V42.4704Z" fill="white"/>
<path d="M281.403 116.882H238.264V186.555H281.403V116.882Z" fill="white"/>
<path d="M329.288 116.882H286.149V186.555H329.288V116.882Z" fill="white"/>
<path d="M295.242 36.1959H334.856V260.291H311.923L327.928 146.258L295.242 36.1959Z" fill="#DBDBDB"/>
<path d="M302.108 42.2477L308.744 68.2061L315.264 94.1952L328.305 146.166L328.32 146.235L328.312 146.304L322.145 200.655L319.058 227.827L315.855 254.991L318.682 227.789L321.639 200.594L327.552 146.22L327.56 146.35L314.773 94.3181L308.383 68.2982L302.108 42.2477Z" fill="#EBEBEB"/>
<path d="M332.498 46.848L332.682 69.3197L332.79 91.7991L332.882 136.742L332.79 181.693L332.69 204.165L332.498 226.644L332.306 204.165L332.206 181.693L332.114 136.742L332.206 91.7991L332.313 69.3197L332.498 46.848Z" fill="#EBEBEB"/>
<path d="M325.094 51.0566L326.676 74.9261L328.151 98.8032L331.077 146.55C330.885 155.42 330.585 164.291 330.347 173.161L329.579 199.764L328.811 226.376L327.936 253.01L328.443 226.399L329.065 199.788L329.695 173.176C329.91 164.306 330.079 155.428 330.347 146.565L327.659 98.7955L326.323 74.9491L325.094 51.0566Z" fill="#EBEBEB"/>
<path d="M319.941 249.6L322.13 223.78L324.434 197.967C326.024 180.764 327.544 163.553 329.18 146.358V146.458L322.03 106.26L318.505 86.1542L315.041 66.0403L318.828 86.1004L322.56 106.13L329.91 146.289V146.388C328.374 163.592 326.684 180.787 325.079 197.99L322.56 223.78L319.941 249.6Z" fill="#EBEBEB"/>
<path d="M334.856 144.376H325.908V149.599H334.856V144.376Z" fill="#DBDBDB"/>
<path d="M256.896 36.1959H232.696V260.298H256.896V36.1959Z" fill="#DBDBDB"/>
<path d="M252.303 46.848L252.495 71.0784L252.565 95.3088L252.687 143.77L252.565 192.23L252.495 216.461L252.303 240.691L252.119 216.461L252.05 192.23L251.927 143.77L252.05 95.3088L252.119 71.0784L252.303 46.848Z" fill="#EBEBEB"/>
<path d="M241.198 52.462L241.382 74.1043L241.49 95.7388L241.582 139.008L241.49 182.277L241.382 203.912L241.198 225.554L241.006 203.912L240.899 182.277L240.814 139.008L240.906 95.7388L241.006 74.1043L241.198 52.462Z" fill="#EBEBEB"/>
<path d="M246.751 57.577L246.943 82.9057L247.004 108.242L247.135 158.907L247.004 209.572L246.943 234.908L246.751 260.245L246.566 234.908L246.497 209.572L246.367 158.907L246.497 108.242L246.566 82.9057L246.751 57.577Z" fill="#EBEBEB"/>
<path d="M237.066 48.1229L237.25 74.6419L237.32 101.153L237.45 154.184L237.32 207.214L237.25 233.725L237.066 260.244L236.874 233.725L236.813 207.214L236.682 154.184L236.813 101.153L236.882 74.6419L237.066 48.1229Z" fill="#EBEBEB"/>
<path d="M103.618 127.711H72.8447V148.769H103.618V127.711Z" fill="#EBEBEB"/>
<path d="M72.8447 129.254C75.4943 130.744 78.1055 132.326 80.7014 133.862C82.007 134.63 83.2818 135.452 84.5414 136.251L88.3814 138.655H87.9666L91.8066 136.251C93.0969 135.483 94.3718 134.638 95.6466 133.862L99.5558 131.52C100.869 130.752 102.175 129.984 103.503 129.216C102.267 130.099 101 130.944 99.7554 131.804L96.0921 134.4C94.8326 135.252 93.5423 136.051 92.2521 136.881L88.4121 139.346L88.2047 139.476L87.9974 139.346L84.1574 136.881C82.8825 136.051 81.5999 135.252 80.3174 134.4C77.8521 132.695 75.3254 131.013 72.8447 129.254Z" fill="white"/>
<path d="M72.96 145.021C74.8184 143.394 76.7698 141.876 78.8044 140.475C80.8195 139.044 82.9172 137.734 85.0867 136.55C83.2303 138.183 81.2787 139.703 79.2422 141.105C77.227 142.533 75.1293 143.841 72.96 145.021Z" fill="white"/>
<path d="M103.549 145.021C101.381 143.839 99.2835 142.531 97.2672 141.105C95.2318 139.705 93.2827 138.184 91.4304 136.55C93.5974 137.734 95.6926 139.044 97.705 140.475C99.7424 141.872 101.694 143.39 103.549 145.021Z" fill="white"/>
<path d="M73.2289 120.753H72.4609V123.295H73.2289V120.753Z" fill="#DBDBDB"/>
<path d="M68.002 122.598L67.459 123.141L69.2565 124.939L69.7996 124.396L68.002 122.598Z" fill="#DBDBDB"/>
<path d="M68.1522 127.603H65.6101V128.371H68.1522V127.603Z" fill="#DBDBDB"/>
<path d="M69.2627 131.039L67.4652 132.837L68.0083 133.38L69.8058 131.582L69.2627 131.039Z" fill="#DBDBDB"/>
<path d="M73.2289 132.687H72.4609V135.229H73.2289V132.687Z" fill="#DBDBDB"/>
<path d="M76.4439 131.038L75.9009 131.581L77.6984 133.379L78.2415 132.836L76.4439 131.038Z" fill="#DBDBDB"/>
<path d="M80.087 127.603H77.5449V128.371H80.087V127.603Z" fill="#DBDBDB"/>
<path d="M77.6897 122.603L75.8922 124.4L76.4353 124.943L78.2328 123.146L77.6897 122.603Z" fill="#DBDBDB"/>
<path d="M195.395 351.959C263.705 351.959 319.081 345.258 319.081 336.991C319.081 328.724 263.705 322.022 195.395 322.022C127.084 322.022 71.7081 328.724 71.7081 336.991C71.7081 345.258 127.084 351.959 195.395 351.959Z" fill="#EBEBEB"/>
<path d="M257.633 284.321H211.2V287.393H257.633V284.321Z" fill="#455A64"/>
<path d="M214.687 177.446L214.464 192L213.051 284.321L213.005 287.393L212.383 327.89H210.017L209.395 287.393L209.349 284.321L207.936 192L207.713 177.446H214.687Z" fill="#455A64"/>
<path d="M207.713 177.446H214.687L214.464 192H207.936L207.713 177.446Z" fill="#263238"/>
<path d="M261.112 177.446L260.89 192L258.808 327.89H256.443L255.821 287.393L255.775 284.321L254.362 192L254.139 177.446H261.112Z" fill="#455A64"/>
<path d="M261.112 177.446L260.89 192H254.362L254.139 177.446H261.112Z" fill="#263238"/>
<path d="M235.976 284.321H189.542V287.393H235.976V284.321Z" fill="#37474F"/>
<path d="M193.029 177.446L192.806 192L191.393 284.321L191.347 287.393L190.725 327.89H188.36L186.278 192L186.056 177.446H193.029Z" fill="#37474F"/>
<path d="M186.056 177.446H193.029L192.806 192H186.278L186.056 177.446Z" fill="#263238"/>
<path d="M239.462 177.446L239.24 192L237.827 284.321L237.78 287.393L237.158 327.89H234.793L234.171 287.393L234.125 284.321L232.712 192L232.489 177.446H239.462Z" fill="#37474F"/>
<path d="M232.489 177.446H239.462L239.24 192H232.712L232.489 177.446Z" fill="#263238"/>
<path d="M264.737 170.673H183.283V178.644H264.737V170.673Z" fill="#06729D"/>
<path opacity="0.1" d="M248.855 170.673H183.283V178.644H248.855V170.673Z" fill="#263238"/>
<path d="M269.921 100.493L264.722 170.673H216.138L215.7 163.937L211.5 99.8937L263.409 100.424L269.921 100.493Z" fill="#06729D"/>
<path opacity="0.1" d="M263.409 100.424L259.837 170.673H216.138L215.7 163.937L211.5 99.8937L263.409 100.424Z" fill="#263238"/>
<path d="M265.221 163.937L264.722 170.673H216.138L215.7 163.937H265.221Z" fill="#263238"/>
<path d="M206.377 62.3616C196.838 72.5299 195.955 97.5513 209.057 113.764C220.147 127.488 244.501 129.062 254.515 120.107C265.144 110.607 263.401 95.3472 254.446 89.3875C245.798 83.6352 235.876 84.8793 230.531 78.5971C227.965 75.5865 226.76 69.0201 223.173 64.4121C219.172 59.2819 211.261 57.1468 206.377 62.3616Z" fill="#263238"/>
<path d="M217.835 100.815C215.355 117.258 213.174 129.999 208.965 133.571C205.571 136.428 200.602 138.739 195.425 140.559C189.883 142.432 184.223 143.938 178.483 145.068C176.717 145.428 175.242 145.697 174.198 145.897C171.61 146.373 165.297 129.661 166.894 127.342C167.263 126.812 168.937 126.236 171.31 125.645C179.305 123.663 195.256 121.528 196.101 120.507C196.946 119.485 201.316 112.013 207.237 102.221C211.323 95.4547 215.055 93.1661 216.875 94.6944C217.897 95.5622 218.312 97.6435 217.835 100.815Z" fill="#EB9481"/>
<path d="M178.483 145.068C175.915 146.604 173.246 147.966 170.496 149.146C168.284 149.99 161.856 152.218 160.689 149.914C159.921 148.316 163.515 146.55 166.065 145.244C167.401 144.553 168.991 142.94 168.507 142.111C167.67 140.575 164.237 142.464 162.01 144.015C157.701 147.011 152.026 152.241 149.107 150.159C147.994 149.391 149.107 147.694 150.72 146.005C147.994 148.047 145.037 149.775 143.808 148.954C143.483 148.742 143.251 148.415 143.157 148.039C143.063 147.663 143.114 147.266 143.301 146.926C142.952 147.125 142.551 147.215 142.15 147.185C141.749 147.155 141.367 147.006 141.051 146.757C140.037 145.851 140.375 144.369 141.274 142.802C141.097 142.798 140.924 142.752 140.77 142.668C140.615 142.584 140.482 142.464 140.383 142.318C138.148 139.453 147.364 129.969 150.735 128.878C160.635 125.653 171.471 125.653 171.471 125.653C175.588 128.494 178.491 145.06 178.483 145.068Z" fill="#EB9481"/>
<path d="M162.87 136.865C160.49 137.417 158.263 138.49 156.349 140.006C154.122 141.819 152.432 144.177 150.405 146.15C150.4 146.156 150.396 146.162 150.394 146.169C150.391 146.177 150.39 146.184 150.39 146.192C150.391 146.199 150.392 146.206 150.396 146.213C150.399 146.22 150.403 146.226 150.409 146.231C150.414 146.236 150.421 146.24 150.428 146.243C150.435 146.245 150.442 146.246 150.45 146.246C150.457 146.245 150.465 146.244 150.472 146.24C150.478 146.237 150.484 146.233 150.489 146.227C151.434 145.198 152.494 144.261 153.485 143.27C154.475 142.28 155.389 141.297 156.418 140.398C158.278 138.745 160.489 137.537 162.885 136.865C162.885 136.865 162.893 136.858 162.87 136.865Z" fill="#263238"/>
<path d="M160.642 132.733C157.996 133.591 155.443 134.716 153.024 136.09C150.443 137.679 148.516 140.091 146.619 142.418C145.472 143.811 144.363 145.229 143.293 146.673C143.247 146.734 143.293 146.819 143.378 146.757C145.298 144.361 147.292 142.024 149.361 139.745C151.263 137.619 153.568 135.891 156.142 134.661C157.609 133.955 159.137 133.371 160.65 132.78C160.681 132.772 160.666 132.726 160.642 132.733Z" fill="#263238"/>
<path d="M157.501 129.224C154.967 129.992 152.755 130.598 150.589 132.165C148.167 134.076 145.992 136.282 144.115 138.731C143.086 140.029 142.095 141.366 141.128 142.71C141.089 142.763 141.181 142.833 141.228 142.779C143.451 139.809 145.865 136.987 148.454 134.331C149.665 133.047 151.07 131.962 152.617 131.113C154.191 130.343 155.828 129.709 157.509 129.216C157.509 129.216 157.509 129.216 157.501 129.224Z" fill="#263238"/>
<path d="M217.835 100.815C215.355 117.258 213.174 129.999 208.965 133.571C205.57 136.428 200.601 138.739 195.425 140.559L216.875 94.6944C217.897 95.5622 218.312 97.6435 217.835 100.815Z" fill="#263238"/>
<path d="M218.88 97.9737C218.88 98.2272 218.88 98.496 218.88 98.7417C218.88 98.9875 218.88 99.1718 218.834 99.4022C218.485 103.507 217.809 107.577 216.814 111.575H216.138H215.478L210.102 111.752H209.334L204.004 111.928H203.32L201.362 111.99L199.826 112.043C199.826 112.043 205.202 101.737 211.346 95.5161C211.92 94.9201 212.57 94.4036 213.281 93.9801C216.061 92.4979 218.826 93.3734 218.88 97.9737Z" fill="#06729D"/>
<path d="M215.823 94.3411C216.044 94.3411 216.223 94.1623 216.223 93.9417C216.223 93.7212 216.044 93.5424 215.823 93.5424C215.603 93.5424 215.424 93.7212 215.424 93.9417C215.424 94.1623 215.603 94.3411 215.823 94.3411Z" fill="white"/>
<path d="M210.14 102.912C210.14 102.991 210.117 103.069 210.072 103.135C210.028 103.2 209.965 103.252 209.892 103.282C209.818 103.312 209.738 103.319 209.66 103.303C209.582 103.287 209.511 103.248 209.456 103.192C209.4 103.135 209.363 103.063 209.348 102.985C209.334 102.907 209.343 102.827 209.374 102.754C209.405 102.681 209.458 102.619 209.525 102.576C209.591 102.533 209.669 102.511 209.748 102.513C209.801 102.513 209.852 102.523 209.9 102.543C209.948 102.563 209.992 102.593 210.028 102.63C210.065 102.667 210.093 102.711 210.113 102.76C210.132 102.808 210.141 102.86 210.14 102.912Z" fill="white"/>
<path d="M215.823 103.296C216.044 103.296 216.223 103.117 216.223 102.897C216.223 102.676 216.044 102.497 215.823 102.497C215.603 102.497 215.424 102.676 215.424 102.897C215.424 103.117 215.603 103.296 215.823 103.296Z" fill="white"/>
<path d="M212.782 98.7649C213.003 98.7649 213.182 98.586 213.182 98.3655C213.182 98.1449 213.003 97.9661 212.782 97.9661C212.562 97.9661 212.383 98.1449 212.383 98.3655C212.383 98.586 212.562 98.7649 212.782 98.7649Z" fill="white"/>
<path d="M218.88 97.9737C218.88 98.2271 218.88 98.4959 218.88 98.7417C218.821 98.7587 218.758 98.7616 218.697 98.7503C218.637 98.739 218.579 98.7137 218.53 98.6765C218.48 98.6393 218.44 98.5911 218.413 98.5358C218.385 98.4805 218.371 98.4195 218.371 98.3577C218.371 98.2959 218.385 98.2349 218.413 98.1796C218.44 98.1242 218.48 98.0761 218.53 98.0389C218.579 98.0016 218.637 97.9764 218.697 97.9651C218.758 97.9537 218.821 97.9567 218.88 97.9737Z" fill="white"/>
<path d="M204.065 111.844C204.066 111.908 204.05 111.972 204.019 112.028H203.336C203.296 111.966 203.274 111.894 203.274 111.821C203.298 111.737 203.349 111.664 203.418 111.612C203.487 111.559 203.572 111.531 203.658 111.531C203.745 111.531 203.83 111.559 203.899 111.612C203.968 111.664 204.018 111.737 204.042 111.821L204.065 111.844Z" fill="white"/>
<path d="M210.14 111.821H209.372C209.396 111.737 209.446 111.664 209.516 111.612C209.585 111.559 209.669 111.531 209.756 111.531C209.843 111.531 209.927 111.559 209.997 111.612C210.066 111.664 210.116 111.737 210.14 111.821Z" fill="white"/>
<path d="M216.146 111.621H215.485C215.52 111.562 215.57 111.514 215.629 111.48C215.688 111.447 215.755 111.429 215.823 111.429C215.889 111.432 215.952 111.451 216.009 111.485C216.065 111.518 216.112 111.565 216.146 111.621Z" fill="white"/>
<path d="M206.707 107.72C206.928 107.72 207.106 107.541 207.106 107.32C207.106 107.1 206.928 106.921 206.707 106.921C206.487 106.921 206.308 107.1 206.308 107.32C206.308 107.541 206.487 107.72 206.707 107.72Z" fill="white"/>
<path d="M212.782 107.72C213.003 107.72 213.182 107.541 213.182 107.32C213.182 107.1 213.003 106.921 212.782 106.921C212.562 106.921 212.383 107.1 212.383 107.32C212.383 107.541 212.562 107.72 212.782 107.72Z" fill="white"/>
<path d="M218.88 97.9737C218.88 98.2272 218.88 98.496 218.88 98.7417C218.88 98.9875 218.88 99.1718 218.834 99.4022C218.485 103.507 217.809 107.577 216.814 111.575H216.138H215.478L210.102 111.752H209.334L204.004 111.928H203.32L201.362 111.99L213.243 93.9955C216.061 92.4979 218.826 93.3734 218.88 97.9737Z" fill="#263238"/>
<path d="M180.902 295.066C182.799 294.743 228.879 270.106 230.054 268.055C230.5 267.287 227.305 260.375 223.204 252.104C222.313 250.322 221.391 248.486 220.439 246.628C214.295 234.555 207.475 221.891 207.475 221.891L176.602 238.287L190.426 262.571L193.451 267.909C193.451 267.909 180.019 285.235 178.982 287.616C177.946 289.997 179.005 295.388 180.902 295.066Z" fill="#EB9481"/>
<path d="M180.902 295.066C182.799 294.743 228.879 270.106 230.054 268.055C230.592 267.103 225.761 257.088 220.439 246.628L190.418 262.572L193.444 267.909C193.444 267.909 180.019 285.235 178.982 287.616C177.946 289.997 179.005 295.388 180.902 295.066Z" fill="white"/>
<path d="M180.902 295.066C182.799 294.743 228.879 270.106 230.054 268.055C230.5 267.287 227.305 260.375 223.204 252.104L193.444 267.909C193.444 267.909 180.019 285.235 178.982 287.616C177.946 289.997 179.005 295.388 180.902 295.066Z" fill="#06729D"/>
<path d="M180.58 292.869C188.206 288.553 219.356 271.841 227.221 268.155C227.282 268.155 227.305 268.155 227.221 268.201C219.763 272.648 188.475 289.098 180.626 293C180.48 293.077 180.419 292.961 180.58 292.869Z" fill="#263238"/>
<path d="M181.056 284.375C181.903 283.893 182.84 283.592 183.809 283.491C184.778 283.391 185.758 283.493 186.685 283.791C188.361 284.309 189.771 285.457 190.618 286.994C190.618 287.04 190.556 287.086 190.525 287.04C189.445 285.65 187.944 284.649 186.246 284.186C184.548 283.724 182.745 283.825 181.11 284.475C181.048 284.498 180.994 284.413 181.056 284.375Z" fill="#263238"/>
<path d="M190.856 270.274C193.928 268.577 198.09 267.755 201.362 269.253C201.492 269.314 201.408 269.491 201.285 269.499C197.825 269.527 194.378 269.924 191.002 270.681C190.948 270.701 190.888 270.698 190.836 270.673C190.784 270.649 190.744 270.605 190.725 270.551C190.706 270.497 190.709 270.437 190.733 270.386C190.758 270.334 190.802 270.294 190.856 270.274Z" fill="#263238"/>
<path d="M188.966 272.486C192.038 270.789 196.201 269.96 199.473 271.465C199.603 271.519 199.519 271.703 199.396 271.703C195.935 271.731 192.488 272.13 189.112 272.893C189.086 272.903 189.057 272.907 189.029 272.906C189 272.904 188.973 272.898 188.947 272.885C188.921 272.873 188.898 272.856 188.879 272.835C188.86 272.814 188.845 272.79 188.836 272.763C188.826 272.736 188.822 272.708 188.823 272.679C188.825 272.651 188.832 272.623 188.844 272.598C188.856 272.572 188.873 272.549 188.894 272.53C188.915 272.511 188.94 272.496 188.966 272.486Z" fill="#263238"/>
<path d="M187.077 274.69C190.149 272.993 194.312 272.171 197.583 273.669C197.714 273.73 197.629 273.907 197.507 273.907C194.046 273.935 190.598 274.334 187.223 275.098C187.169 275.117 187.11 275.114 187.058 275.089C187.006 275.065 186.966 275.021 186.947 274.967C186.927 274.913 186.93 274.854 186.955 274.802C186.979 274.75 187.023 274.71 187.077 274.69Z" fill="#263238"/>
<path d="M185.188 276.895C188.26 275.197 192.422 274.376 195.694 275.873C195.825 275.935 195.74 276.111 195.617 276.119C192.157 276.147 188.709 276.546 185.334 277.309C185.282 277.319 185.228 277.309 185.182 277.283C185.137 277.256 185.102 277.214 185.085 277.164C185.067 277.114 185.068 277.06 185.087 277.01C185.106 276.961 185.141 276.92 185.188 276.895Z" fill="#263238"/>
<path d="M221.33 261.888C224.801 260.045 227.674 265.444 224.194 267.264C220.715 269.084 217.851 263.716 221.33 261.888Z" fill="#263238"/>
<path d="M185.771 268.216C188.59 269.476 191.854 269.468 194.872 269.814C194.94 269.817 195.007 269.803 195.068 269.775C195.13 269.747 195.183 269.704 195.225 269.65C195.266 269.597 195.294 269.534 195.306 269.468C195.318 269.402 195.314 269.333 195.295 269.268C195.308 269.264 195.32 269.256 195.33 269.246C195.34 269.236 195.347 269.224 195.352 269.211C195.356 269.197 195.357 269.183 195.355 269.169C195.354 269.155 195.349 269.142 195.341 269.13C193.597 266.416 191.171 264.208 188.306 262.725C186.624 261.896 183.974 261.681 183.099 263.816C182.223 265.951 184.12 267.479 185.771 268.216ZM184.235 265.728C182.746 262.203 187.162 263.163 188.375 263.823C189.158 264.265 189.91 264.761 190.625 265.306C192.123 266.412 193.436 267.709 194.811 268.954C193.344 268.692 191.862 268.562 190.387 268.355C188.644 268.109 185.088 267.671 184.258 265.728H184.235Z" fill="#263238"/>
<path d="M205.271 261.281C203.95 259.392 201.431 260.191 199.949 261.373C197.482 263.453 195.604 266.144 194.504 269.176C194.499 269.189 194.497 269.204 194.499 269.217C194.5 269.231 194.505 269.245 194.512 269.256C194.52 269.268 194.53 269.278 194.541 269.286C194.553 269.293 194.567 269.298 194.58 269.299C194.577 269.367 194.59 269.434 194.618 269.496C194.645 269.558 194.686 269.612 194.738 269.656C194.791 269.699 194.852 269.729 194.918 269.745C194.984 269.76 195.052 269.76 195.118 269.745C197.983 268.739 201.17 268.017 203.635 266.166C205.056 265.083 206.515 263.071 205.271 261.281ZM199.127 267.333C197.729 267.863 196.316 268.316 194.934 268.869C196.001 267.333 197 265.797 198.221 264.384C198.796 263.696 199.417 263.047 200.079 262.441C201.116 261.527 205.217 259.615 204.541 263.386C204.188 265.49 200.809 266.703 199.15 267.333H199.127Z" fill="#263238"/>
<path d="M198.144 194.304C198.912 203.297 219.602 242.688 219.602 242.688L192.407 256.32L186.962 259.054C186.962 259.054 161.794 214.687 163.154 194.719C164.314 177.777 193.643 156.426 211.684 135.583H235.999C228.319 159.214 200.179 185.303 198.213 193.267C198.139 193.608 198.116 193.957 198.144 194.304Z" fill="#455A64"/>
<path d="M186.931 252.511C192.307 249.646 190.702 250.399 196.078 247.595C198.712 246.221 211.922 239.301 214.587 238.426C214.6 238.422 214.615 238.423 214.628 238.429C214.641 238.435 214.651 238.445 214.657 238.458C214.664 238.47 214.665 238.485 214.662 238.498C214.659 238.512 214.652 238.524 214.641 238.533C212.337 240.177 199.012 246.82 196.355 248.141C190.932 250.844 192.461 250.015 187.008 252.657C186.998 252.665 186.987 252.671 186.975 252.674C186.962 252.677 186.95 252.678 186.937 252.675C186.925 252.673 186.913 252.668 186.903 252.66C186.893 252.653 186.884 252.643 186.878 252.632C186.873 252.62 186.869 252.608 186.869 252.595C186.868 252.583 186.871 252.57 186.876 252.558C186.881 252.547 186.888 252.537 186.898 252.528C186.908 252.52 186.919 252.514 186.931 252.511Z" fill="#263238"/>
<path d="M233.142 139.254C225.427 152.305 216.696 164.729 207.03 176.41C204.664 179.251 202.222 182.016 199.772 184.788C197.699 187.092 195.602 189.727 195.203 192.937C194.765 196.516 196.324 199.995 197.576 203.251C198.958 206.845 200.356 210.432 201.815 214.003C203.397 217.843 205.048 221.683 206.884 225.377C207.826 227.282 208.812 229.163 209.841 231.022C210.353 231.949 210.883 232.87 211.43 233.787C211.699 234.248 213.604 237.389 213.88 237.85C213.972 237.995 214.203 238.172 213.972 237.788C213.45 236.928 211.323 233.364 210.831 232.489C208.896 229.033 207.168 225.477 205.532 221.867C203.896 218.258 202.33 214.51 200.855 210.785C199.38 207.06 197.86 203.405 196.608 199.68C195.868 197.773 195.5 195.742 195.525 193.697C195.687 191.723 196.388 189.831 197.553 188.229C199.642 185.157 202.437 182.484 204.841 179.65C209.838 173.768 214.584 167.685 219.08 161.403C224.191 154.297 228.928 146.929 233.272 139.33C233.272 139.246 233.18 139.2 233.142 139.254Z" fill="#263238"/>
<path d="M219.602 242.688L192.407 256.32L198.144 194.304C198.912 203.297 219.602 242.688 219.602 242.688Z" fill="#263238"/>
<path d="M209.38 343.296C211.308 343.296 260.89 326.784 262.372 324.964C262.94 324.273 260.959 316.915 258.309 308.068C257.741 306.163 257.134 304.228 256.512 302.208C252.488 289.275 247.91 275.635 247.91 275.635L214.71 286.587L224.233 312.853L226.314 318.62C226.314 318.62 210.186 333.435 208.735 335.608C207.283 337.782 207.46 343.25 209.38 343.296Z" fill="#EB9481"/>
<path d="M209.38 343.296C211.308 343.296 260.89 326.784 262.372 324.964C263.063 324.119 259.991 313.444 256.512 302.223L224.256 312.868L226.337 318.636C226.337 318.636 210.209 333.45 208.758 335.624C207.306 337.797 207.46 343.25 209.38 343.296Z" fill="white"/>
<path d="M209.38 343.296C211.308 343.296 260.89 326.784 262.372 324.964C262.94 324.273 260.959 316.915 258.309 308.068L226.314 318.62C226.314 318.62 210.186 333.435 208.735 335.608C207.283 337.782 207.46 343.25 209.38 343.296Z" fill="#06729D"/>
<path d="M209.434 341.03C217.674 338.066 251.205 326.853 259.576 324.549C259.645 324.549 259.661 324.549 259.576 324.595C251.474 327.721 217.858 338.657 209.464 341.169C209.303 341.222 209.257 341.1 209.434 341.03Z" fill="#263238"/>
<path d="M211.338 332.744C212.253 332.411 213.228 332.272 214.199 332.336C215.171 332.399 216.119 332.664 216.983 333.112C218.551 333.913 219.748 335.289 220.324 336.952C220.324 336.998 220.247 337.029 220.224 336.952C219.394 335.4 218.083 334.159 216.488 333.415C214.892 332.672 213.099 332.466 211.377 332.828C211.308 332.859 211.269 332.767 211.338 332.744Z" fill="#263238"/>
<path d="M223.373 320.502C226.683 319.342 230.93 319.235 233.902 321.27C234.017 321.347 233.902 321.508 233.787 321.493C230.371 320.935 226.906 320.744 223.45 320.924C223.395 320.931 223.34 320.916 223.296 320.884C223.252 320.851 223.222 320.803 223.212 320.749C223.202 320.695 223.214 320.64 223.243 320.594C223.273 320.548 223.32 320.515 223.373 320.502Z" fill="#263238"/>
<path d="M221.138 322.353C224.448 321.201 228.695 321.093 231.667 323.121C231.782 323.205 231.667 323.366 231.552 323.343C228.136 322.788 224.67 322.6 221.215 322.783C221.163 322.782 221.113 322.763 221.074 322.729C221.035 322.696 221.009 322.65 221 322.599C220.991 322.549 220.999 322.496 221.025 322.451C221.05 322.406 221.09 322.371 221.138 322.353Z" fill="#263238"/>
<path d="M218.88 324.211C222.19 323.059 226.437 322.944 229.409 324.979C229.524 325.056 229.409 325.217 229.302 325.202C225.883 324.647 222.415 324.459 218.957 324.641C218.905 324.64 218.856 324.621 218.816 324.588C218.777 324.555 218.751 324.509 218.742 324.458C218.733 324.407 218.742 324.355 218.767 324.31C218.792 324.265 218.832 324.23 218.88 324.211Z" fill="#263238"/>
<path d="M216.668 326.07C219.978 324.91 224.225 324.803 227.198 326.838C227.313 326.915 227.198 327.076 227.09 327.06C223.672 326.503 220.204 326.312 216.745 326.492C216.691 326.499 216.636 326.484 216.592 326.452C216.547 326.419 216.517 326.371 216.508 326.317C216.498 326.263 216.509 326.208 216.539 326.162C216.569 326.116 216.615 326.083 216.668 326.07Z" fill="#263238"/>
<path d="M254.83 317.353C258.57 316.124 260.49 321.961 256.742 323.159C252.995 324.357 251.09 318.589 254.83 317.353Z" fill="#263238"/>
<path d="M218.711 317.606C221.276 319.327 224.502 319.872 227.412 320.725C227.712 320.809 227.927 320.517 227.919 320.256C227.933 320.254 227.947 320.248 227.959 320.24C227.971 320.231 227.98 320.221 227.988 320.208C227.995 320.196 228 320.182 228.001 320.168C228.002 320.154 228.001 320.139 227.996 320.125C226.734 317.154 224.713 314.567 222.136 312.622C220.6 311.524 218.043 310.863 216.822 312.822C215.601 314.78 217.213 316.6 218.711 317.606ZM217.643 314.88C216.768 311.148 220.954 312.845 222.044 313.705C222.74 314.272 223.396 314.886 224.01 315.541C225.253 316.915 226.425 318.354 227.52 319.849C226.115 319.342 224.678 318.958 223.258 318.505C221.56 317.99 218.112 316.961 217.643 314.88Z" fill="#263238"/>
<path d="M239.101 314.112C238.118 312.023 235.484 312.376 233.841 313.298C231.059 314.932 228.755 317.268 227.159 320.072C227.151 320.084 227.147 320.098 227.145 320.112C227.144 320.126 227.146 320.141 227.151 320.154C227.156 320.168 227.165 320.18 227.175 320.19C227.186 320.199 227.199 320.206 227.213 320.21C227.174 320.463 227.351 320.786 227.666 320.732C230.661 320.225 233.917 320.056 236.667 318.643C238.272 317.783 240.031 316.04 239.101 314.112ZM232.044 319.035C230.577 319.319 229.11 319.534 227.651 319.872C228.964 318.551 230.208 317.184 231.644 316.032C232.327 315.449 233.051 314.915 233.81 314.435C234.985 313.705 239.347 312.507 238.049 316.116C237.312 318.029 233.795 318.659 232.044 318.996V319.035Z" fill="#263238"/>
<path d="M220.577 309.996L256.512 298.153C256.512 298.153 239.247 248.44 235.139 223.488C232.973 210.363 243.179 173.084 246.804 169.313C256.067 159.675 256.481 149.591 249.777 135.521H219.448C219.448 135.521 221.307 150.405 221.046 150.996C214.272 166.349 194.611 200.786 197.806 226.56C203.013 268.639 220.577 309.996 220.577 309.996Z" fill="#455A64"/>
<path d="M219.51 302.592C226.898 299.628 250.475 291.925 253.094 291.479C253.156 291.479 253.186 291.564 253.133 291.587C250.829 292.861 238.449 297.093 219.563 302.753C219.553 302.757 219.542 302.758 219.531 302.757C219.519 302.757 219.509 302.754 219.499 302.749C219.489 302.744 219.48 302.737 219.472 302.728C219.465 302.72 219.459 302.71 219.456 302.7C219.452 302.689 219.451 302.678 219.452 302.667C219.453 302.656 219.456 302.645 219.461 302.635C219.466 302.625 219.472 302.616 219.481 302.608C219.489 302.601 219.499 302.596 219.51 302.592Z" fill="#263238"/>
<path d="M218.688 136.128C219.18 140.022 219.333 146.696 221.599 146.696C223.864 146.696 223.089 138.555 223.066 136.712C223.066 135.007 223.634 135.214 223.795 137.219C224.218 142.641 224.302 147.441 221.399 147.356C218.496 147.272 218.112 138.808 218.112 136.881C218.112 135.882 218.534 134.899 218.688 136.128Z" fill="#263238"/>
<path d="M221.461 146.957C221.664 148.32 221.698 149.702 221.56 151.073C221.56 151.188 221.092 151.119 221.046 151.035C220.746 150.482 220.839 147.802 220.731 147.087C220.714 146.991 220.736 146.891 220.792 146.81C220.848 146.73 220.934 146.675 221.031 146.657C221.127 146.64 221.227 146.662 221.308 146.718C221.388 146.774 221.443 146.86 221.461 146.957Z" fill="#263238"/>
<path d="M221.046 151.035C215.485 160.704 207.36 178.944 206.799 182.308C206.799 182.477 206.953 182.561 207.022 182.392C208.289 179.32 216.76 160.957 221.56 151.073C221.66 150.881 221.138 150.866 221.046 151.035Z" fill="#263238"/>
<path d="M236.36 193.966C238.771 184.65 241.597 175.281 246.513 166.94C247.872 164.636 249.515 162.494 250.798 160.151C252.013 157.974 252.678 155.532 252.733 153.039C252.833 147.663 250.545 142.564 248.325 137.795C248.264 137.656 248.056 137.795 248.125 137.925C250.26 142.533 252.488 147.518 252.449 152.709C252.429 155.26 251.757 157.763 250.498 159.982C249.362 162.033 247.949 163.914 246.735 165.911C241.789 174.006 238.833 183.114 236.413 192.238C233.841 201.969 230.776 211.976 231.997 222.136C232.726 227.157 233.806 232.12 235.231 236.99C236.605 242.15 238.042 247.296 239.501 252.442C242.772 263.962 246.052 275.558 249.861 286.94C249.861 286.979 249.945 286.94 249.93 286.94C246.912 276.618 243.702 266.366 240.783 256.013C239.339 250.867 237.926 245.714 236.544 240.553C235.169 235.407 233.679 230.27 232.781 225.016C231.855 219.697 231.871 214.256 232.827 208.942C233.733 203.881 235.077 198.912 236.36 193.966Z" fill="#263238"/>
<path d="M251.005 136.374C249.583 137.211 248.108 137.954 246.589 138.601L245.867 138.893C241.641 140.55 237.215 141.648 232.704 142.157C219.21 143.8 206.477 140.989 205.402 139.238L206.838 125.606L206.915 124.838L207.107 122.988C207.107 122.988 203.773 118.717 203.597 113.772C203.589 113.238 203.64 112.704 203.75 112.182C203.789 111.951 203.843 111.713 203.904 111.46C204.887 107.466 208.067 101.553 210.778 97.4516C211.652 96.0719 212.635 94.7647 213.719 93.5424C216.791 90.3092 220.224 89.5719 223.595 90.4704C225.139 90.9185 226.597 91.6192 227.912 92.544C231.127 94.8772 233.862 97.8081 235.968 101.176C238.395 104.886 240.975 110.323 243.295 115.814C243.379 116.006 243.456 116.198 243.533 116.39C247.703 126.421 251.005 136.374 251.005 136.374Z" fill="#06729D"/>
<path d="M216.223 93.9417C216.223 94.0476 216.181 94.1492 216.106 94.2241C216.031 94.299 215.929 94.3411 215.823 94.3411C215.744 94.3411 215.667 94.3177 215.601 94.2738C215.536 94.2299 215.485 94.1675 215.454 94.0945C215.424 94.0216 215.416 93.9413 215.432 93.8638C215.447 93.7863 215.485 93.7152 215.541 93.6593C215.597 93.6035 215.668 93.5654 215.745 93.55C215.823 93.5346 215.903 93.5425 215.976 93.5728C216.049 93.603 216.111 93.6542 216.155 93.7198C216.199 93.7855 216.223 93.8627 216.223 93.9417ZM221.898 93.55C221.819 93.5501 221.741 93.5737 221.676 93.6179C221.61 93.6621 221.559 93.725 221.529 93.7984C221.499 93.8718 221.491 93.9525 221.507 94.0302C221.523 94.1078 221.562 94.179 221.619 94.2345C221.675 94.2901 221.747 94.3275 221.825 94.342C221.903 94.3565 221.984 94.3475 222.056 94.3161C222.129 94.2847 222.191 94.2323 222.234 94.1656C222.277 94.099 222.299 94.021 222.298 93.9417C222.298 93.8896 222.287 93.8381 222.267 93.79C222.247 93.742 222.217 93.6985 222.18 93.662C222.143 93.6255 222.099 93.5968 222.05 93.5776C222.002 93.5584 221.95 93.549 221.898 93.55ZM227.981 93.55C227.901 93.5485 227.823 93.5708 227.756 93.6141C227.689 93.6574 227.637 93.7197 227.606 93.793C227.574 93.8663 227.566 93.9472 227.581 94.0254C227.596 94.1036 227.634 94.1754 227.691 94.2317C227.747 94.288 227.819 94.3262 227.897 94.3414C227.975 94.3565 228.056 94.348 228.129 94.3168C228.203 94.2856 228.265 94.2333 228.308 94.1664C228.352 94.0996 228.374 94.0213 228.372 93.9417C228.372 93.8378 228.331 93.7382 228.258 93.6648C228.184 93.5913 228.085 93.55 227.981 93.55ZM209.748 102.497C209.696 102.497 209.644 102.508 209.596 102.528C209.547 102.548 209.503 102.577 209.466 102.614C209.429 102.651 209.4 102.695 209.379 102.744C209.359 102.792 209.349 102.844 209.349 102.897C209.332 102.956 209.329 103.019 209.34 103.079C209.352 103.14 209.377 103.197 209.414 103.247C209.451 103.296 209.5 103.336 209.555 103.364C209.61 103.391 209.671 103.406 209.733 103.406C209.795 103.406 209.856 103.391 209.911 103.364C209.966 103.336 210.015 103.296 210.052 103.247C210.089 103.197 210.114 103.14 210.126 103.079C210.137 103.019 210.134 102.956 210.117 102.897C210.119 102.795 210.082 102.697 210.013 102.623C209.945 102.548 209.85 102.503 209.748 102.497ZM215.823 102.497C215.771 102.497 215.719 102.508 215.67 102.528C215.622 102.548 215.578 102.577 215.541 102.614C215.504 102.651 215.474 102.695 215.454 102.744C215.434 102.792 215.424 102.844 215.424 102.897C215.424 103.003 215.466 103.104 215.541 103.179C215.616 103.254 215.717 103.296 215.823 103.296C215.929 103.294 216.029 103.251 216.104 103.177C216.178 103.102 216.221 103.002 216.223 102.897C216.223 102.843 216.212 102.79 216.191 102.74C216.17 102.691 216.139 102.646 216.1 102.609C216.062 102.571 216.016 102.542 215.965 102.523C215.915 102.504 215.862 102.495 215.808 102.497H215.823ZM221.898 102.497C221.846 102.497 221.795 102.508 221.746 102.528C221.698 102.548 221.655 102.577 221.618 102.615C221.582 102.652 221.553 102.696 221.534 102.744C221.515 102.793 221.505 102.845 221.507 102.897C221.507 102.976 221.53 103.053 221.574 103.119C221.619 103.185 221.681 103.236 221.755 103.266C221.828 103.296 221.909 103.304 221.987 103.288C222.064 103.272 222.135 103.233 222.191 103.176C222.247 103.12 222.284 103.048 222.298 102.97C222.313 102.892 222.304 102.811 222.273 102.738C222.241 102.666 222.189 102.604 222.122 102.561C222.055 102.518 221.977 102.496 221.898 102.497ZM227.981 102.497C227.928 102.497 227.876 102.508 227.828 102.528C227.779 102.548 227.735 102.577 227.698 102.614C227.661 102.651 227.632 102.695 227.612 102.744C227.592 102.792 227.581 102.844 227.581 102.897C227.564 102.956 227.561 103.019 227.573 103.079C227.584 103.14 227.609 103.197 227.647 103.247C227.684 103.296 227.732 103.336 227.787 103.364C227.843 103.391 227.904 103.406 227.965 103.406C228.027 103.406 228.088 103.391 228.143 103.364C228.199 103.336 228.247 103.296 228.284 103.247C228.321 103.197 228.347 103.14 228.358 103.079C228.369 103.019 228.366 102.956 228.349 102.897C228.352 102.795 228.314 102.697 228.246 102.623C228.177 102.548 228.082 102.503 227.981 102.497ZM234.056 102.497C234.003 102.497 233.951 102.508 233.903 102.528C233.854 102.548 233.81 102.577 233.773 102.614C233.736 102.651 233.707 102.695 233.687 102.744C233.667 102.792 233.656 102.844 233.656 102.897C233.656 103.003 233.698 103.104 233.773 103.179C233.848 103.254 233.95 103.296 234.056 103.296C234.161 103.294 234.261 103.251 234.336 103.177C234.41 103.102 234.453 103.002 234.455 102.897C234.455 102.844 234.445 102.792 234.425 102.744C234.405 102.695 234.375 102.651 234.338 102.614C234.301 102.577 234.257 102.548 234.208 102.528C234.16 102.508 234.108 102.497 234.056 102.497ZM212.782 97.9737C212.703 97.9737 212.625 97.9974 212.559 98.0416C212.494 98.0858 212.442 98.1487 212.412 98.2221C212.382 98.2955 212.375 98.3762 212.391 98.4539C212.407 98.5315 212.446 98.6027 212.502 98.6582C212.559 98.7137 212.631 98.7511 212.709 98.7657C212.787 98.7802 212.867 98.7712 212.94 98.7398C213.013 98.7084 213.075 98.656 213.118 98.5893C213.161 98.5226 213.183 98.4447 213.181 98.3654C213.181 98.3133 213.171 98.2617 213.151 98.2137C213.131 98.1657 213.101 98.1222 213.064 98.0857C213.027 98.0492 212.983 98.0205 212.934 98.0013C212.886 97.9821 212.834 97.9727 212.782 97.9737ZM218.865 97.9737C218.785 97.9722 218.707 97.9945 218.64 98.0378C218.573 98.0811 218.521 98.1434 218.489 98.2167C218.458 98.29 218.45 98.3709 218.465 98.449C218.48 98.5272 218.518 98.5991 218.575 98.6554C218.631 98.7117 218.703 98.7499 218.781 98.7651C218.859 98.7802 218.94 98.7717 219.013 98.7405C219.087 98.7093 219.149 98.6569 219.192 98.5901C219.235 98.5233 219.258 98.445 219.256 98.3654C219.256 98.2641 219.217 98.1668 219.147 98.0937C219.077 98.0207 218.981 97.9777 218.88 97.9737H218.865ZM224.939 97.9737C224.88 97.9567 224.817 97.9538 224.757 97.9651C224.696 97.9764 224.639 98.0017 224.589 98.0389C224.54 98.0761 224.5 98.1243 224.472 98.1796C224.445 98.2349 224.43 98.2959 224.43 98.3577C224.43 98.4195 224.445 98.4805 224.472 98.5358C224.5 98.5912 224.54 98.6393 224.589 98.6765C224.639 98.7138 224.696 98.739 224.757 98.7503C224.817 98.7616 224.88 98.7587 224.939 98.7417C224.999 98.7587 225.061 98.7616 225.122 98.7503C225.183 98.739 225.24 98.7138 225.29 98.6765C225.339 98.6393 225.379 98.5912 225.407 98.5358C225.434 98.4805 225.449 98.4195 225.449 98.3577C225.449 98.2959 225.434 98.2349 225.407 98.1796C225.379 98.1243 225.339 98.0761 225.29 98.0389C225.24 98.0017 225.183 97.9764 225.122 97.9651C225.061 97.9538 224.999 97.9567 224.939 97.9737ZM231.014 97.9737C230.935 97.9737 230.858 97.9974 230.792 98.0416C230.726 98.0858 230.675 98.1487 230.645 98.2221C230.615 98.2955 230.607 98.3762 230.623 98.4539C230.639 98.5315 230.678 98.6027 230.735 98.6582C230.791 98.7137 230.863 98.7511 230.941 98.7657C231.019 98.7802 231.1 98.7712 231.173 98.7398C231.245 98.7084 231.307 98.656 231.35 98.5893C231.393 98.5226 231.415 98.4447 231.414 98.3654C231.414 98.3133 231.403 98.2617 231.383 98.2137C231.363 98.1657 231.333 98.1222 231.296 98.0857C231.259 98.0492 231.215 98.0205 231.167 98.0013C231.118 97.9821 231.066 97.9727 231.014 97.9737ZM203.881 111.514C203.819 111.767 203.766 112.005 203.727 112.235C203.822 112.222 203.908 112.175 203.97 112.103C204.032 112.031 204.066 111.939 204.065 111.844C204.066 111.778 204.049 111.712 204.017 111.654C203.984 111.597 203.938 111.548 203.881 111.514ZM209.748 111.452C209.669 111.451 209.591 111.473 209.524 111.516C209.457 111.56 209.404 111.622 209.373 111.695C209.342 111.768 209.334 111.849 209.349 111.927C209.364 112.006 209.402 112.077 209.458 112.134C209.515 112.19 209.587 112.228 209.665 112.243C209.743 112.259 209.824 112.25 209.897 112.219C209.97 112.188 210.033 112.135 210.076 112.069C210.119 112.002 210.142 111.923 210.14 111.844C210.14 111.74 210.099 111.64 210.025 111.567C209.952 111.493 209.852 111.452 209.748 111.452ZM215.823 111.452C215.764 111.435 215.701 111.432 215.641 111.444C215.58 111.455 215.522 111.48 215.473 111.517C215.424 111.555 215.384 111.603 215.356 111.658C215.329 111.713 215.314 111.774 215.314 111.836C215.314 111.898 215.329 111.959 215.356 112.014C215.384 112.07 215.424 112.118 215.473 112.155C215.522 112.192 215.58 112.217 215.641 112.229C215.701 112.24 215.764 112.237 215.823 112.22C215.883 112.237 215.945 112.24 216.006 112.229C216.067 112.217 216.124 112.192 216.173 112.155C216.223 112.118 216.263 112.07 216.29 112.014C216.318 111.959 216.332 111.898 216.332 111.836C216.332 111.774 216.318 111.713 216.29 111.658C216.263 111.603 216.223 111.555 216.173 111.517C216.124 111.48 216.067 111.455 216.006 111.444C215.945 111.432 215.883 111.435 215.823 111.452ZM221.898 111.452C221.819 111.452 221.741 111.476 221.676 111.52C221.61 111.564 221.559 111.627 221.529 111.7C221.499 111.774 221.491 111.855 221.507 111.932C221.523 112.01 221.562 112.081 221.619 112.137C221.675 112.192 221.747 112.23 221.825 112.244C221.903 112.259 221.984 112.25 222.056 112.218C222.129 112.187 222.191 112.134 222.234 112.068C222.277 112.001 222.299 111.923 222.298 111.844C222.298 111.792 222.287 111.74 222.267 111.692C222.247 111.644 222.217 111.601 222.18 111.564C222.143 111.528 222.099 111.499 222.05 111.48C222.002 111.46 221.95 111.451 221.898 111.452ZM227.981 111.452C227.901 111.451 227.823 111.473 227.756 111.516C227.689 111.56 227.637 111.622 227.606 111.695C227.574 111.768 227.566 111.849 227.581 111.927C227.596 112.006 227.634 112.077 227.691 112.134C227.747 112.19 227.819 112.228 227.897 112.243C227.975 112.259 228.056 112.25 228.129 112.219C228.203 112.188 228.265 112.135 228.308 112.069C228.352 112.002 228.374 111.923 228.372 111.844C228.372 111.74 228.331 111.64 228.258 111.567C228.184 111.493 228.085 111.452 227.981 111.452ZM234.056 111.452C233.996 111.435 233.934 111.432 233.873 111.444C233.812 111.455 233.755 111.48 233.705 111.517C233.656 111.555 233.616 111.603 233.588 111.658C233.561 111.713 233.547 111.774 233.547 111.836C233.547 111.898 233.561 111.959 233.588 112.014C233.616 112.07 233.656 112.118 233.705 112.155C233.755 112.192 233.812 112.217 233.873 112.229C233.934 112.24 233.996 112.237 234.056 112.22C234.115 112.237 234.178 112.24 234.238 112.229C234.299 112.217 234.356 112.192 234.406 112.155C234.455 112.118 234.495 112.07 234.523 112.014C234.55 111.959 234.565 111.898 234.565 111.836C234.565 111.774 234.55 111.713 234.523 111.658C234.495 111.603 234.455 111.555 234.406 111.517C234.356 111.48 234.299 111.455 234.238 111.444C234.178 111.432 234.115 111.435 234.056 111.452ZM240.131 111.452C240.051 111.452 239.974 111.476 239.908 111.52C239.842 111.564 239.791 111.627 239.761 111.7C239.731 111.774 239.723 111.855 239.739 111.932C239.756 112.01 239.794 112.081 239.851 112.137C239.908 112.192 239.979 112.23 240.057 112.244C240.135 112.259 240.216 112.25 240.289 112.218C240.362 112.187 240.423 112.134 240.466 112.068C240.509 112.001 240.531 111.923 240.53 111.844C240.53 111.792 240.519 111.74 240.499 111.692C240.479 111.644 240.45 111.601 240.412 111.564C240.375 111.528 240.331 111.499 240.283 111.48C240.234 111.46 240.183 111.451 240.131 111.452ZM206.707 106.921C206.601 106.921 206.5 106.963 206.425 107.038C206.35 107.113 206.308 107.214 206.308 107.32C206.308 107.426 206.35 107.528 206.425 107.603C206.5 107.678 206.601 107.72 206.707 107.72C206.812 107.718 206.913 107.675 206.987 107.6C207.062 107.526 207.105 107.426 207.107 107.32C207.107 107.268 207.096 107.216 207.076 107.167C207.056 107.119 207.027 107.075 206.99 107.038C206.952 107.001 206.908 106.971 206.86 106.951C206.812 106.931 206.76 106.921 206.707 106.921ZM212.782 106.921C212.73 106.921 212.678 106.931 212.63 106.951C212.582 106.972 212.539 107.001 212.502 107.038C212.466 107.076 212.437 107.12 212.418 107.168C212.399 107.216 212.389 107.268 212.39 107.32C212.39 107.4 212.414 107.477 212.458 107.543C212.502 107.609 212.565 107.66 212.639 107.69C212.712 107.72 212.793 107.727 212.87 107.711C212.948 107.695 213.019 107.656 213.075 107.6C213.13 107.543 213.168 107.471 213.182 107.393C213.197 107.315 213.188 107.235 213.156 107.162C213.125 107.089 213.073 107.027 213.006 106.984C212.939 106.942 212.861 106.919 212.782 106.921ZM218.865 106.921C218.759 106.921 218.657 106.963 218.582 107.038C218.507 107.113 218.465 107.214 218.465 107.32C218.448 107.38 218.445 107.442 218.457 107.503C218.468 107.564 218.493 107.621 218.53 107.67C218.568 107.72 218.616 107.76 218.671 107.787C218.726 107.815 218.787 107.829 218.849 107.829C218.911 107.829 218.972 107.815 219.027 107.787C219.083 107.76 219.131 107.72 219.168 107.67C219.205 107.621 219.231 107.564 219.242 107.503C219.253 107.442 219.25 107.38 219.233 107.32C219.236 107.221 219.201 107.125 219.135 107.051C219.07 106.977 218.978 106.931 218.88 106.921H218.865ZM224.939 106.921C224.834 106.921 224.732 106.963 224.657 107.038C224.582 107.113 224.54 107.214 224.54 107.32C224.54 107.426 224.582 107.528 224.657 107.603C224.732 107.678 224.834 107.72 224.939 107.72C225.045 107.718 225.145 107.675 225.22 107.6C225.294 107.526 225.337 107.426 225.339 107.32C225.339 107.268 225.328 107.216 225.308 107.167C225.288 107.119 225.259 107.075 225.222 107.038C225.185 107.001 225.141 106.971 225.092 106.951C225.044 106.931 224.992 106.921 224.939 106.921ZM231.014 106.921C230.962 106.921 230.911 106.931 230.863 106.951C230.815 106.972 230.771 107.001 230.735 107.038C230.698 107.076 230.669 107.12 230.65 107.168C230.631 107.216 230.622 107.268 230.623 107.32C230.623 107.4 230.646 107.477 230.691 107.543C230.735 107.609 230.798 107.66 230.871 107.69C230.944 107.72 231.025 107.727 231.103 107.711C231.18 107.695 231.252 107.656 231.307 107.6C231.363 107.543 231.4 107.471 231.415 107.393C231.429 107.315 231.42 107.235 231.389 107.162C231.357 107.089 231.305 107.027 231.238 106.984C231.172 106.942 231.094 106.919 231.014 106.921ZM237.097 106.921C236.991 106.921 236.889 106.963 236.815 107.038C236.74 107.113 236.698 107.214 236.698 107.32C236.681 107.38 236.678 107.442 236.689 107.503C236.7 107.564 236.726 107.621 236.763 107.67C236.8 107.72 236.848 107.76 236.903 107.787C236.959 107.815 237.02 107.829 237.082 107.829C237.143 107.829 237.204 107.815 237.26 107.787C237.315 107.76 237.363 107.72 237.4 107.67C237.438 107.621 237.463 107.564 237.474 107.503C237.485 107.442 237.483 107.38 237.466 107.32C237.468 107.219 237.431 107.121 237.362 107.046C237.293 106.972 237.198 106.927 237.097 106.921ZM209.748 120.399C209.642 120.399 209.541 120.441 209.466 120.516C209.391 120.591 209.349 120.693 209.349 120.799C209.332 120.858 209.329 120.921 209.34 120.981C209.352 121.042 209.377 121.1 209.414 121.149C209.451 121.198 209.5 121.238 209.555 121.266C209.61 121.293 209.671 121.308 209.733 121.308C209.795 121.308 209.856 121.293 209.911 121.266C209.966 121.238 210.015 121.198 210.052 121.149C210.089 121.1 210.114 121.042 210.126 120.981C210.137 120.921 210.134 120.858 210.117 120.799C210.119 120.697 210.082 120.599 210.013 120.525C209.945 120.45 209.85 120.405 209.748 120.399ZM215.823 120.399C215.717 120.399 215.616 120.441 215.541 120.516C215.466 120.591 215.424 120.693 215.424 120.799C215.424 120.905 215.466 121.006 215.541 121.081C215.616 121.156 215.717 121.198 215.823 121.198C215.929 121.196 216.029 121.153 216.104 121.079C216.178 121.004 216.221 120.904 216.223 120.799C216.223 120.745 216.212 120.692 216.191 120.642C216.17 120.593 216.139 120.548 216.1 120.511C216.062 120.473 216.016 120.444 215.965 120.425C215.915 120.406 215.862 120.397 215.808 120.399H215.823ZM221.898 120.399C221.846 120.399 221.795 120.41 221.746 120.43C221.698 120.45 221.655 120.48 221.618 120.517C221.582 120.554 221.553 120.598 221.534 120.646C221.515 120.695 221.505 120.747 221.507 120.799C221.507 120.878 221.53 120.955 221.574 121.021C221.619 121.087 221.681 121.138 221.755 121.168C221.828 121.198 221.909 121.206 221.987 121.19C222.064 121.174 222.135 121.135 222.191 121.078C222.247 121.022 222.284 120.95 222.298 120.872C222.313 120.794 222.304 120.713 222.273 120.64C222.241 120.568 222.189 120.506 222.122 120.463C222.055 120.42 221.977 120.398 221.898 120.399ZM227.981 120.399C227.875 120.399 227.773 120.441 227.698 120.516C227.623 120.591 227.581 120.693 227.581 120.799C227.564 120.858 227.561 120.921 227.573 120.981C227.584 121.042 227.609 121.1 227.647 121.149C227.684 121.198 227.732 121.238 227.787 121.266C227.843 121.293 227.904 121.308 227.965 121.308C228.027 121.308 228.088 121.293 228.143 121.266C228.199 121.238 228.247 121.198 228.284 121.149C228.321 121.1 228.347 121.042 228.358 120.981C228.369 120.921 228.366 120.858 228.349 120.799C228.352 120.697 228.314 120.599 228.246 120.525C228.177 120.45 228.082 120.405 227.981 120.399ZM234.056 120.399C233.95 120.399 233.848 120.441 233.773 120.516C233.698 120.591 233.656 120.693 233.656 120.799C233.656 120.905 233.698 121.006 233.773 121.081C233.848 121.156 233.95 121.198 234.056 121.198C234.161 121.196 234.261 121.153 234.336 121.079C234.41 121.004 234.453 120.904 234.455 120.799C234.455 120.746 234.445 120.694 234.425 120.646C234.405 120.597 234.375 120.553 234.338 120.516C234.301 120.479 234.257 120.45 234.208 120.43C234.16 120.41 234.108 120.399 234.056 120.399ZM240.131 120.399C240.078 120.399 240.027 120.41 239.979 120.43C239.931 120.45 239.887 120.48 239.851 120.517C239.814 120.554 239.786 120.598 239.766 120.646C239.747 120.695 239.738 120.747 239.739 120.799C239.739 120.878 239.762 120.955 239.807 121.021C239.851 121.087 239.914 121.138 239.987 121.168C240.061 121.198 240.141 121.206 240.219 121.19C240.297 121.174 240.368 121.135 240.423 121.078C240.479 121.022 240.516 120.95 240.531 120.872C240.545 120.794 240.536 120.713 240.505 120.64C240.473 120.568 240.421 120.506 240.354 120.463C240.288 120.42 240.21 120.398 240.131 120.399ZM206.707 115.876C206.648 115.859 206.585 115.856 206.524 115.867C206.464 115.878 206.406 115.904 206.357 115.941C206.308 115.978 206.268 116.026 206.24 116.082C206.212 116.137 206.198 116.198 206.198 116.26C206.198 116.322 206.212 116.383 206.24 116.438C206.268 116.493 206.308 116.541 206.357 116.579C206.406 116.616 206.464 116.641 206.524 116.652C206.585 116.664 206.648 116.661 206.707 116.644C206.767 116.661 206.829 116.664 206.89 116.652C206.951 116.641 207.008 116.616 207.057 116.579C207.107 116.541 207.147 116.493 207.174 116.438C207.202 116.383 207.216 116.322 207.216 116.26C207.216 116.198 207.202 116.137 207.174 116.082C207.147 116.026 207.107 115.978 207.057 115.941C207.008 115.904 206.951 115.878 206.89 115.867C206.829 115.856 206.767 115.859 206.707 115.876ZM212.782 115.876C212.703 115.876 212.625 115.899 212.559 115.944C212.494 115.988 212.442 116.051 212.412 116.124C212.382 116.198 212.375 116.278 212.391 116.356C212.407 116.434 212.446 116.505 212.502 116.56C212.559 116.616 212.631 116.653 212.709 116.668C212.787 116.682 212.867 116.673 212.94 116.642C213.013 116.61 213.075 116.558 213.118 116.491C213.161 116.425 213.183 116.347 213.181 116.267C213.181 116.215 213.171 116.164 213.151 116.116C213.131 116.068 213.101 116.024 213.064 115.988C213.027 115.951 212.983 115.923 212.934 115.903C212.886 115.884 212.834 115.875 212.782 115.876ZM218.865 115.876C218.785 115.874 218.707 115.897 218.64 115.94C218.573 115.983 218.521 116.045 218.489 116.119C218.458 116.192 218.45 116.273 218.465 116.351C218.48 116.429 218.518 116.501 218.575 116.557C218.631 116.614 218.703 116.652 218.781 116.667C218.859 116.682 218.94 116.674 219.013 116.643C219.087 116.611 219.149 116.559 219.192 116.492C219.235 116.425 219.258 116.347 219.256 116.267C219.256 116.166 219.217 116.069 219.147 115.996C219.077 115.923 218.981 115.88 218.88 115.876H218.865ZM224.939 115.876C224.88 115.859 224.817 115.856 224.757 115.867C224.696 115.878 224.639 115.904 224.589 115.941C224.54 115.978 224.5 116.026 224.472 116.082C224.445 116.137 224.43 116.198 224.43 116.26C224.43 116.322 224.445 116.383 224.472 116.438C224.5 116.493 224.54 116.541 224.589 116.579C224.639 116.616 224.696 116.641 224.757 116.652C224.817 116.664 224.88 116.661 224.939 116.644C224.999 116.661 225.061 116.664 225.122 116.652C225.183 116.641 225.24 116.616 225.29 116.579C225.339 116.541 225.379 116.493 225.407 116.438C225.434 116.383 225.449 116.322 225.449 116.26C225.449 116.198 225.434 116.137 225.407 116.082C225.379 116.026 225.339 115.978 225.29 115.941C225.24 115.904 225.183 115.878 225.122 115.867C225.061 115.856 224.999 115.859 224.939 115.876ZM231.014 115.876C230.935 115.876 230.858 115.899 230.792 115.944C230.726 115.988 230.675 116.051 230.645 116.124C230.615 116.198 230.607 116.278 230.623 116.356C230.639 116.434 230.678 116.505 230.735 116.56C230.791 116.616 230.863 116.653 230.941 116.668C231.019 116.682 231.1 116.673 231.173 116.642C231.245 116.61 231.307 116.558 231.35 116.491C231.393 116.425 231.415 116.347 231.414 116.267C231.414 116.215 231.403 116.164 231.383 116.116C231.363 116.068 231.333 116.024 231.296 115.988C231.259 115.951 231.215 115.923 231.167 115.903C231.118 115.884 231.066 115.875 231.014 115.876ZM237.097 115.876C237.017 115.874 236.939 115.897 236.872 115.94C236.805 115.983 236.753 116.045 236.722 116.119C236.691 116.192 236.682 116.273 236.697 116.351C236.712 116.429 236.751 116.501 236.807 116.557C236.863 116.614 236.935 116.652 237.013 116.667C237.091 116.682 237.172 116.674 237.246 116.643C237.319 116.611 237.381 116.559 237.424 116.492C237.468 116.425 237.49 116.347 237.489 116.267C237.489 116.216 237.478 116.165 237.459 116.118C237.439 116.07 237.41 116.027 237.374 115.991C237.337 115.954 237.294 115.925 237.247 115.906C237.199 115.886 237.148 115.876 237.097 115.876ZM243.241 115.876H243.133C243.063 115.875 242.993 115.893 242.932 115.928C242.87 115.963 242.819 116.013 242.784 116.074C242.748 116.135 242.729 116.205 242.729 116.276C242.73 116.346 242.748 116.416 242.784 116.477C242.82 116.538 242.871 116.588 242.932 116.623C242.994 116.658 243.064 116.675 243.134 116.674C243.205 116.673 243.274 116.654 243.335 116.617C243.395 116.581 243.445 116.529 243.479 116.467C243.456 116.275 243.364 116.083 243.279 115.891L243.241 115.876ZM209.71 129.339C209.63 129.337 209.552 129.36 209.485 129.403C209.418 129.446 209.366 129.509 209.335 129.582C209.304 129.655 209.295 129.736 209.31 129.814C209.326 129.892 209.364 129.964 209.42 130.021C209.476 130.077 209.548 130.115 209.626 130.13C209.705 130.145 209.785 130.137 209.859 130.106C209.932 130.074 209.994 130.022 210.038 129.955C210.081 129.888 210.103 129.81 210.102 129.731C210.098 129.636 210.061 129.545 209.996 129.476C209.931 129.407 209.843 129.363 209.748 129.354L209.71 129.339ZM215.785 129.339C215.725 129.322 215.663 129.319 215.602 129.33C215.541 129.342 215.484 129.367 215.435 129.404C215.385 129.441 215.345 129.489 215.318 129.545C215.29 129.6 215.276 129.661 215.276 129.723C215.276 129.785 215.29 129.846 215.318 129.901C215.345 129.956 215.385 130.004 215.435 130.042C215.484 130.079 215.541 130.104 215.602 130.115C215.663 130.127 215.725 130.124 215.785 130.107C215.844 130.124 215.907 130.127 215.968 130.115C216.028 130.104 216.086 130.079 216.135 130.042C216.184 130.004 216.224 129.956 216.252 129.901C216.28 129.846 216.294 129.785 216.294 129.723C216.294 129.661 216.28 129.6 216.252 129.545C216.224 129.489 216.184 129.441 216.135 129.404C216.086 129.367 216.028 129.342 215.968 129.33C215.907 129.319 215.844 129.322 215.785 129.339ZM221.86 129.339C221.78 129.339 221.703 129.362 221.637 129.407C221.571 129.451 221.52 129.514 221.49 129.587C221.46 129.661 221.453 129.741 221.469 129.819C221.485 129.897 221.524 129.968 221.58 130.023C221.637 130.079 221.709 130.116 221.787 130.131C221.865 130.145 221.945 130.136 222.018 130.105C222.091 130.074 222.153 130.021 222.196 129.954C222.239 129.888 222.261 129.81 222.259 129.731C222.256 129.634 222.217 129.543 222.15 129.474C222.084 129.404 221.994 129.362 221.898 129.354L221.86 129.339ZM227.942 129.339C227.863 129.337 227.784 129.36 227.718 129.403C227.651 129.446 227.598 129.509 227.567 129.582C227.536 129.655 227.528 129.736 227.543 129.814C227.558 129.892 227.596 129.964 227.652 130.021C227.709 130.077 227.781 130.115 227.859 130.13C227.937 130.145 228.018 130.137 228.091 130.106C228.164 130.074 228.227 130.022 228.27 129.955C228.313 129.888 228.336 129.81 228.334 129.731C228.331 129.636 228.293 129.545 228.228 129.476C228.163 129.407 228.075 129.363 227.981 129.354L227.942 129.339ZM234.017 129.339C233.958 129.322 233.895 129.319 233.834 129.33C233.774 129.342 233.716 129.367 233.667 129.404C233.618 129.441 233.578 129.489 233.55 129.545C233.523 129.6 233.508 129.661 233.508 129.723C233.508 129.785 233.523 129.846 233.55 129.901C233.578 129.956 233.618 130.004 233.667 130.042C233.716 130.079 233.774 130.104 233.834 130.115C233.895 130.127 233.958 130.124 234.017 130.107C234.077 130.124 234.139 130.127 234.2 130.115C234.261 130.104 234.318 130.079 234.367 130.042C234.417 130.004 234.457 129.956 234.484 129.901C234.512 129.846 234.526 129.785 234.526 129.723C234.526 129.661 234.512 129.6 234.484 129.545C234.457 129.489 234.417 129.441 234.367 129.404C234.318 129.367 234.261 129.342 234.2 129.33C234.139 129.319 234.077 129.322 234.017 129.339ZM240.092 129.339C240.013 129.339 239.935 129.362 239.869 129.407C239.804 129.451 239.752 129.514 239.722 129.587C239.692 129.661 239.685 129.741 239.701 129.819C239.717 129.897 239.756 129.968 239.813 130.023C239.869 130.079 239.941 130.116 240.019 130.131C240.097 130.145 240.178 130.136 240.25 130.105C240.323 130.074 240.385 130.021 240.428 129.954C240.471 129.888 240.493 129.81 240.491 129.731C240.488 129.634 240.449 129.543 240.383 129.474C240.316 129.404 240.226 129.362 240.131 129.354L240.092 129.339ZM246.175 129.339C246.095 129.337 246.017 129.36 245.95 129.403C245.883 129.446 245.831 129.509 245.8 129.582C245.768 129.655 245.76 129.736 245.775 129.814C245.79 129.892 245.828 129.964 245.885 130.021C245.941 130.077 246.013 130.115 246.091 130.13C246.169 130.145 246.25 130.137 246.323 130.106C246.397 130.074 246.459 130.022 246.502 129.955C246.546 129.888 246.568 129.81 246.566 129.731C246.563 129.636 246.525 129.545 246.46 129.476C246.395 129.407 246.308 129.363 246.213 129.354L246.175 129.339ZM206.669 124.808C206.563 124.808 206.461 124.85 206.386 124.925C206.311 125 206.269 125.101 206.269 125.207C206.269 125.313 206.311 125.414 206.386 125.489C206.461 125.564 206.563 125.606 206.669 125.606C206.774 125.604 206.874 125.562 206.949 125.487C207.023 125.413 207.066 125.312 207.068 125.207C207.065 125.11 207.026 125.018 206.96 124.947C206.894 124.876 206.804 124.832 206.707 124.823L206.669 124.808ZM212.744 124.808C212.692 124.808 212.64 124.818 212.592 124.838C212.544 124.858 212.5 124.888 212.464 124.925C212.427 124.962 212.399 125.006 212.38 125.055C212.36 125.103 212.351 125.155 212.352 125.207C212.352 125.286 212.376 125.364 212.42 125.43C212.464 125.495 212.527 125.547 212.6 125.577C212.674 125.607 212.754 125.614 212.832 125.598C212.91 125.582 212.981 125.543 213.036 125.487C213.092 125.43 213.129 125.358 213.144 125.28C213.158 125.202 213.149 125.122 213.118 125.049C213.087 124.976 213.034 124.914 212.968 124.871C212.901 124.828 212.823 124.806 212.744 124.808ZM218.826 124.808C218.72 124.808 218.619 124.85 218.544 124.925C218.469 125 218.427 125.101 218.427 125.207C218.41 125.266 218.407 125.329 218.418 125.39C218.43 125.451 218.455 125.508 218.492 125.557C218.529 125.607 218.577 125.647 218.633 125.674C218.688 125.702 218.749 125.716 218.811 125.716C218.873 125.716 218.934 125.702 218.989 125.674C219.044 125.647 219.092 125.607 219.13 125.557C219.167 125.508 219.192 125.451 219.203 125.39C219.215 125.329 219.212 125.266 219.195 125.207C219.195 125.116 219.163 125.029 219.106 124.959C219.049 124.889 218.969 124.841 218.88 124.823L218.826 124.808ZM224.901 124.808C224.795 124.808 224.694 124.85 224.619 124.925C224.544 125 224.502 125.101 224.502 125.207C224.502 125.313 224.544 125.414 224.619 125.489C224.694 125.564 224.795 125.606 224.901 125.606C225.006 125.604 225.107 125.562 225.181 125.487C225.256 125.413 225.298 125.312 225.3 125.207C225.297 125.11 225.259 125.018 225.192 124.947C225.126 124.876 225.036 124.832 224.939 124.823L224.901 124.808ZM230.976 124.808C230.924 124.808 230.872 124.818 230.824 124.838C230.776 124.858 230.733 124.888 230.696 124.925C230.66 124.962 230.631 125.006 230.612 125.055C230.593 125.103 230.583 125.155 230.584 125.207C230.584 125.286 230.608 125.364 230.652 125.43C230.696 125.495 230.759 125.547 230.833 125.577C230.906 125.607 230.987 125.614 231.064 125.598C231.142 125.582 231.213 125.543 231.269 125.487C231.324 125.43 231.362 125.358 231.376 125.28C231.391 125.202 231.382 125.122 231.35 125.049C231.319 124.976 231.267 124.914 231.2 124.871C231.133 124.828 231.055 124.806 230.976 124.808ZM237.059 124.808C236.953 124.808 236.851 124.85 236.776 124.925C236.701 125 236.659 125.101 236.659 125.207C236.642 125.266 236.639 125.329 236.651 125.39C236.662 125.451 236.687 125.508 236.724 125.557C236.762 125.607 236.81 125.647 236.865 125.674C236.92 125.702 236.981 125.716 237.043 125.716C237.105 125.716 237.166 125.702 237.221 125.674C237.277 125.647 237.325 125.607 237.362 125.557C237.399 125.508 237.424 125.451 237.436 125.39C237.447 125.329 237.444 125.266 237.427 125.207C237.426 125.114 237.393 125.025 237.332 124.954C237.272 124.884 237.189 124.838 237.097 124.823L237.059 124.808ZM243.133 124.808C243.027 124.808 242.926 124.85 242.851 124.925C242.776 125 242.734 125.101 242.734 125.207C242.734 125.313 242.776 125.414 242.851 125.489C242.926 125.564 243.027 125.606 243.133 125.606C243.239 125.604 243.339 125.562 243.414 125.487C243.488 125.413 243.531 125.312 243.533 125.207C243.529 125.11 243.491 125.018 243.425 124.947C243.358 124.876 243.268 124.832 243.172 124.823L243.133 124.808ZM209.71 138.286C209.658 138.286 209.606 138.296 209.557 138.316C209.509 138.337 209.465 138.366 209.428 138.403C209.391 138.44 209.361 138.484 209.341 138.533C209.321 138.581 209.311 138.633 209.311 138.685C209.294 138.745 209.291 138.807 209.302 138.868C209.313 138.929 209.339 138.986 209.376 139.036C209.413 139.085 209.461 139.125 209.517 139.153C209.572 139.18 209.633 139.194 209.695 139.194C209.756 139.194 209.817 139.18 209.873 139.153C209.928 139.125 209.976 139.085 210.013 139.036C210.051 138.986 210.076 138.929 210.087 138.868C210.099 138.807 210.096 138.745 210.079 138.685C210.078 138.593 210.044 138.503 209.984 138.433C209.923 138.363 209.84 138.316 209.748 138.301L209.71 138.286ZM215.785 138.286C215.679 138.286 215.577 138.328 215.503 138.403C215.428 138.478 215.386 138.579 215.386 138.685C215.386 138.791 215.428 138.893 215.503 138.968C215.577 139.043 215.679 139.085 215.785 139.085C215.89 139.083 215.991 139.04 216.065 138.966C216.14 138.891 216.182 138.791 216.184 138.685C216.181 138.586 216.14 138.492 216.07 138.421C216.001 138.35 215.907 138.307 215.808 138.301L215.785 138.286ZM221.86 138.286C221.808 138.286 221.756 138.296 221.708 138.317C221.66 138.337 221.617 138.366 221.58 138.403C221.544 138.441 221.515 138.485 221.496 138.533C221.476 138.582 221.467 138.633 221.468 138.685C221.468 138.765 221.492 138.842 221.536 138.908C221.58 138.974 221.643 139.025 221.716 139.055C221.79 139.085 221.871 139.092 221.948 139.076C222.026 139.06 222.097 139.022 222.153 138.965C222.208 138.908 222.246 138.836 222.26 138.758C222.275 138.681 222.266 138.6 222.234 138.527C222.203 138.454 222.15 138.393 222.084 138.35C222.017 138.307 221.939 138.285 221.86 138.286ZM227.942 138.286C227.89 138.286 227.838 138.296 227.79 138.316C227.741 138.337 227.697 138.366 227.66 138.403C227.623 138.44 227.593 138.484 227.573 138.533C227.553 138.581 227.543 138.633 227.543 138.685C227.526 138.745 227.523 138.807 227.534 138.868C227.546 138.929 227.571 138.986 227.608 139.036C227.645 139.085 227.694 139.125 227.749 139.153C227.804 139.18 227.865 139.194 227.927 139.194C227.989 139.194 228.05 139.18 228.105 139.153C228.16 139.125 228.209 139.085 228.246 139.036C228.283 138.986 228.308 138.929 228.32 138.868C228.331 138.807 228.328 138.745 228.311 138.685C228.31 138.593 228.277 138.503 228.216 138.433C228.156 138.363 228.072 138.316 227.981 138.301L227.942 138.286ZM234.017 138.286C233.965 138.286 233.913 138.296 233.864 138.316C233.816 138.337 233.772 138.366 233.735 138.403C233.698 138.44 233.668 138.484 233.648 138.533C233.628 138.581 233.618 138.633 233.618 138.685C233.618 138.791 233.66 138.893 233.735 138.968C233.81 139.043 233.911 139.085 234.017 139.085C234.123 139.083 234.223 139.04 234.297 138.966C234.372 138.891 234.415 138.791 234.417 138.685C234.413 138.588 234.375 138.496 234.308 138.425C234.242 138.355 234.152 138.311 234.056 138.301L234.017 138.286ZM240.092 138.286C240.04 138.286 239.988 138.296 239.94 138.317C239.892 138.337 239.849 138.366 239.812 138.403C239.776 138.441 239.747 138.485 239.728 138.533C239.709 138.582 239.699 138.633 239.7 138.685C239.7 138.765 239.724 138.842 239.768 138.908C239.813 138.974 239.875 139.025 239.949 139.055C240.022 139.085 240.103 139.092 240.181 139.076C240.258 139.06 240.329 139.022 240.385 138.965C240.44 138.908 240.478 138.836 240.492 138.758C240.507 138.681 240.498 138.6 240.466 138.527C240.435 138.454 240.383 138.393 240.316 138.35C240.249 138.307 240.171 138.285 240.092 138.286ZM246.175 138.286C246.069 138.286 245.967 138.328 245.892 138.403C245.817 138.478 245.775 138.579 245.775 138.685C245.774 138.753 245.793 138.82 245.829 138.877L246.551 138.586C246.531 138.509 246.487 138.441 246.427 138.39C246.366 138.339 246.292 138.308 246.213 138.301L246.175 138.286ZM206.669 133.763C206.609 133.746 206.547 133.743 206.486 133.754C206.425 133.765 206.368 133.79 206.319 133.828C206.269 133.865 206.229 133.913 206.202 133.968C206.174 134.024 206.16 134.085 206.16 134.147C206.16 134.208 206.174 134.269 206.202 134.325C206.229 134.38 206.269 134.428 206.319 134.465C206.368 134.503 206.425 134.528 206.486 134.539C206.547 134.55 206.609 134.547 206.669 134.531C206.728 134.547 206.791 134.55 206.852 134.539C206.912 134.528 206.97 134.503 207.019 134.465C207.068 134.428 207.108 134.38 207.136 134.325C207.163 134.269 207.178 134.208 207.178 134.147C207.178 134.085 207.163 134.024 207.136 133.968C207.108 133.913 207.068 133.865 207.019 133.828C206.97 133.79 206.912 133.765 206.852 133.754C206.791 133.743 206.728 133.746 206.669 133.763ZM212.744 133.763C212.664 133.763 212.587 133.786 212.521 133.83C212.455 133.875 212.404 133.937 212.374 134.011C212.344 134.084 212.337 134.165 212.353 134.243C212.369 134.32 212.407 134.391 212.464 134.447C212.521 134.503 212.593 134.54 212.671 134.554C212.748 134.569 212.829 134.56 212.902 134.529C212.975 134.497 213.036 134.445 213.079 134.378C213.122 134.311 213.145 134.233 213.143 134.154C213.14 134.058 213.101 133.967 213.034 133.897C212.968 133.828 212.878 133.785 212.782 133.778L212.744 133.763ZM218.826 133.763C218.747 133.761 218.668 133.783 218.601 133.827C218.535 133.87 218.482 133.932 218.451 134.005C218.42 134.079 218.411 134.16 218.427 134.238C218.442 134.316 218.48 134.388 218.536 134.444C218.592 134.501 218.664 134.539 218.743 134.554C218.821 134.569 218.902 134.56 218.975 134.529C219.048 134.498 219.11 134.446 219.154 134.379C219.197 134.312 219.219 134.234 219.218 134.154C219.215 134.062 219.18 133.973 219.118 133.904C219.056 133.835 218.972 133.791 218.88 133.778L218.826 133.763ZM224.901 133.763C224.842 133.746 224.779 133.743 224.718 133.754C224.658 133.765 224.6 133.79 224.551 133.828C224.502 133.865 224.461 133.913 224.434 133.968C224.406 134.024 224.392 134.085 224.392 134.147C224.392 134.208 224.406 134.269 224.434 134.325C224.461 134.38 224.502 134.428 224.551 134.465C224.6 134.503 224.658 134.528 224.718 134.539C224.779 134.55 224.842 134.547 224.901 134.531C224.96 134.547 225.023 134.55 225.084 134.539C225.145 134.528 225.202 134.503 225.251 134.465C225.301 134.428 225.341 134.38 225.368 134.325C225.396 134.269 225.41 134.208 225.41 134.147C225.41 134.085 225.396 134.024 225.368 133.968C225.341 133.913 225.301 133.865 225.251 133.828C225.202 133.79 225.145 133.765 225.084 133.754C225.023 133.743 224.96 133.746 224.901 133.763ZM230.976 133.763C230.897 133.763 230.819 133.786 230.753 133.83C230.687 133.875 230.636 133.937 230.606 134.011C230.576 134.084 230.569 134.165 230.585 134.243C230.601 134.32 230.64 134.391 230.696 134.447C230.753 134.503 230.825 134.54 230.903 134.554C230.981 134.569 231.061 134.56 231.134 134.529C231.207 134.497 231.269 134.445 231.312 134.378C231.355 134.311 231.377 134.233 231.375 134.154C231.372 134.058 231.333 133.967 231.267 133.897C231.2 133.828 231.11 133.785 231.014 133.778L230.976 133.763ZM237.059 133.763C236.979 133.761 236.901 133.783 236.834 133.827C236.767 133.87 236.715 133.932 236.683 134.005C236.652 134.079 236.644 134.16 236.659 134.238C236.674 134.316 236.712 134.388 236.768 134.444C236.825 134.501 236.897 134.539 236.975 134.554C237.053 134.569 237.134 134.56 237.207 134.529C237.281 134.498 237.343 134.446 237.386 134.379C237.429 134.312 237.452 134.234 237.45 134.154C237.447 134.059 237.409 133.969 237.344 133.9C237.279 133.83 237.191 133.787 237.097 133.778L237.059 133.763ZM243.133 133.763C243.074 133.746 243.011 133.743 242.951 133.754C242.89 133.765 242.833 133.79 242.783 133.828C242.734 133.865 242.694 133.913 242.666 133.968C242.639 134.024 242.624 134.085 242.624 134.147C242.624 134.208 242.639 134.269 242.666 134.325C242.694 134.38 242.734 134.428 242.783 134.465C242.833 134.503 242.89 134.528 242.951 134.539C243.011 134.55 243.074 134.547 243.133 134.531C243.193 134.547 243.255 134.55 243.316 134.539C243.377 134.528 243.434 134.503 243.484 134.465C243.533 134.428 243.573 134.38 243.601 134.325C243.628 134.269 243.642 134.208 243.642 134.147C243.642 134.085 243.628 134.024 243.601 133.968C243.573 133.913 243.533 133.865 243.484 133.828C243.434 133.79 243.377 133.765 243.316 133.754C243.255 133.743 243.193 133.746 243.133 133.763ZM249.208 133.763C249.129 133.763 249.051 133.786 248.986 133.83C248.92 133.875 248.869 133.937 248.839 134.011C248.809 134.084 248.801 134.165 248.817 134.243C248.833 134.32 248.872 134.391 248.929 134.447C248.985 134.503 249.057 134.54 249.135 134.554C249.213 134.569 249.294 134.56 249.366 134.529C249.439 134.497 249.501 134.445 249.544 134.378C249.587 134.311 249.609 134.233 249.608 134.154C249.604 134.058 249.565 133.967 249.499 133.897C249.432 133.828 249.343 133.785 249.247 133.778L249.208 133.763Z" fill="white"/>
<path d="M251.005 136.374C245.476 139.653 238.994 141.397 232.681 142.157C229.747 127.165 224.755 97.5437 223.58 90.5472C225.124 90.9953 226.582 91.6959 227.896 92.6208C231.111 94.954 233.847 97.8849 235.953 101.253C242.865 111.829 251.005 136.374 251.005 136.374Z" fill="#263238"/>
<path d="M233.219 96.4916C243.302 108.012 257.242 127.803 251.942 132.757C243.226 140.89 216.614 146.965 210.509 148.117C207.867 148.608 201.423 131.551 203.059 129.193C204.695 126.835 233.011 123.418 233.088 121.659C233.142 120.668 229.194 112.335 225.746 101.96C221.76 89.9789 230.331 93.1815 233.219 96.4916Z" fill="#EB9481"/>
<path d="M207.621 127.442C207.621 127.442 199.465 127.903 194.143 128.456C191.17 128.763 186.132 129.746 184.051 130.967C180.979 132.795 169.121 142.433 171.394 145.352C173.453 147.994 182.561 138.44 182.561 138.44C182.561 138.44 172.516 147.287 175.588 150.006C178.66 152.724 187.499 140.544 187.499 140.544C187.499 140.544 177.385 149.86 180.987 152.171C183.713 153.915 192.353 143.332 192.353 143.332C192.353 143.332 183.713 151.403 186.44 153.316C189.45 155.428 198.036 146.166 198.036 146.166C205.778 149.868 210.985 148.47 214.564 147.018C215.432 146.688 207.621 127.442 207.621 127.442Z" fill="#EB9481"/>
<path d="M185.856 135.168C184.643 136.159 183.398 137.165 182.277 138.24C181.156 139.315 180.065 140.483 179.044 141.681C177.686 143.226 176.508 144.922 175.534 146.734C177.5 143.662 181.463 139.638 182.592 138.54C183.721 137.441 184.781 136.282 185.902 135.183C185.917 135.168 185.856 135.122 185.856 135.168Z" fill="#263238"/>
<path d="M189.896 139.131C188.36 140.475 186.824 141.742 185.418 143.155C184.013 144.568 182.746 146.004 181.409 147.502C181.309 147.617 181.409 147.633 181.509 147.502C182.899 146.066 184.297 144.837 185.71 143.416C187.123 141.996 188.475 140.513 189.926 139.146C189.949 139.146 189.919 139.108 189.896 139.131Z" fill="#263238"/>
<path d="M193.981 141.934C191.633 143.931 189.496 146.165 187.607 148.6C187.507 148.723 187.607 148.731 187.745 148.6C189.819 146.342 191.432 144.553 194.05 141.995C194.097 141.972 194.035 141.888 193.981 141.934Z" fill="#263238"/>
<path d="M202.099 127.734C198.374 127.949 194.557 128.172 190.863 128.694C187.658 129.051 184.592 130.205 181.947 132.05C179.454 133.983 177.14 136.137 175.035 138.486C173.824 139.672 172.748 140.988 171.825 142.41C171.31 143.278 170.557 144.645 171.379 145.482C172.378 146.534 175.741 145.229 179.144 141.719C179.267 141.596 179.182 141.527 179.051 141.642C174.244 146.089 172.186 145.743 171.61 145.068C171.241 144.637 171.517 143.823 171.786 143.201C172.228 142.3 172.783 141.458 173.437 140.698C175.6 138.047 178.03 135.625 180.687 133.471C183.536 131.074 187.006 129.532 190.694 129.024C194.473 128.471 198.374 128.517 202.122 127.91C202.199 127.864 202.176 127.734 202.099 127.734Z" fill="#263238"/>
<path d="M245.222 110.408L227.904 111.429C226.516 107.463 225.445 103.392 224.701 99.2564C224.655 99.0106 224.617 98.7649 224.578 98.5345C224.578 98.4577 224.578 98.3885 224.578 98.3194C223.603 91.945 225.592 90.1786 231.759 95.1245C234.681 97.4994 237.368 100.148 239.785 103.035L240.008 103.296C241.175 104.678 242.158 105.961 242.949 107.044C243.11 107.267 243.272 107.482 243.41 107.689C244.577 109.333 245.222 110.408 245.222 110.408Z" fill="#06729D"/>
<path d="M228.372 93.9418C228.374 94.0214 228.352 94.0997 228.308 94.1665C228.265 94.2334 228.203 94.2857 228.129 94.3169C228.056 94.3481 227.975 94.3566 227.897 94.3415C227.819 94.3263 227.747 94.2881 227.691 94.2318C227.634 94.1755 227.596 94.1036 227.581 94.0255C227.566 93.9473 227.574 93.8664 227.606 93.7931C227.637 93.7198 227.689 93.6575 227.756 93.6142C227.823 93.5709 227.901 93.5486 227.981 93.5501C228.085 93.5501 228.184 93.5914 228.258 93.6648C228.331 93.7383 228.372 93.8379 228.372 93.9418Z" fill="white"/>
<path d="M228.372 102.912C228.372 102.991 228.349 103.069 228.304 103.135C228.26 103.2 228.197 103.252 228.124 103.282C228.051 103.312 227.97 103.319 227.892 103.303C227.815 103.287 227.743 103.248 227.688 103.192C227.632 103.135 227.595 103.063 227.58 102.985C227.566 102.907 227.575 102.827 227.606 102.754C227.638 102.681 227.69 102.619 227.757 102.576C227.823 102.533 227.901 102.511 227.981 102.513C228.033 102.513 228.084 102.523 228.132 102.543C228.18 102.563 228.224 102.593 228.26 102.63C228.297 102.667 228.326 102.711 228.345 102.76C228.364 102.808 228.373 102.86 228.372 102.912Z" fill="white"/>
<path d="M234.056 103.296C234.276 103.296 234.455 103.117 234.455 102.897C234.455 102.676 234.276 102.497 234.056 102.497C233.835 102.497 233.656 102.676 233.656 102.897C233.656 103.117 233.835 103.296 234.056 103.296Z" fill="white"/>
<path d="M224.94 98.7649C225.16 98.7649 225.339 98.586 225.339 98.3655C225.339 98.1449 225.16 97.9661 224.94 97.9661C224.719 97.9661 224.54 98.1449 224.54 98.3655C224.54 98.586 224.719 98.7649 224.94 98.7649Z" fill="white"/>
<path d="M231.014 98.7649C231.235 98.7649 231.414 98.586 231.414 98.3655C231.414 98.1449 231.235 97.9661 231.014 97.9661C230.794 97.9661 230.615 98.1449 230.615 98.3655C230.615 98.586 230.794 98.7649 231.014 98.7649Z" fill="white"/>
<path d="M231.014 107.72C231.235 107.72 231.414 107.541 231.414 107.32C231.414 107.1 231.235 106.921 231.014 106.921C230.794 106.921 230.615 107.1 230.615 107.32C230.615 107.541 230.794 107.72 231.014 107.72Z" fill="white"/>
<path d="M237.097 107.72C237.318 107.72 237.496 107.541 237.496 107.32C237.496 107.1 237.318 106.921 237.097 106.921C236.876 106.921 236.698 107.1 236.698 107.32C236.698 107.541 236.876 107.72 237.097 107.72Z" fill="white"/>
<path d="M243.379 107.658C243.317 107.698 243.245 107.719 243.172 107.72C243.066 107.72 242.964 107.678 242.889 107.603C242.815 107.528 242.773 107.426 242.773 107.32C242.772 107.261 242.784 107.203 242.81 107.15C242.835 107.096 242.872 107.05 242.918 107.013C243.08 107.236 243.241 107.451 243.379 107.658Z" fill="white"/>
<path d="M217.774 62.976C216.814 62.615 215.892 57.2314 219.441 54.6662C222.989 52.1011 227.512 55.0272 225.585 59.4432C224.41 62.208 219.817 63.744 217.774 62.976Z" fill="#263238"/>
<path d="M227.896 92.6208L227.843 92.6822C225.016 95.7082 219.325 101.199 215.516 100.723C214.388 100.539 213.312 100.119 212.358 99.4904C211.404 98.8617 210.593 98.0387 209.979 97.0752C211.105 95.6526 212.332 94.3129 213.65 93.0662C218.112 88.4352 223.235 89.449 227.896 92.6208Z" fill="#EB9481"/>
<path d="M222.428 91.7837C222.367 92.6054 219.356 98.3577 215.723 98.7571C214.533 98.88 213.542 92.4134 213.542 92.4134L213.358 91.9526L210.816 85.4937L217.889 79.2192L218.918 78.3744C218.918 78.3744 219.502 80.1869 220.201 82.4525C220.201 82.56 220.262 82.6598 220.301 82.775C220.339 82.8902 220.385 83.0208 220.416 83.1437C220.523 83.4739 220.631 83.8195 220.738 84.1651C220.846 84.5107 220.892 84.6873 220.969 84.9331C221.046 85.1789 221.115 85.4784 221.199 85.7625C221.743 87.7398 222.154 89.7514 222.428 91.7837Z" fill="#EB9481"/>
<path d="M220.201 82.4525C219.818 84.4379 219.008 86.3161 217.826 87.9567C216.645 89.5973 215.12 90.9609 213.358 91.9526L210.816 85.4937L217.889 79.2192L218.918 78.3744C218.918 78.3744 219.502 80.1869 220.201 82.4525Z" fill="#263238"/>
<path d="M200.033 76.224C200.801 88.3814 208.189 89.28 210.785 89.111C213.166 88.9574 221.245 88.1203 221.721 75.9552C222.198 63.7901 216.299 60.3033 210.839 60.3725C205.378 60.4416 199.25 64.0742 200.033 76.224Z" fill="#EB9481"/>
<path d="M202.16 74.2349C202.437 74.1581 202.683 74.0506 202.928 73.9508C203.227 73.8908 203.496 73.7342 203.696 73.5053C203.745 73.4229 203.764 73.3269 203.751 73.2324C203.739 73.1379 203.695 73.0502 203.627 72.9831C203.471 72.872 203.288 72.8036 203.096 72.7848C202.905 72.7659 202.712 72.7972 202.537 72.8756C202.16 72.9874 201.838 73.2333 201.631 73.5668C201.59 73.6468 201.573 73.7369 201.581 73.8264C201.59 73.9159 201.625 74.0009 201.681 74.0714C201.736 74.1418 201.811 74.1947 201.896 74.2237C201.982 74.2527 202.073 74.2566 202.16 74.2349Z" fill="#263238"/>
<path d="M210.547 73.3594C210.265 73.3542 209.983 73.3337 209.702 73.298C209.406 73.3187 209.112 73.2404 208.865 73.0752C208.796 73.0079 208.75 72.9193 208.736 72.8234C208.723 72.7275 208.741 72.6297 208.789 72.5453C208.91 72.3966 209.068 72.2827 209.247 72.2153C209.427 72.1478 209.621 72.1292 209.81 72.1613C210.201 72.1607 210.577 72.309 210.862 72.576C210.925 72.64 210.968 72.7208 210.985 72.8087C211.003 72.8965 210.994 72.9876 210.961 73.0707C210.927 73.1538 210.87 73.2254 210.797 73.2767C210.724 73.3279 210.637 73.3567 210.547 73.3594Z" fill="#263238"/>
<path d="M209.349 76.6234C209.349 76.6234 209.418 76.6234 209.418 76.6848C209.487 77.5142 209.702 78.4512 210.478 78.6432V78.6893C209.549 78.6586 209.28 77.4144 209.349 76.6234Z" fill="#263238"/>
<path d="M209.986 75.6787C211.3 75.433 211.707 78.0749 210.486 78.3053C209.265 78.5357 208.896 75.8861 209.986 75.6787Z" fill="#263238"/>
<path d="M210.532 75.7401C210.785 75.8553 211.046 76.0857 211.3 76.0704C211.553 76.055 211.83 75.7401 211.999 75.4406C211.999 75.4406 212.045 75.4406 212.052 75.4406C212.137 75.9475 212.052 76.5004 211.484 76.654C210.916 76.8076 210.578 76.4083 210.37 75.886C210.363 75.8476 210.432 75.6941 210.532 75.7401Z" fill="#263238"/>
<path d="M204.157 77.0228C204.157 77.0228 204.096 77.0765 204.104 77.1072C204.257 77.9213 204.303 78.8813 203.604 79.273C203.604 79.273 203.604 79.3268 203.604 79.3191C204.503 79.0426 204.434 77.7754 204.157 77.0228Z" fill="#263238"/>
<path d="M203.29 76.2854C201.953 76.393 202.276 79.0579 203.505 78.9504C204.733 78.8429 204.403 76.1933 203.29 76.2854Z" fill="#263238"/>
<path d="M202.752 76.5313C202.56 76.6925 202.383 76.9767 202.138 77.0228C201.892 77.0689 201.6 76.8154 201.37 76.562C201.416 77.0689 201.646 77.5834 202.138 77.6218C202.629 77.6602 202.867 77.1841 202.906 76.6618C202.921 76.5927 202.829 76.4621 202.752 76.5313Z" fill="#263238"/>
<path d="M206.5 79.8182C206.056 79.9247 205.628 80.0873 205.225 80.3021C205.148 77.6985 205.486 75.1027 205.371 72.5069C205.371 72.4865 205.363 72.467 205.348 72.4525C205.334 72.4381 205.314 72.4301 205.294 72.4301C205.274 72.4301 205.254 72.4381 205.24 72.4525C205.225 72.467 205.217 72.4865 205.217 72.5069C204.763 75.2779 204.591 78.0877 204.703 80.8934C204.703 81.1776 206.523 79.9565 206.523 79.9565C206.523 79.9565 206.515 79.8182 206.5 79.8182Z" fill="#263238"/>
<path d="M220.969 76.992C217.951 77.3069 215.785 68.1984 215.531 67.0772C215.654 67.7914 216.299 71.5776 216.023 71.7696C215.7 71.808 215.373 71.7924 215.055 71.7236C214.99 71.2686 214.89 70.8193 214.756 70.3796C214.702 70.1722 214.756 70.848 214.756 71.6852L214.18 71.6084C214.077 70.6322 213.844 69.674 213.489 68.7591C213.35 68.4135 213.489 70.0416 213.335 71.5008C210.668 71.1099 207.966 71.0146 205.279 71.2167C204.511 71.2935 203.881 71.3933 203.313 71.5008C203.151 70.3796 203.113 69.1968 203.067 69.4349C202.937 70.1442 202.878 70.8645 202.89 71.5853L202.045 71.7696C201.746 70.2336 202.145 67.561 201.946 67.9834C201.361 69.2811 201.027 70.6779 200.962 72.0999C199.91 72.4608 199.642 72.7143 199.572 72.4378C199.462 69.2712 200.48 66.1682 202.445 63.6826C205.701 59.6199 213.066 57.6845 218.05 62.5383C218.05 62.5383 221.844 64.32 222.904 67.9143C223.964 71.5085 222.72 76.8 220.969 76.992Z" fill="#263238"/>
<path d="M219.871 77.0073C219.871 77.0073 221.929 72.8524 223.772 73.5283C225.615 74.2041 224.479 79.9564 222.589 81.0086C222.356 81.1589 222.095 81.2606 221.821 81.3076C221.547 81.3546 221.267 81.3459 220.997 81.2821C220.726 81.2183 220.472 81.1007 220.248 80.9363C220.024 80.7718 219.836 80.5639 219.694 80.3251L219.871 77.0073Z" fill="#EB9481"/>
<path d="M223.403 75.1719V75.218C222.083 75.986 221.545 77.4144 221.23 78.8429C221.29 78.69 221.383 78.5521 221.502 78.4385C221.621 78.325 221.763 78.2386 221.919 78.1853C222.074 78.132 222.239 78.1131 222.403 78.1298C222.566 78.1466 222.724 78.1986 222.866 78.2823C222.874 78.2859 222.881 78.2918 222.886 78.2993C222.891 78.3068 222.894 78.3155 222.894 78.3245C222.894 78.3335 222.891 78.3423 222.886 78.3498C222.881 78.3573 222.874 78.3632 222.866 78.3668C222.607 78.323 222.341 78.3617 222.105 78.4775C221.869 78.5932 221.676 78.7802 221.553 79.0119C221.343 79.3963 221.178 79.8034 221.061 80.2253C221.015 80.3636 220.777 80.3252 220.8 80.1792V80.1408C220.5 78.336 221.514 75.6404 223.403 75.1719Z" fill="#263238"/>
<path d="M206.461 81.9072C206.831 82.36 207.309 82.7115 207.852 82.9287C208.154 83.0246 208.478 83.0246 208.781 82.9287C209.449 82.7367 209.449 82.1607 209.311 81.6C209.235 81.3329 209.13 81.0752 208.996 80.832C208.286 81.45 207.399 81.8265 206.461 81.9072Z" fill="#263238"/>
<path d="M207.851 82.9441C208.154 83.04 208.478 83.04 208.781 82.9441C209.449 82.7521 209.449 82.1761 209.311 81.6154C208.953 81.6388 208.614 81.7829 208.348 82.0243C208.083 82.2657 207.908 82.59 207.851 82.9441Z" fill="#FF9CBD"/>
<path d="M196.193 93.2045C197.222 94.7275 197.777 96.5202 197.791 98.3578C197.791 104.886 190.625 110.177 181.786 110.177C172.946 110.177 165.796 104.886 165.796 98.3578C165.796 91.8298 172.954 86.5382 181.786 86.5382C185.712 86.4744 189.564 87.6163 192.822 89.8099L198.336 88.4122L196.193 93.2045Z" fill="white"/>
<path d="M196.193 93.2044C197.215 94.6389 197.799 96.3387 197.876 98.0982C197.952 99.8578 197.517 101.602 196.623 103.119C195.73 104.632 194.529 105.94 193.098 106.959C191.68 107.998 190.106 108.806 188.437 109.355C186.771 109.917 185.043 110.27 183.291 110.408C181.539 110.535 179.777 110.45 178.045 110.154C174.525 109.627 171.25 108.035 168.661 105.592C167.374 104.337 166.407 102.791 165.842 101.084C165.297 99.3516 165.281 97.4959 165.796 95.7542C166.328 94.0394 167.272 92.481 168.545 91.2153C169.797 89.9508 171.257 88.9116 172.861 88.1433C176.061 86.6474 179.592 86.002 183.114 86.2694C186.633 86.4625 190.029 87.6239 192.929 89.6256H192.783L198.313 88.3046L198.505 88.2585L198.42 88.4352L196.193 93.2044ZM196.193 93.2044L198.252 88.3737L198.359 88.4966L192.868 89.9789H192.791L192.722 89.9328C189.851 88.0453 186.517 86.9826 183.084 86.8608C181.378 86.7727 179.668 86.8939 177.992 87.2217C176.313 87.5164 174.684 88.0464 173.153 88.7961C171.627 89.53 170.24 90.5226 169.052 91.7299C167.871 92.9199 166.998 94.3805 166.51 95.9846C166.045 97.5883 166.069 99.2945 166.579 100.884C167.092 102.48 167.985 103.928 169.183 105.101C171.658 107.458 174.797 108.999 178.176 109.517C181.548 110.115 185.014 109.894 188.283 108.872C191.592 107.92 194.453 105.821 196.355 102.95C197.25 101.485 197.718 99.7985 197.706 98.0812C197.657 96.348 197.134 94.6614 196.193 93.2044Z" fill="#263238"/>
<path d="M176.033 98.3578C176.033 98.0297 175.936 97.709 175.754 97.4362C175.571 97.1634 175.312 96.9507 175.009 96.8252C174.706 96.6996 174.373 96.6668 174.051 96.7308C173.729 96.7948 173.433 96.9528 173.201 97.1848C172.969 97.4168 172.811 97.7124 172.747 98.0342C172.683 98.356 172.716 98.6895 172.842 98.9926C172.967 99.2957 173.18 99.5548 173.453 99.7371C173.726 99.9194 174.046 100.017 174.374 100.017C174.814 100.017 175.236 99.8419 175.547 99.5308C175.859 99.2197 176.033 98.7978 176.033 98.3578Z" fill="#263238"/>
<path d="M183.452 98.3578C183.452 98.0297 183.355 97.709 183.173 97.4362C182.99 97.1634 182.731 96.9507 182.428 96.8252C182.125 96.6996 181.792 96.6668 181.47 96.7308C181.148 96.7948 180.852 96.9528 180.62 97.1848C180.388 97.4168 180.23 97.7124 180.166 98.0342C180.102 98.356 180.135 98.6895 180.261 98.9926C180.386 99.2957 180.599 99.5548 180.872 99.7371C181.145 99.9194 181.465 100.017 181.793 100.017C182.233 100.017 182.655 99.8419 182.966 99.5308C183.278 99.2197 183.452 98.7978 183.452 98.3578Z" fill="#263238"/>
<path d="M190.863 98.3578C190.863 98.0297 190.766 97.709 190.584 97.4362C190.402 97.1634 190.142 96.9507 189.839 96.8252C189.536 96.6996 189.203 96.6668 188.881 96.7308C188.559 96.7948 188.264 96.9528 188.032 97.1848C187.8 97.4168 187.642 97.7124 187.578 98.0342C187.514 98.356 187.546 98.6895 187.672 98.9926C187.797 99.2957 188.01 99.5548 188.283 99.7371C188.556 99.9194 188.876 100.017 189.205 100.017C189.644 100.017 190.066 99.8419 190.378 99.5308C190.689 99.2197 190.863 98.7978 190.863 98.3578Z" fill="#263238"/>
<path d="M198.336 150.927H138.063V153.631H198.336V150.927Z" fill="#455A64"/>
<path d="M168.399 150.927H138.063V153.631H168.399V150.927Z" fill="#263238"/>
<path d="M165.135 153.631H106.399L98.7188 113.733H157.455L165.135 153.631Z" fill="#455A64"/>
<path d="M135.498 133.678C135.55 134.133 135.503 134.594 135.362 135.03C135.221 135.466 134.989 135.866 134.681 136.205C134.373 136.544 133.995 136.813 133.575 136.994C133.154 137.176 132.7 137.265 132.242 137.257C131.267 137.241 130.332 136.868 129.614 136.208C128.896 135.548 128.446 134.648 128.348 133.678C128.299 133.223 128.347 132.763 128.49 132.328C128.632 131.893 128.865 131.494 129.174 131.156C129.483 130.818 129.86 130.55 130.28 130.369C130.701 130.188 131.155 130.099 131.612 130.107C132.585 130.123 133.518 130.495 134.234 131.153C134.951 131.812 135.4 132.71 135.498 133.678Z" fill="#A6A6A6"/>
<path d="M239.708 147.333C239.215 148.526 238.325 149.512 237.189 150.125C236.053 150.738 234.74 150.94 233.472 150.697C232.944 150.596 232.429 150.436 231.936 150.221L232.85 148.101C233.117 148.222 233.395 148.317 233.679 148.385C234.469 148.582 235.304 148.486 236.029 148.116C236.754 147.747 237.322 147.128 237.627 146.373C238.633 144.192 238.295 139.707 236.59 138.278C236.475 138.171 236.037 138.048 234.493 138.693C234.209 138.816 233.887 138.954 233.526 139.131C233.249 139.287 232.955 139.411 232.65 139.5L232.397 138.378L232.074 137.272C232.174 137.234 232.328 137.157 232.527 137.057C233.229 136.7 233.959 136.4 234.709 136.159C235.868 135.813 237.135 135.721 238.072 136.512C240.829 138.847 240.968 144.599 239.708 147.333Z" fill="#06729D"/>
<path d="M232.835 148.101C233.101 148.222 233.379 148.317 233.664 148.385L233.472 150.689C232.944 150.588 232.429 150.428 231.936 150.213L232.835 148.101Z" fill="#263238"/>
<path d="M234.693 136.159L234.478 138.693C234.194 138.816 233.872 138.954 233.511 139.131C233.234 139.287 232.94 139.411 232.635 139.499L232.382 138.378L232.059 137.272C232.159 137.234 232.313 137.157 232.512 137.057C233.214 136.7 233.944 136.4 234.693 136.159Z" fill="#263238"/>
<path d="M233.457 131.282L233.38 133.333L233.334 134.584L233.311 135.337L232.643 153.362H217.091L216.422 135.337L216.399 134.584L216.353 133.333L216.276 131.282H233.457Z" fill="#06729D"/>
<path d="M233.457 131.282L233.38 133.333H216.353L216.276 131.282H233.457Z" fill="#455A64"/>
<path d="M233.334 134.584L233.311 135.337H216.422L216.399 134.584H233.334Z" fill="#455A64"/>
<path d="M126.274 158.469L126.082 173.606L123.97 339.633H121.597L119.485 173.606L119.293 158.469H126.274Z" fill="#455A64"/>
<path d="M119.293 158.469H126.274L126.082 173.606H119.485L119.293 158.469Z" fill="#263238"/>
<path d="M294.613 158.469L294.421 173.606L292.309 339.633H289.935L287.823 173.606L287.631 158.469H294.613Z" fill="#455A64"/>
<path d="M294.613 158.469L294.421 173.606H287.823L287.631 158.469H294.613Z" fill="#263238"/>
<path d="M102.06 158.469L101.868 173.606L99.7556 339.633H97.3825L95.2705 173.606L95.0785 158.469H102.06Z" fill="#37474F"/>
<path d="M95.0785 158.469H102.06L101.868 173.606H95.2705L95.0785 158.469Z" fill="#263238"/>
<path d="M270.39 158.469L270.198 173.606L268.086 339.633H265.713L263.601 173.606L263.409 158.469H270.39Z" fill="#37474F"/>
<path d="M263.409 158.469H270.39L270.198 173.606H263.601L263.409 158.469Z" fill="#263238"/>
<path d="M265.16 287.101H98.5729V290.173H265.16V287.101Z" fill="#37474F"/>
<path d="M298.76 153.362H277.179V162.125H298.76V153.362Z" fill="#455A64"/>
<path d="M277.179 153.362H87.4598V162.125H277.179V153.362Z" fill="#37474F"/>
<path d="M126.305 244.5C113.948 262.303 101.115 282.9 98.4806 304.865C98.4806 305.196 98.9875 305.288 99.0489 304.957C100.358 298.955 102.09 293.052 104.233 287.293C112.627 284.721 120.875 282.57 125.076 274.045C129.354 265.283 128.456 254.077 127.319 244.669C127.242 244.163 126.559 244.163 126.305 244.5Z" fill="#06729D"/>
<path d="M103.956 286.886C109.647 273.869 116.974 260.774 126.336 250.022C126.397 249.953 126.497 250.022 126.444 250.13C120.3 257.772 115.692 266.081 111.16 274.537C115.392 270.175 120.031 266.266 124.04 261.65C124.116 261.565 124.239 261.65 124.17 261.781C120.192 266.619 115.853 271.88 110.653 275.474C109.271 278.07 107.876 280.668 106.468 283.269C106.813 283.077 107.174 282.901 107.535 282.716C107.597 282.716 107.651 282.778 107.589 282.808C107.19 283.016 106.821 283.231 106.391 283.407C105.723 284.636 105.055 285.873 104.371 287.101C104.218 287.393 103.834 287.163 103.956 286.886Z" fill="#263238"/>
<path d="M108.227 282.325C111.674 280.365 114.961 278.136 118.057 275.658C118.141 275.589 118.264 275.712 118.18 275.781C115.181 278.411 111.89 280.689 108.373 282.57C108.211 282.624 108.065 282.417 108.227 282.325Z" fill="#263238"/>
<path d="M96.914 306.916C96.914 307.185 97.3979 307.162 97.3825 306.916C97.2443 299.712 96.9755 292.485 96.868 285.251C98.6036 281.48 102.505 279.306 105.17 276.242C107.087 274.008 108.739 271.56 110.093 268.946C113.225 262.706 115.054 255.894 115.469 248.924C116.007 241.206 112.351 215.9 109.125 216.86C107.459 217.367 102.375 230.108 101.054 234.309C98.9122 241.237 97.4033 248.344 96.5454 255.544C94.4104 272.525 95.1323 289.912 96.914 306.916Z" fill="#06729D"/>
<path d="M96 275.873C96.1306 266.757 97.92 257.503 99.5789 248.617C101.376 239.04 103.534 230.008 108.188 221.384C108.273 221.222 108.511 221.384 108.434 221.522C105.371 228.216 103.053 235.226 101.522 242.427C101.837 241.905 102.221 241.413 102.551 240.891C102.674 240.699 102.997 240.891 102.874 241.067C102.459 241.849 101.967 242.587 101.407 243.272C101.384 243.277 101.36 243.277 101.338 243.272C99.8554 250.122 98.8416 257.096 98.0122 264.084C98.0813 263.992 98.1581 263.892 98.2349 263.808C98.3117 263.723 98.3732 263.808 98.3424 263.885C98.2196 264.123 98.0813 264.353 97.9508 264.584C97.5284 268.124 97.1828 271.649 96.7604 275.151C102.904 269.606 108.05 263.14 110.845 255.268C110.845 255.229 110.915 255.268 110.907 255.268C108.181 263.432 103.718 270.743 96.6836 275.85C96.576 276.795 96.4762 277.739 96.3687 278.676C96.3687 278.868 96.0308 278.83 96.0308 278.676C96.0308 277.847 96.0308 277.018 96.0308 276.18C96.005 276.165 95.9831 276.144 95.967 276.119C95.9509 276.093 95.941 276.064 95.938 276.035C95.935 276.005 95.939 275.975 95.9498 275.946C95.9606 275.918 95.9778 275.893 96 275.873Z" fill="#263238"/>
<path d="M98.5344 262.595C103.142 255.306 107.397 248.225 110.676 240.223C110.676 240.131 110.861 240.223 110.83 240.284C108.104 248.225 104.195 256.297 98.7801 262.771C98.6726 262.902 98.4422 262.741 98.5344 262.595Z" fill="#263238"/>
<path d="M104.218 238.641C106.099 235.069 108.096 231.59 109.855 227.95C109.909 227.85 110.047 227.95 110.008 228.035C108.586 231.811 106.747 235.417 104.525 238.787C104.5 238.816 104.466 238.835 104.428 238.843C104.39 238.851 104.351 238.846 104.316 238.83C104.281 238.813 104.253 238.786 104.235 238.752C104.217 238.718 104.211 238.679 104.218 238.641Z" fill="#263238"/>
<path d="M103.481 240.192C103.528 240.192 103.528 240.247 103.481 240.254C103.434 240.262 103.442 240.192 103.481 240.192Z" fill="#263238"/>
<path d="M93.1201 285.22C93.1611 289.994 92.7341 294.76 91.8452 299.451C91.9373 299.958 92.0218 300.465 92.114 300.987C93.4657 295.78 94.2106 285.496 94.2029 284.621C94.1995 277.442 93.4584 270.282 91.9911 263.255C89.3799 250.092 84.1421 237.535 74.6343 227.927C74.5561 227.864 74.4645 227.82 74.3666 227.798C74.2687 227.775 74.1671 227.776 74.0693 227.799C73.9716 227.822 73.8804 227.867 73.8026 227.93C73.7248 227.994 73.6626 228.074 73.6205 228.165C70.1722 237.734 71.8004 248.993 75.241 258.34C77.1113 263.386 79.7062 268.134 82.9441 272.433C86.2618 276.787 90.409 280.435 93.1201 285.22Z" fill="#06729D"/>
<path d="M75.8555 232.282C85.0024 246.213 91.5765 262.863 92.8053 279.598C92.8053 279.898 92.3291 279.99 92.2754 279.683C92.0219 278.185 91.7531 276.703 91.469 275.22C87.7518 271.864 83.9349 268.308 81.2162 264.061C81.1701 263.992 81.2776 263.9 81.339 263.962C84.5877 267.471 87.629 271.066 91.277 274.168C90.5499 270.482 89.6949 266.857 88.7118 263.293L87.9976 262.525C87.844 262.349 88.0898 262.08 88.251 262.257L88.4661 262.479C87.0871 257.579 85.4176 252.766 83.4664 248.064C81.1624 245.476 78.605 243.256 76.8923 240.1C76.8877 240.085 76.8882 240.069 76.8937 240.055C76.8992 240.04 76.9094 240.028 76.9227 240.02C76.936 240.012 76.9516 240.009 76.967 240.011C76.9824 240.013 76.9966 240.02 77.0075 240.031C78.3592 241.82 79.6802 243.625 81.2008 245.276C81.8152 245.937 82.4757 246.551 83.1054 247.196C80.945 242.11 78.4087 237.191 75.5176 232.481C75.5017 232.437 75.5016 232.39 75.5173 232.346C75.5331 232.302 75.5636 232.265 75.6037 232.241C75.6438 232.218 75.6909 232.209 75.7369 232.216C75.7829 232.223 75.8248 232.247 75.8555 232.282Z" fill="#263238"/>
<path d="M78.1286 249.731C81.0623 253.455 84.3878 256.988 87.1295 260.844C87.2063 260.951 87.0451 261.074 86.9452 260.989C83.4815 257.917 80.5017 253.678 77.9366 249.846C77.8598 249.731 78.0364 249.6 78.1286 249.731Z" fill="#263238"/>
<path d="M87.5519 261.711L87.6824 261.827C87.7669 261.911 87.6364 262.042 87.5519 261.965L87.429 261.842C87.3368 261.765 87.4597 261.627 87.5519 261.711Z" fill="#263238"/>
<path d="M61.2481 255.744C62.162 263.017 66.2555 271.626 71.1016 277.117C73.2439 279.504 75.8593 281.418 78.7816 282.739C82.0686 284.275 85.5169 285.996 88.9038 287.209C90.6137 291.222 91.9206 295.395 92.8052 299.666C92.8974 299.297 92.9972 298.898 93.0971 298.545C90.4091 280.113 77.9905 264.676 62.3771 254.984C62.2537 254.917 62.1145 254.885 61.9744 254.892C61.8343 254.899 61.6987 254.944 61.5824 255.022C61.4661 255.1 61.3734 255.209 61.3145 255.336C61.2556 255.464 61.2326 255.605 61.2481 255.744Z" fill="#06729D"/>
<path d="M66.6931 261.028C66.5856 260.936 66.6931 260.736 66.8467 260.82C75.1257 266.588 82.6829 275.136 87.0297 284.275C87.1526 284.521 86.807 284.759 86.6534 284.506C85.8854 283.285 85.1174 282.094 84.3494 280.919C80.8397 280.358 77.4374 278.001 74.8032 275.743C74.7341 275.681 74.8032 275.574 74.903 275.635C76.2743 276.812 77.789 277.811 79.4112 278.607C80.8801 279.226 82.3797 279.77 83.904 280.236C82.5446 278.223 81.1392 276.296 79.68 274.422C75.8861 273.254 72.2381 271.05 69.0125 268.831C68.9126 268.762 69.0125 268.593 69.1123 268.654C72.3233 270.47 75.6277 272.116 79.0118 273.585C76.7986 270.835 74.4212 268.221 71.8925 265.759C70.6867 265.167 69.4656 264.568 68.2982 263.931C68.282 263.918 68.2705 263.899 68.2652 263.879C68.2599 263.859 68.2612 263.837 68.2689 263.818C68.2765 263.798 68.2902 263.781 68.3079 263.77C68.3255 263.759 68.3464 263.753 68.3673 263.754C69.3333 264.059 70.259 264.48 71.1245 265.006C69.719 263.662 68.2598 262.326 66.6931 261.028Z" fill="#263238"/>
<path d="M67.2076 267.395C67.4178 267.514 67.6181 267.65 67.8067 267.802C67.8604 267.848 67.8067 267.925 67.7376 267.894C67.517 267.805 67.306 267.695 67.1078 267.564C67.0903 267.548 67.0787 267.527 67.075 267.504C67.0713 267.481 67.0758 267.458 67.0876 267.438C67.0995 267.418 67.1179 267.402 67.1399 267.394C67.1618 267.387 67.1858 267.387 67.2076 267.395Z" fill="#263238"/>
<path d="M111.706 288.591L111.091 302.638L109.402 341.169H82.1761L80.4865 302.638L79.8721 288.591H111.706Z" fill="#37474F"/>
<path d="M111.706 288.591L111.091 302.638H80.4865L79.8721 288.591H111.706Z" fill="#263238"/>
<path d="M114.048 285.711H77.5297V294.566H114.048V285.711Z" fill="#37474F"/>
</svg>
