<svg width="67" height="66" viewBox="0 0 67 66" fill="none" xmlns="http://www.w3.org/2000/svg">
<path fill-rule="evenodd" clip-rule="evenodd" d="M43.803 22.1316C40.9362 19.2615 37.1236 17.6802 33.0619 17.6785C24.6923 17.6785 17.8807 24.4899 17.8774 32.8617C17.8762 35.5379 18.5754 38.1503 19.9042 40.453L17.75 48.3213L25.7995 46.2098C28.0175 47.4197 30.5146 48.0572 33.0557 48.058H33.0621C41.4307 48.058 48.243 41.246 48.2462 32.8738C48.2479 28.8164 46.6699 25.0016 43.803 22.1316ZM33.0619 45.4936H33.0567C30.7921 45.4927 28.5711 44.8841 26.6331 43.7344L26.1725 43.4608L21.3958 44.7139L22.6707 40.0567L22.3706 39.5792C21.1072 37.5698 20.44 35.2472 20.4412 32.8626C20.4438 25.9042 26.1055 20.243 33.0669 20.243C36.438 20.2441 39.6068 21.5586 41.9895 23.9441C44.3723 26.3297 45.6837 29.5006 45.6826 32.8729C45.6796 39.8319 40.0183 45.4936 33.0619 45.4936ZM39.9846 36.0414C39.6053 35.8513 37.7399 34.9338 37.392 34.807C37.0445 34.6804 36.7913 34.6173 36.5386 34.997C36.2855 35.3767 35.5585 36.2314 35.3371 36.4844C35.1157 36.7377 34.8946 36.7695 34.5151 36.5794C34.1356 36.3896 32.9132 35.9888 31.4639 34.6963C30.3361 33.6902 29.5747 32.4478 29.3533 32.0681C29.1322 31.6881 29.3514 31.5025 29.5197 31.2938C29.9305 30.7838 30.3417 30.2491 30.4682 29.996C30.5948 29.7428 30.5314 29.5212 30.4364 29.3313C30.3417 29.1415 29.583 27.274 29.2669 26.5141C28.9587 25.7746 28.6461 25.8745 28.4131 25.8629C28.192 25.8518 27.939 25.8496 27.6859 25.8496C27.4331 25.8496 27.022 25.9444 26.6741 26.3245C26.3264 26.7043 25.3464 27.6221 25.3464 29.4895C25.3464 31.357 26.7059 33.1611 26.8955 33.4144C27.0852 33.6676 29.571 37.4998 33.3768 39.1431C34.2821 39.5343 34.9887 39.7675 35.5398 39.9424C36.4488 40.2312 37.2757 40.1904 37.9295 40.0928C38.6586 39.9838 40.174 39.1749 40.4905 38.2887C40.8066 37.4024 40.8066 36.6428 40.7116 36.4844C40.6169 36.3262 40.3639 36.2314 39.9846 36.0414Z" fill="#333333"/>
</svg>
